<svg width="170" height="170" viewBox="0 0 170 170" fill="none" xmlns="http://www.w3.org/2000/svg">
<path d="M152.966 135.49H141.712V135.592H152.966V135.49Z" fill="#EBEBEB"/>
<path d="M112.608 137.088H109.65V137.19H112.608V137.088Z" fill="#EBEBEB"/>
<path d="M141.372 132.328H134.844V132.43H141.372V132.328Z" fill="#EBEBEB"/>
<path d="M32.5381 132.906H17.8501V133.008H32.5381V132.906Z" fill="#EBEBEB"/>
<path d="M37.706 132.906H35.564V133.008H37.706V132.906Z" fill="#EBEBEB"/>
<path d="M76.568 134.334H44.71V134.436H76.568V134.334Z" fill="#EBEBEB"/>
<path d="M80.5798 114.852H14.9258C13.8718 114.852 12.9878 113.968 12.9878 112.914V20.638C12.9878 19.584 13.8718 18.7 14.9258 18.7H80.5798C81.6338 18.7 82.5178 19.584 82.5178 20.638V112.914C82.5178 113.968 81.6678 114.852 80.5798 114.852ZM14.9258 18.768C13.9058 18.768 13.0558 19.584 13.0558 20.638V112.914C13.0558 113.934 13.8718 114.784 14.9258 114.784H80.5798C81.5998 114.784 82.4498 113.968 82.4498 112.914V20.638C82.4498 19.618 81.6338 18.768 80.5798 18.768H14.9258Z" fill="#EBEBEB"/>
<path d="M154.122 114.852H88.4678C87.4138 114.852 86.5298 113.968 86.5298 112.914V20.638C86.5298 19.584 87.4138 18.7 88.4678 18.7H154.122C155.176 18.7 156.06 19.584 156.06 20.638V112.914C156.06 113.968 155.21 114.852 154.122 114.852ZM88.4678 18.768C87.4478 18.768 86.5978 19.584 86.5978 20.638V112.914C86.5978 113.934 87.4138 114.784 88.4678 114.784H154.122C155.142 114.784 155.992 113.968 155.992 112.914V20.638C155.992 19.618 155.176 18.768 154.122 18.768H88.4678Z" fill="#EBEBEB"/>
<path d="M170 130.016H0V130.118H170V130.016Z" fill="#EBEBEB"/>
<path d="M141.712 89.896H90.6099L90.9499 86.428H142.052L141.712 89.896Z" fill="#FAFAFA"/>
<path d="M133.314 89.896H85.5439L85.8839 86.428H133.688L133.314 89.896Z" fill="#F0F0F0"/>
<path d="M142.256 91.1879H85.272L85.884 85.1019H142.902L142.256 91.1879ZM85.578 90.4739H142.086L142.562 85.7819H86.054L85.578 90.4739Z" fill="#E6E6E6"/>
<path d="M87.4138 89.5559H85.9858L86.2918 86.7679H87.7198L87.4138 89.5559Z" fill="#E6E6E6"/>
<path d="M89.1819 89.5559H87.7539L88.0259 86.7679H89.4879L89.1819 89.5559Z" fill="#E6E6E6"/>
<path d="M90.9498 89.5559H89.4878L89.7938 86.7679H91.2218L90.9498 89.5559Z" fill="#E6E6E6"/>
<path d="M92.6839 89.5559H91.2559L91.5619 86.7679H92.9899L92.6839 89.5559Z" fill="#E6E6E6"/>
<path d="M94.4519 89.5559H93.0239L93.2959 86.7679H94.7239L94.4519 89.5559Z" fill="#E6E6E6"/>
<path d="M96.1858 89.5559H94.7578L95.0638 86.7679H96.4918L96.1858 89.5559Z" fill="#E6E6E6"/>
<path d="M97.9539 89.5559H96.5259L96.7979 86.7679H98.2599L97.9539 89.5559Z" fill="#E6E6E6"/>
<path d="M99.7218 89.5559H98.2598L98.5658 86.7679H99.9938L99.7218 89.5559Z" fill="#E6E6E6"/>
<path d="M101.456 89.5559H100.028L100.3 86.7679H101.762L101.456 89.5559Z" fill="#E6E6E6"/>
<path d="M103.224 89.5559H101.762L102.068 86.7679H103.496L103.224 89.5559Z" fill="#E6E6E6"/>
<path d="M104.958 89.5559H103.53L103.836 86.7679H105.264L104.958 89.5559Z" fill="#E6E6E6"/>
<path d="M106.726 89.5559H105.298L105.57 86.7679H107.032L106.726 89.5559Z" fill="#E6E6E6"/>
<path d="M108.494 89.5559H107.032L107.338 86.7679H108.766L108.494 89.5559Z" fill="#E6E6E6"/>
<path d="M110.228 89.5559H108.8L109.072 86.7679H110.534L110.228 89.5559Z" fill="#E6E6E6"/>
<path d="M111.996 89.5559H110.534L110.84 86.7679H112.268L111.996 89.5559Z" fill="#E6E6E6"/>
<path d="M113.73 89.5559H112.302L112.608 86.7679H114.036L113.73 89.5559Z" fill="#E6E6E6"/>
<path d="M115.498 89.5559H114.07L114.342 86.7679H115.804L115.498 89.5559Z" fill="#E6E6E6"/>
<path d="M117.266 89.5559H115.804L116.11 86.7679H117.538L117.266 89.5559Z" fill="#E6E6E6"/>
<path d="M119 89.5559H117.572L117.844 86.7679H119.306L119 89.5559Z" fill="#E6E6E6"/>
<path d="M120.768 89.5559H119.306L119.612 86.7679H121.04L120.768 89.5559Z" fill="#E6E6E6"/>
<path d="M122.502 89.5559H121.074L121.38 86.7679H122.808L122.502 89.5559Z" fill="#E6E6E6"/>
<path d="M124.27 89.5559H122.842L123.114 86.7679H124.576L124.27 89.5559Z" fill="#E6E6E6"/>
<path d="M126.038 89.5559H124.576L124.882 86.7679H126.31L126.038 89.5559Z" fill="#E6E6E6"/>
<path d="M127.772 89.5559H126.344L126.616 86.7679H128.078L127.772 89.5559Z" fill="#E6E6E6"/>
<path d="M129.54 89.5559H128.078L128.384 86.7679H129.812L129.54 89.5559Z" fill="#E6E6E6"/>
<path d="M131.274 89.5559H129.846L130.152 86.7679H131.58L131.274 89.5559Z" fill="#E6E6E6"/>
<path d="M133.042 89.5559H131.614L131.886 86.7679H133.348L133.042 89.5559Z" fill="#E6E6E6"/>
<path d="M149.26 91.0859H143.718L144.194 85.5099H145.792L145.758 85.9859H144.636L144.228 90.6099H148.852L149.226 85.9859H148.104L148.138 85.5099H149.77L149.26 91.0859Z" fill="#E6E6E6"/>
<path d="M146.982 88.2979H146.506L146.982 82.9939H147.424L146.982 88.2979Z" fill="#E6E6E6"/>
<path d="M148.58 84.1499L147.186 83.2659L145.588 84.0479L145.384 83.6399L147.22 82.7219L148.852 83.7419L148.58 84.1499Z" fill="#E6E6E6"/>
<path d="M146.098 74.4599H94.9961L95.3701 70.9919H146.472L146.098 74.4599Z" fill="#FAFAFA"/>
<path d="M141.304 74.4599H89.9302L90.3042 70.9919H141.644L141.304 74.4599Z" fill="#F0F0F0"/>
<path d="M146.676 75.718H89.6582L90.2702 69.632H147.288L146.676 75.718ZM89.9982 75.038H146.506L146.982 70.346H90.4742L89.9982 75.038Z" fill="#E6E6E6"/>
<path d="M91.8343 74.1199H90.4062L90.6783 71.3319H92.1403L91.8343 74.1199Z" fill="#E6E6E6"/>
<path d="M93.6021 74.1199H92.1401L92.4461 71.3319H93.8741L93.6021 74.1199Z" fill="#E6E6E6"/>
<path d="M95.3362 74.1199H93.9082L94.2142 71.3319H95.6422L95.3362 74.1199Z" fill="#E6E6E6"/>
<path d="M97.1043 74.1199H95.6763L95.9483 71.3319H97.4103L97.1043 74.1199Z" fill="#E6E6E6"/>
<path d="M98.8722 74.1199H97.4102L97.7162 71.3319H99.1442L98.8722 74.1199Z" fill="#E6E6E6"/>
<path d="M100.606 74.1199H99.1782L99.4502 71.3319H100.912L100.606 74.1199Z" fill="#E6E6E6"/>
<path d="M102.374 74.1199H100.912L101.218 71.3319H102.646L102.374 74.1199Z" fill="#E6E6E6"/>
<path d="M104.108 74.1199H102.68L102.986 71.3319H104.414L104.108 74.1199Z" fill="#E6E6E6"/>
<path d="M105.876 74.1199H104.448L104.72 71.3319H106.182L105.876 74.1199Z" fill="#E6E6E6"/>
<path d="M107.644 74.1199H106.182L106.488 71.3319H107.916L107.644 74.1199Z" fill="#E6E6E6"/>
<path d="M109.378 74.1199H107.95L108.222 71.3319H109.684L109.378 74.1199Z" fill="#E6E6E6"/>
<path d="M111.146 74.1199H109.684L109.99 71.3319H111.418L111.146 74.1199Z" fill="#E6E6E6"/>
<path d="M112.88 74.1199H111.452L111.758 71.3319H113.186L112.88 74.1199Z" fill="#E6E6E6"/>
<path d="M114.648 74.1199H113.22L113.492 71.3319H114.954L114.648 74.1199Z" fill="#E6E6E6"/>
<path d="M116.416 74.1199H114.954L115.26 71.3319H116.688L116.416 74.1199Z" fill="#E6E6E6"/>
<path d="M118.15 74.1199H116.722L116.994 71.3319H118.456L118.15 74.1199Z" fill="#E6E6E6"/>
<path d="M119.918 74.1199H118.456L118.762 71.3319H120.19L119.918 74.1199Z" fill="#E6E6E6"/>
<path d="M121.652 74.1199H120.224L120.53 71.3319H121.958L121.652 74.1199Z" fill="#E6E6E6"/>
<path d="M123.42 74.1199H121.992L122.264 71.3319H123.726L123.42 74.1199Z" fill="#E6E6E6"/>
<path d="M125.188 74.1199H123.726L124.032 71.3319H125.46L125.188 74.1199Z" fill="#E6E6E6"/>
<path d="M126.922 74.1199H125.494L125.766 71.3319H127.228L126.922 74.1199Z" fill="#E6E6E6"/>
<path d="M128.69 74.1199H127.228L127.534 71.3319H128.962L128.69 74.1199Z" fill="#E6E6E6"/>
<path d="M130.424 74.1199H128.996L129.302 71.3319H130.73L130.424 74.1199Z" fill="#E6E6E6"/>
<path d="M132.192 74.1199H130.764L131.036 71.3319H132.498L132.192 74.1199Z" fill="#E6E6E6"/>
<path d="M133.96 74.1199H132.498L132.804 71.3319H134.232L133.96 74.1199Z" fill="#E6E6E6"/>
<path d="M135.694 74.1199H134.266L134.538 71.3319H136L135.694 74.1199Z" fill="#E6E6E6"/>
<path d="M137.462 74.1199H136L136.306 71.3319H137.734L137.462 74.1199Z" fill="#E6E6E6"/>
<path d="M139.196 74.1199H137.768L138.074 71.3319H139.502L139.196 74.1199Z" fill="#E6E6E6"/>
<path d="M140.964 74.1199H139.536L139.808 71.3319H141.236L140.964 74.1199Z" fill="#E6E6E6"/>
<path d="M153.646 75.6499H148.104L148.58 70.1079H150.178L150.144 70.5839H149.022L148.614 75.1739H153.238L153.612 70.5839H152.49L152.524 70.1079H154.122L153.646 75.6499Z" fill="#E6E6E6"/>
<path d="M151.368 72.8619H150.892L151.368 67.5919H151.844L151.368 72.8619Z" fill="#E6E6E6"/>
<path d="M151.096 73.1339L149.43 72.2499L149.668 71.8079L151.13 72.6239L152.694 71.7399L152.898 72.1479L151.096 73.1339Z" fill="#E6E6E6"/>
<path d="M23.6976 62.5599L23.6636 63.0019H65.3816L65.4156 62.5599H23.6976Z" fill="#F0F0F0"/>
<path opacity="0.2" d="M65.4156 62.5599H23.6976L23.6636 63.0019H65.3816L65.4156 62.5599Z" fill="#F0F0F0"/>
<path d="M65.892 57.2219H24.208L26.724 28.4579H68.408L65.892 57.2219Z" fill="#EBEBEB"/>
<path d="M25.3638 68.5779C24.1738 68.5779 23.3238 67.6259 23.4258 66.4359C23.5278 65.2459 24.5818 64.2939 25.7378 64.2939C26.9278 64.2939 27.7778 65.2459 27.6758 66.4359C27.5738 67.6259 26.5198 68.5779 25.3638 68.5779Z" fill="#E0E0E0"/>
<path d="M44.7439 60.7579H23.9019L24.0719 58.9219H44.9139L44.7439 60.7579Z" fill="#EBEBEB"/>
<path d="M64.974 67.3539H56.916L57.086 65.5179H65.144L64.974 67.3539Z" fill="#E0E0E0"/>
<path d="M65.5855 60.7579H63.7495L63.8855 58.9219H65.7555L65.5855 60.7579Z" fill="#EBEBEB"/>
<path d="M62.4576 60.7579H60.6216L60.7916 58.9219H62.6276L62.4576 60.7579Z" fill="#EBEBEB"/>
<path d="M59.3297 60.7579H57.4937L57.6637 58.9219H59.4997L59.3297 60.7579Z" fill="#EBEBEB"/>
<path opacity="0.5" d="M68.5779 26.6899H37.2979L37.4339 25.0919H68.7139L68.5779 26.6899Z" fill="#F0F0F0"/>
<path d="M34.85 26.7919H26.792L26.962 24.9559H34.986L34.85 26.7919Z" fill="#EBEBEB"/>
<path d="M44.1997 36.2439L51.6117 42.0919L43.1797 47.9399L44.1997 36.2439Z" fill="white"/>
<path d="M62.7634 55.1479L29.2734 55.6919L29.3414 54.8419H64.3274L62.7634 55.1479Z" fill="#E0E0E0"/>
<path d="M60.9617 55.6919H25.8057L25.8737 54.8419H61.0297L60.9617 55.6919Z" fill="white"/>
<path d="M64.7016 56.032H25.7036L25.8396 54.502H64.8376L64.7016 56.032ZM25.8736 55.862H64.5316L64.6336 54.706H25.9756L25.8736 55.862Z" fill="#E0E0E0"/>
<path d="M85.0002 148.75C121.41 148.75 150.926 147.03 150.926 144.908C150.926 142.786 121.41 141.066 85.0002 141.066C48.5903 141.066 19.0742 142.786 19.0742 144.908C19.0742 147.03 48.5903 148.75 85.0002 148.75Z" fill="#F5F5F5"/>
<path d="M137.224 132.566C137.224 132.566 134.844 127.364 137.564 122.23C140.284 117.096 141.1 115.872 139.332 114.818C137.598 113.764 136.782 118.932 136.782 118.932C136.782 118.932 135.32 115.396 136.51 111.656C137.734 107.95 138.482 101.898 136.816 101.218C135.15 100.572 136.51 108.766 135.082 111.554C135.082 111.554 133.892 108.426 133.688 105.468C133.484 102.476 133.79 97.716 132.498 96.492C131.206 95.268 130.356 96.118 131.648 102.714C132.94 109.31 132.906 114.648 132.906 114.648C132.906 114.648 130.084 106.012 128.18 105.74C126.276 105.502 126.276 108.29 127.908 110.704C129.54 113.118 132.668 117.47 133.178 119.714C133.178 119.714 130.05 113.22 127.262 115.192C124.474 117.198 129.71 121.108 132.022 122.536C134.368 123.964 135.966 132.838 135.966 132.838L137.224 132.566Z" fill="#23A9B1"/>
<path opacity="0.2" d="M137.224 132.566C137.224 132.566 134.844 127.364 137.564 122.23C140.284 117.096 141.1 115.872 139.332 114.818C137.598 113.764 136.782 118.932 136.782 118.932C136.782 118.932 135.32 115.396 136.51 111.656C137.734 107.95 138.482 101.898 136.816 101.218C135.15 100.572 136.51 108.766 135.082 111.554C135.082 111.554 133.892 108.426 133.688 105.468C133.484 102.476 133.79 97.716 132.498 96.492C131.206 95.268 130.356 96.118 131.648 102.714C132.94 109.31 132.906 114.648 132.906 114.648C132.906 114.648 130.084 106.012 128.18 105.74C126.276 105.502 126.276 108.29 127.908 110.704C129.54 113.118 132.668 117.47 133.178 119.714C133.178 119.714 130.05 113.22 127.262 115.192C124.474 117.198 129.71 121.108 132.022 122.536C134.368 123.964 135.966 132.838 135.966 132.838L137.224 132.566Z" fill="black"/>
<path d="M135.32 134.708C135.32 134.708 137.632 129.472 134.844 124.372C132.056 119.272 131.24 118.082 132.974 116.994C134.708 115.906 135.558 121.074 135.558 121.074C135.558 121.074 136.986 117.504 135.728 113.798C134.47 110.092 133.654 104.04 135.286 103.394C136.918 102.714 135.694 110.942 137.156 113.73C137.156 113.73 138.312 110.602 138.482 107.61C138.652 104.618 138.278 99.8579 139.57 98.5999C140.862 97.3419 141.712 98.1919 140.488 104.788C139.298 111.384 139.366 116.756 139.366 116.756C139.366 116.756 142.086 108.086 143.99 107.78C145.894 107.508 145.928 110.296 144.33 112.744C142.732 115.192 139.638 119.578 139.162 121.822C139.162 121.822 142.188 115.26 145.01 117.232C147.832 119.17 142.63 123.182 140.318 124.644C138.006 126.106 136.476 135.014 136.476 135.014L135.32 134.708Z" fill="#23A9B1"/>
<path d="M146.064 130.968H126.854L128.384 144.704H144.5L146.064 130.968Z" fill="#263238"/>
<path d="M94.9284 65.518L98.0564 57.392H97.5804L94.2144 65.518H94.9284Z" fill="#263238"/>
<path d="M96.1182 65.586L100.028 59.704L99.6542 59.636L95.5742 65.45L96.1182 65.586Z" fill="#263238"/>
<path d="M81.2603 65.5179L78.1323 57.3579H78.6083L81.9743 65.5179H81.2603Z" fill="#263238"/>
<path d="M80.0702 65.5519L76.1602 59.6699L76.5342 59.6019L80.6142 65.4159L80.0702 65.5519Z" fill="#263238"/>
<path d="M88.7064 64.6339H88.0264L88.1964 55.3519H88.5024L88.7064 64.6339Z" fill="#263238"/>
<path d="M81.396 65.5179L81.566 65.8579H82.008L81.872 65.5179H81.396Z" fill="#263238"/>
<path d="M94.8262 65.5179L94.6562 65.8579H94.1802L94.3162 65.5179H94.8262Z" fill="#263238"/>
<path d="M80.2061 65.518L80.4101 65.96H80.8861L80.4781 65.45L80.2061 65.518Z" fill="#263238"/>
<path d="M96.0159 65.518L95.7779 65.96H95.3359L95.7099 65.45L96.0159 65.518Z" fill="#263238"/>
<path d="M88.1279 64.6339V65.3479H88.6039V64.6339H88.1279Z" fill="#263238"/>
<path d="M82.5186 68H80.5806V69.224H82.5186V68Z" fill="#263238"/>
<path d="M95.6768 68H93.7388V69.224H95.6768V68Z" fill="#263238"/>
<path d="M96.3564 68.544L92.1404 68.986C89.4544 69.292 86.7684 69.292 84.1164 68.986L79.9004 68.544V65.926L83.3344 65.484C86.5304 65.076 89.7604 65.076 92.9564 65.484L96.3904 65.926V68.544H96.3564Z" fill="#23A9B1"/>
<path d="M82.3482 67.32C82.3482 67.762 82.0082 68.102 81.5662 68.102C81.1242 68.102 80.7842 67.762 80.7842 67.32C80.7842 66.878 81.1242 66.538 81.5662 66.538C81.9742 66.538 82.3482 66.878 82.3482 67.32Z" fill="white"/>
<path d="M82.0082 67.32C82.0082 67.592 81.8042 67.796 81.5322 67.796C81.2602 67.796 81.0562 67.592 81.0562 67.32C81.0562 67.048 81.2602 66.844 81.5322 66.844C81.8042 66.844 82.0082 67.048 82.0082 67.32Z" fill="#23A9B1"/>
<path d="M85.9526 67.32C85.9526 67.456 85.8506 67.558 85.7146 67.558C85.5786 67.558 85.4766 67.456 85.4766 67.32C85.4766 67.184 85.5786 67.082 85.7146 67.082C85.8506 67.082 85.9526 67.184 85.9526 67.32Z" fill="white"/>
<path d="M86.8363 67.32C86.8363 67.456 86.7344 67.558 86.5984 67.558C86.4624 67.558 86.3604 67.456 86.3604 67.32C86.3604 67.184 86.4624 67.082 86.5984 67.082C86.7344 67.082 86.8363 67.184 86.8363 67.32Z" fill="white"/>
<path d="M87.7206 67.32C87.7206 67.456 87.6186 67.558 87.4826 67.558C87.3466 67.558 87.2446 67.456 87.2446 67.32C87.2446 67.184 87.3466 67.082 87.4826 67.082C87.6186 67.082 87.7206 67.184 87.7206 67.32Z" fill="white"/>
<path d="M88.6044 67.32C88.6044 67.456 88.5024 67.558 88.3664 67.558C88.2304 67.558 88.1284 67.456 88.1284 67.32C88.1284 67.184 88.2304 67.082 88.3664 67.082C88.5024 67.082 88.6044 67.184 88.6044 67.32Z" fill="white"/>
<path d="M89.4887 67.32C89.4887 67.456 89.3867 67.558 89.2507 67.558C89.1147 67.558 89.0127 67.456 89.0127 67.32C89.0127 67.184 89.1147 67.082 89.2507 67.082C89.3867 67.082 89.4887 67.184 89.4887 67.32Z" fill="white"/>
<path d="M90.3725 67.32C90.3725 67.456 90.2705 67.558 90.1345 67.558C89.9985 67.558 89.8965 67.456 89.8965 67.32C89.8965 67.184 89.9985 67.082 90.1345 67.082C90.2705 67.082 90.3725 67.184 90.3725 67.32Z" fill="white"/>
<path d="M91.2568 67.32C91.2568 67.456 91.1548 67.558 91.0188 67.558C90.8828 67.558 90.7808 67.456 90.7808 67.32C90.7808 67.184 90.8828 67.082 91.0188 67.082C91.1208 67.082 91.2568 67.184 91.2568 67.32Z" fill="white"/>
<path d="M67.0479 94.1799H74.5279L74.3579 93.3639C73.5759 91.2219 69.4959 91.2219 69.4959 91.2219C68.4759 91.2899 67.4899 92.2419 67.2179 93.5679L67.0479 94.1799Z" fill="#23A9B1"/>
<path d="M61.2683 85.1359H54.4683L55.3523 92.9899H62.8663L61.2683 85.1359Z" fill="#263238"/>
<path d="M64.158 93.9759H63.818V94.0779H51.1021V92.9899H62.866L61.268 85.1359H54.468L54.0941 81.8039C54.1281 81.3619 54.5021 80.9879 54.9441 80.9879H60.7921C61.2341 80.9879 61.6081 81.3619 61.6421 81.8039L64.158 93.9759Z" fill="#263238"/>
<path d="M62.8323 92.9559H55.3523L54.5363 85.7479L54.4683 85.1359H61.2683L62.8323 92.9559Z" fill="#23A9B1"/>
<path opacity="0.1" d="M54.7743 87.7199L54.4683 85.1359H62.3223L62.8663 87.7199H54.7743Z" fill="black"/>
<path d="M43.18 93.1939H42.296C42.194 93.1939 42.126 93.1259 42.126 93.0239V92.1739C42.126 92.0719 42.194 92.0039 42.296 92.0039H42.942C43.01 92.0039 43.078 92.0379 43.112 92.1059L43.35 92.9559C43.35 93.0919 43.282 93.1939 43.18 93.1939Z" fill="#263238"/>
<path d="M44.4041 93.1939H43.5201C43.4181 93.1939 43.3501 93.1259 43.3501 93.0239V92.1739C43.3501 92.0719 43.4181 92.0039 43.5201 92.0039H44.1661C44.2341 92.0039 44.3021 92.0379 44.3361 92.1059L44.5741 92.9559C44.6081 93.0919 44.5061 93.1939 44.4041 93.1939Z" fill="#263238"/>
<path d="M45.6282 93.1939H44.7442C44.6422 93.1939 44.5742 93.1259 44.5742 93.0239V92.1739C44.5742 92.0719 44.6422 92.0039 44.7442 92.0039H45.3902C45.4582 92.0039 45.5262 92.0379 45.5602 92.1059L45.7982 92.9559C45.8322 93.0919 45.7302 93.1939 45.6282 93.1939Z" fill="#263238"/>
<path d="M46.8519 93.1939H45.9679C45.8659 93.1939 45.7979 93.1259 45.7979 93.0239V92.1739C45.7979 92.0719 45.8659 92.0039 45.9679 92.0039H46.6139C46.6819 92.0039 46.7499 92.0379 46.7839 92.1059L47.0219 92.9559C47.0559 93.0919 46.9879 93.1939 46.8519 93.1939Z" fill="#263238"/>
<path d="M48.1102 93.1939H47.2262C47.1242 93.1939 47.0562 93.1259 47.0562 93.0239V92.1739C47.0562 92.0719 47.1242 92.0039 47.2262 92.0039H47.8722C47.9402 92.0039 48.0082 92.0379 48.0422 92.1059L48.2802 92.9559C48.2802 93.0919 48.2122 93.1939 48.1102 93.1939Z" fill="#263238"/>
<path d="M49.3338 93.1939H48.4498C48.3478 93.1939 48.2798 93.1259 48.2798 93.0239V92.1739C48.2798 92.0719 48.3478 92.0039 48.4498 92.0039H49.0958C49.1638 92.0039 49.2318 92.0379 49.2658 92.1059L49.5038 92.9559C49.5038 93.0919 49.4358 93.1939 49.3338 93.1939Z" fill="#263238"/>
<path d="M50.5579 93.1939H49.6739C49.5719 93.1939 49.5039 93.1259 49.5039 93.0239V92.1739C49.5039 92.0719 49.5719 92.0039 49.6739 92.0039H50.3199C50.3879 92.0039 50.4559 92.0379 50.4899 92.1059L50.7279 92.9559C50.7619 93.0919 50.6599 93.1939 50.5579 93.1939Z" fill="#263238"/>
<path d="M51.782 93.1939H50.898C50.796 93.1939 50.728 93.1259 50.728 93.0239V92.1739C50.728 92.0719 50.796 92.0039 50.898 92.0039H51.544C51.612 92.0039 51.68 92.0379 51.714 92.1059L51.952 92.9559C51.986 93.0919 51.884 93.1939 51.782 93.1939Z" fill="#263238"/>
<path d="M53.0061 93.1939H52.1221C52.0201 93.1939 51.9521 93.1259 51.9521 93.0239V92.1739C51.9521 92.0719 52.0201 92.0039 52.1221 92.0039H52.7681C52.8361 92.0039 52.9041 92.0379 52.9381 92.1059L53.1761 92.9559C53.2101 93.0919 53.1421 93.1939 53.0061 93.1939Z" fill="#263238"/>
<path d="M54.264 93.1939H53.38C53.278 93.1939 53.21 93.1259 53.21 93.0239V92.1739C53.21 92.0719 53.278 92.0039 53.38 92.0039H54.026C54.094 92.0039 54.162 92.0379 54.196 92.1059L54.434 92.9559C54.434 93.0919 54.366 93.1939 54.264 93.1939Z" fill="#263238"/>
<path d="M55.4881 93.1939H54.6041C54.5021 93.1939 54.4341 93.1259 54.4341 93.0239V92.1739C54.4341 92.0719 54.5021 92.0039 54.6041 92.0039H55.2501C55.3181 92.0039 55.3861 92.0379 55.4201 92.1059L55.6581 92.9559C55.6581 93.0919 55.5901 93.1939 55.4881 93.1939Z" fill="#263238"/>
<path d="M56.7122 93.1939H55.8282C55.7262 93.1939 55.6582 93.1259 55.6582 93.0239V92.1739C55.6582 92.0719 55.7262 92.0039 55.8282 92.0039H56.4742C56.5422 92.0039 56.6102 92.0379 56.6442 92.1059L56.8822 92.9559C56.9162 93.0919 56.8142 93.1939 56.7122 93.1939Z" fill="#263238"/>
<path d="M57.9358 93.1939H57.0518C56.9498 93.1939 56.8818 93.1259 56.8818 93.0239V92.1739C56.8818 92.0719 56.9498 92.0039 57.0518 92.0039H57.6978C57.7658 92.0039 57.8338 92.0379 57.8678 92.1059L58.1058 92.9559C58.1398 93.0919 58.0378 93.1939 57.9358 93.1939Z" fill="#263238"/>
<path d="M59.16 93.1939H58.276C58.174 93.1939 58.106 93.1259 58.106 93.0239V92.1739C58.106 92.0719 58.174 92.0039 58.276 92.0039H58.922C58.99 92.0039 59.058 92.0379 59.092 92.1059L59.33 92.9559C59.364 93.0919 59.296 93.1939 59.16 93.1939Z" fill="#263238"/>
<path d="M60.4181 93.1939H59.5001C59.3981 93.1939 59.3301 93.1259 59.3301 93.0239V92.1739C59.3301 92.0719 59.3981 92.0039 59.5001 92.0039H60.1461C60.2141 92.0039 60.2821 92.0379 60.3161 92.1059L60.5541 92.9559C60.5881 93.0919 60.5201 93.1939 60.4181 93.1939Z" fill="#263238"/>
<path d="M61.3019 93.2958C61.3019 93.6698 60.9619 93.9758 60.5539 93.9758H42.1259C41.7179 93.9758 41.3779 93.6698 41.3779 93.2958C41.3779 93.0918 41.4459 92.9218 41.5819 92.8198C41.7179 92.7178 41.8879 92.6158 42.0919 92.6158H60.5199C60.5879 92.6158 60.6559 92.6158 60.7239 92.6498C61.0639 92.7178 61.3019 92.9898 61.3019 93.2958Z" fill="#263238"/>
<path opacity="0.2" d="M61.3019 93.2958C61.3019 93.6698 60.9619 93.9758 60.5539 93.9758H42.1259C41.7179 93.9758 41.3779 93.6698 41.3779 93.2958C41.3779 93.0918 41.4459 92.9218 41.5819 92.8198C41.7179 92.7178 41.8879 92.6158 42.0919 92.6158H60.5199C60.5879 92.6158 60.6559 92.6158 60.7239 92.6498C61.0639 92.7178 61.3019 92.9898 61.3019 93.2958Z" fill="white"/>
<path d="M61.3021 93.2959C61.3021 93.6699 60.9621 93.9759 60.5541 93.9759H54.2981C53.9921 93.8739 53.7881 93.6359 53.7881 93.3299C53.7881 93.2959 53.7881 93.2619 53.7881 93.1939C53.8221 93.0579 53.8901 92.9219 53.9921 92.8199C54.0261 92.7859 54.0941 92.7519 54.1621 92.7179C54.1961 92.7179 54.2301 92.6839 54.2641 92.6839C54.3661 92.6499 54.4341 92.6499 54.5361 92.6499H60.7581C61.0641 92.7179 61.3021 92.9899 61.3021 93.2959Z" fill="#263238"/>
<path d="M74.3579 63.1039H72.4879L70.3799 86.0539H72.2499C72.5559 86.0539 72.8279 85.7479 72.8619 85.4079L74.8679 63.7499C74.9019 63.4099 74.6639 63.1039 74.3579 63.1039Z" fill="#263238"/>
<path d="M71.4681 86.0879H43.2481C42.9421 86.0879 42.7041 85.7819 42.7381 85.4419L44.7441 63.7839C44.7781 63.4099 45.0501 63.1379 45.3561 63.1379H73.5761C73.8821 63.1379 74.1201 63.4439 74.0861 63.7839L72.0801 85.4419C72.0461 85.7819 71.7741 86.0879 71.4681 86.0879Z" fill="#23A9B1"/>
<path opacity="0.2" d="M71.4681 86.0879H43.2481C42.9421 86.0879 42.7041 85.7819 42.7381 85.4419L44.7441 63.7839C44.7781 63.4099 45.0501 63.1379 45.3561 63.1379H73.5761C73.8821 63.1379 74.1201 63.4439 74.0861 63.7839L72.0801 85.4419C72.0461 85.7819 71.7741 86.0879 71.4681 86.0879Z" fill="white"/>
<path d="M70.6179 81.4639H44.9819L46.4099 65.2119H72.0119L70.6179 81.4639Z" fill="#23A9B1"/>
<path d="M70.2439 82.7219H44.9819C44.2679 82.7219 43.7239 82.1439 43.7919 81.4299L45.2199 65.2799C45.2879 64.5659 45.8999 63.9879 46.6139 63.9879H71.8759C72.5899 63.9879 73.1339 64.5659 73.0659 65.2799L71.6379 81.4299C71.6039 82.1439 70.9579 82.7219 70.2439 82.7219Z" fill="#263238"/>
<path d="M70.6179 81.4639H44.9819L46.4099 65.2119H72.0119L70.6179 81.4639Z" fill="#23A9B1"/>
<path opacity="0.4" d="M70.6179 81.4639H44.9819L46.4099 65.2119H72.0119L70.6179 81.4639Z" fill="white"/>
<path d="M52.2237 71.0939H48.9937L49.2656 67.8639H50.1837V68.1359H49.5037L49.2656 70.8219H51.9856L52.2237 68.1359H51.5437L51.5776 67.8639H52.4956L52.2237 71.0939Z" fill="#23A9B1"/>
<path d="M50.8975 69.4959H50.6255L50.8975 66.3679H51.1695L50.8975 69.4959Z" fill="#23A9B1"/>
<path d="M50.7277 69.6319L49.7417 69.0879L49.9117 68.8499L50.7617 69.3259L51.6797 68.8159L51.7817 69.0539L50.7277 69.6319Z" fill="#23A9B1"/>
<path d="M63.7496 69.2919L63.2736 70.9919H62.7636L62.9676 70.2099L62.4236 70.8219H62.1856L61.9816 70.2099L61.7776 70.9579H61.2676L61.7436 69.2579H62.2196L62.4916 70.1419L63.2736 69.2579H63.7496V69.2919Z" fill="white"/>
<path d="M65.2454 70.2439C65.2114 70.6859 64.8714 70.9919 64.4634 70.9919C64.2934 70.9919 64.1574 70.9239 64.0894 70.7879L64.0554 70.9579H63.5454L64.0554 69.1559H64.5994L64.4294 69.6999C64.5314 69.6319 64.6334 69.5979 64.7694 69.5979C65.0074 69.6319 65.2794 69.8359 65.2454 70.2439ZM64.6674 70.2779C64.6674 70.1419 64.5994 70.0739 64.4974 70.0739C64.3614 70.0739 64.2594 70.1759 64.2254 70.3799C64.2254 70.5159 64.2934 70.5839 64.3954 70.5839C64.5654 70.5499 64.6674 70.4479 64.6674 70.2779Z" fill="white"/>
<path d="M66.9115 70.2438C66.8775 70.6858 66.5375 70.9918 66.1295 70.9918C65.9595 70.9918 65.8235 70.9578 65.7555 70.8218L65.5855 71.4338H65.0415L65.5515 69.6318H66.0615L66.0275 69.7678C66.1295 69.6658 66.2655 69.6318 66.4015 69.6318C66.7075 69.6318 66.9455 69.8358 66.9115 70.2438ZM66.3675 70.2778C66.3675 70.1418 66.2995 70.0738 66.1975 70.0738C66.0615 70.0738 65.9595 70.1758 65.9255 70.3798C65.9255 70.5158 65.9935 70.5838 66.0955 70.5838C66.2655 70.5498 66.3675 70.4478 66.3675 70.2778Z" fill="white"/>
<path d="M66.8774 70.8559L67.0814 70.4819C67.2174 70.5499 67.3874 70.6179 67.5234 70.6179C67.6594 70.6179 67.6934 70.5839 67.6934 70.5499C67.6934 70.4479 67.0134 70.5499 67.0814 70.1079C67.1154 69.7679 67.4554 69.5979 67.8634 69.5979C68.0674 69.5979 68.2374 69.6319 68.3734 69.6999L68.1694 70.0739C68.0334 70.0059 67.8974 69.9719 67.7954 69.9719C67.6594 69.9719 67.6254 70.0059 67.6254 70.0399C67.6254 70.1759 68.2714 70.0399 68.2374 70.4819C68.2034 70.8219 67.8634 70.9919 67.4554 70.9919C67.2174 70.9919 66.9794 70.9239 66.8774 70.8559Z" fill="white"/>
<path d="M62.6617 77.18L62.1857 78.88H61.6757L61.8797 78.098L61.3357 78.71H61.0977L60.8937 78.098L60.6897 78.846H60.1797L60.6557 77.146H61.1317L61.4037 78.03L62.1857 77.146H62.6617V77.18Z" fill="white"/>
<path d="M64.1575 78.1319C64.1235 78.5739 63.7835 78.8799 63.3755 78.8799C63.2055 78.8799 63.0695 78.8119 63.0015 78.6759L62.9675 78.8459H62.4575L62.9675 77.0439H63.5115L63.3415 77.5879C63.4435 77.5199 63.5455 77.4859 63.6815 77.4859C63.9195 77.5199 64.1915 77.7579 64.1575 78.1319ZM63.6135 78.1659C63.6135 78.0299 63.5455 77.9619 63.4435 77.9619C63.3075 77.9619 63.2055 78.0639 63.1715 78.2679C63.1715 78.4039 63.2395 78.4719 63.3415 78.4719C63.4775 78.4719 63.5795 78.3359 63.6135 78.1659Z" fill="white"/>
<path d="M65.8578 78.1319C65.8238 78.5739 65.4838 78.8799 65.0758 78.8799C64.9058 78.8799 64.7698 78.8459 64.7018 78.7099L64.5318 79.3219H63.9878L64.4978 77.5199H65.0078L64.9738 77.6559C65.0758 77.5539 65.2118 77.5199 65.3478 77.5199C65.6198 77.5199 65.8918 77.7579 65.8578 78.1319ZM65.2798 78.1659C65.2798 78.0299 65.2118 77.9619 65.1098 77.9619C64.9738 77.9619 64.8718 78.0639 64.8378 78.2679C64.8378 78.4039 64.9058 78.4719 65.0078 78.4719C65.1778 78.4719 65.2798 78.3359 65.2798 78.1659Z" fill="white"/>
<path d="M65.7896 78.7779L65.9936 78.4039C66.1296 78.4719 66.2995 78.5399 66.4355 78.5399C66.5715 78.5399 66.6055 78.5059 66.6055 78.4719C66.6055 78.3699 65.9256 78.4719 65.9936 78.0299C66.0276 77.6899 66.3675 77.5199 66.7755 77.5199C66.9795 77.5199 67.1495 77.5539 67.2855 77.6219L67.0816 77.9959C66.9456 77.9279 66.8095 77.8939 66.7075 77.8939C66.5715 77.8939 66.5375 77.9279 66.5375 77.9619C66.5375 78.0979 67.1836 77.9619 67.1496 78.4039C67.1156 78.7439 66.7755 78.9139 66.3675 78.9139C66.1295 78.9139 65.8916 78.8459 65.7896 78.7779Z" fill="white"/>
<path d="M54.6037 70.5499H55.6577L55.5557 71.0259H53.6177L53.6857 70.6519L54.8417 69.7339C55.1137 69.4959 55.2157 69.3599 55.2157 69.1899C55.2157 69.0199 55.0797 68.9179 54.8417 68.9179C54.6377 68.9179 54.4337 69.0199 54.2977 69.1899L53.8897 68.9179C54.0937 68.6459 54.4677 68.4419 54.9097 68.4419C55.4537 68.4419 55.7937 68.7139 55.7937 69.1219C55.7937 69.4279 55.6577 69.6659 55.2157 70.0059L54.6037 70.5499Z" fill="white"/>
<path d="M56.9495 68.986L56.8135 69.462H56.9495C57.5955 69.462 57.9015 69.734 57.9015 70.176C57.9015 70.754 57.4255 71.094 56.7115 71.094C56.3375 71.094 55.9975 70.992 55.7935 70.788L56.0655 70.346C56.2355 70.482 56.4735 70.584 56.7455 70.584C57.0855 70.584 57.2895 70.448 57.2895 70.21C57.2895 70.04 57.1535 69.904 56.7795 69.904H56.0995L56.5075 68.476H58.0715L57.9695 68.952H56.9495V68.986Z" fill="white"/>
<path d="M60.2475 70.1759C60.2475 70.7199 59.8055 71.0939 59.2275 71.0939C58.6155 71.0939 58.2075 70.7539 58.2075 70.0399C58.2075 69.3259 58.6495 68.4419 59.7375 68.4419C60.0095 68.4419 60.2815 68.5099 60.4515 68.6119L60.1795 69.0539C60.0435 68.9519 59.8735 68.9179 59.7035 68.9179C59.1935 68.9179 58.9555 69.2579 58.8535 69.6319C59.0235 69.4959 59.1935 69.4279 59.4315 69.4279C59.8735 69.4619 60.2475 69.6999 60.2475 70.1759ZM59.6695 70.2439C59.6695 70.0399 59.4995 69.9039 59.2615 69.9039C58.9895 69.9039 58.8195 70.0739 58.8195 70.3119C58.8195 70.5159 58.9555 70.6859 59.2275 70.6859C59.4655 70.6519 59.6695 70.4819 59.6695 70.2439Z" fill="white"/>
<path d="M53.8897 76.2959L53.3797 78.8459H52.8017L53.2097 76.7719H52.6997L52.8017 76.2959H53.8897Z" fill="white"/>
<path d="M56.2698 78.3019H55.8618L55.7598 78.8459H55.1818L55.2838 78.3019H53.9238L53.9918 77.8939L55.4878 76.2959H56.1338L54.7398 77.8259H55.4198L55.5218 77.3499H56.0658L55.9638 77.8259H56.3718L56.2698 78.3019Z" fill="white"/>
<path d="M58.7859 78.3019H58.3779L58.2759 78.8459H57.6979L57.7999 78.3019H56.4399L56.5079 77.8939L58.0039 76.2959H58.6499L57.2559 77.8259H57.9359L58.0379 77.3499H58.5819L58.4799 77.8259H58.8879L58.7859 78.3019Z" fill="white"/>
<path d="M51.2036 78.7779H47.9736L48.2456 75.5479H49.1636V75.8199H48.5176L48.2796 78.5059H50.9656L51.2036 75.8199H50.5236L50.5576 75.5479H51.5096L51.2036 78.7779Z" fill="#23A9B1"/>
<path d="M49.8775 77.1459H49.6055L49.8775 74.0519H50.1495L49.8775 77.1459Z" fill="#23A9B1"/>
<path d="M50.7955 74.7319L49.9795 74.2219L49.0615 74.6639L48.9595 74.4259L50.0135 73.9159L50.9655 74.4939L50.7955 74.7319Z" fill="#23A9B1"/>
<path opacity="0.1" d="M62.3559 63.9879L57.3579 82.7219H59.0239L63.9879 63.9879H62.3559Z" fill="white"/>
<path opacity="0.1" d="M64.9399 63.9879L59.9419 82.7219H63.2739L68.2379 63.9879H64.9399Z" fill="white"/>
<path d="M48.7559 97.9539H51.0339L54.6719 140.896C54.7059 141.372 54.3319 141.78 53.8559 141.78C53.4479 141.78 53.0739 141.474 53.0399 141.032L48.7559 97.9539Z" fill="#263238"/>
<path d="M103.19 97.6478H105.468L109.106 140.896C109.14 141.372 108.766 141.78 108.29 141.78C107.882 141.78 107.508 141.474 107.474 141.032L103.19 97.6478Z" fill="#263238"/>
<path d="M104.754 97.6478H37.1958V105.264H104.754V97.6478Z" fill="#23A9B1"/>
<path opacity="0.3" d="M92.9219 97.7158L92.6499 105.264L104.788 105.298V97.6478L92.9219 97.7158Z" fill="black"/>
<path opacity="0.2" d="M91.902 97.7158H37.23V105.332H91.902V97.7158Z" fill="black"/>
<path d="M38.6919 97.6478H36.4139L36.3799 143.854C36.3799 144.296 36.7539 144.67 37.1959 144.67C37.6379 144.67 38.0119 144.296 38.0119 143.854L38.6919 97.6478Z" fill="#263238"/>
<path d="M93.1258 97.6478H90.8478L90.7798 143.854C90.7798 144.296 91.1538 144.67 91.5958 144.67C92.0378 144.67 92.4118 144.296 92.4118 143.854L93.1258 97.6478Z" fill="#263238"/>
<path opacity="0.2" d="M36.4479 97.6478L36.3799 143.854C36.3799 144.296 36.7539 144.67 37.1959 144.67C37.6379 144.67 38.0119 144.296 38.0119 143.854L38.6919 97.6478H36.4479Z" fill="white"/>
<path opacity="0.2" d="M93.1258 97.6478H90.8478L90.7798 143.854C90.7798 144.296 91.1538 144.67 91.5958 144.67C92.0378 144.67 92.4118 144.296 92.4118 143.854L93.1258 97.6478Z" fill="white"/>
<path d="M34.5439 95.8458C34.5439 94.8258 34.9179 93.9758 35.3939 93.9758H106.454C106.93 93.9758 107.304 94.8258 107.304 95.8458C107.304 96.8658 106.93 97.7158 106.454 97.7158H35.3939C34.9519 97.6818 34.5439 96.8658 34.5439 95.8458Z" fill="#263238"/>
<path opacity="0.1" d="M34.5439 95.8458C34.5439 94.8258 34.9179 93.9758 35.3939 93.9758H106.454C106.93 93.9758 107.304 94.8258 107.304 95.8458C107.304 96.8658 106.93 97.7158 106.454 97.7158H35.3939C34.9519 97.6818 34.5439 96.8658 34.5439 95.8458Z" fill="white"/>
<path d="M88.978 95.8458C88.978 94.8258 89.352 93.9758 89.828 93.9758H106.454C106.93 93.9758 107.304 94.8258 107.304 95.8458C107.304 96.8658 106.93 97.7158 106.454 97.7158H89.828C89.386 97.6818 88.978 96.8658 88.978 95.8458Z" fill="#263238"/>
<path d="M72.4201 90.984C67.0141 90.984 64.9061 86.054 64.8721 85.986L65.3141 85.816C65.4161 86.088 68.0681 92.242 75.4121 90.066C82.8241 87.822 88.7401 72.012 88.8081 71.876L89.2501 72.046C89.0121 72.692 83.1981 88.23 75.5481 90.542C74.3921 90.848 73.3381 90.984 72.4201 90.984Z" fill="#263238"/>
<path d="M97.5799 69.1559H86.7339V94.1459H97.5799V69.1559Z" fill="#263238"/>
<path opacity="0.3" d="M97.5799 69.1559H86.7339V94.1459H97.5799V69.1559Z" fill="black"/>
<path d="M89.8279 69.1559H78.9819V94.1459H89.8279V69.1559Z" fill="#263238"/>
<path d="M86.3599 74.4939C86.3599 75.7179 85.3739 76.7039 84.1499 76.7039C82.9259 76.7039 81.9399 75.7179 81.9399 74.4939C81.9399 73.2699 82.9259 72.2839 84.1499 72.2839C85.3739 72.2839 86.3599 73.2699 86.3599 74.4939Z" fill="white"/>
<path d="M85.4757 74.5279C85.4757 75.2759 84.8977 75.8539 84.1497 75.8539C83.4017 75.8539 82.8237 75.2759 82.8237 74.5279C82.8237 73.7799 83.4017 73.2019 84.1497 73.2019C84.8637 73.1679 85.4757 73.7799 85.4757 74.5279Z" fill="#23A9B1"/>
<path d="M85.2381 80.4778C85.2381 81.0898 84.7281 81.5998 84.1161 81.5998C83.5041 81.5998 82.9941 81.0898 82.9941 80.4778C82.9941 79.8658 83.5041 79.3558 84.1161 79.3558C84.7281 79.3558 85.2381 79.8658 85.2381 80.4778Z" fill="white"/>
<path d="M84.796 80.4779C84.796 80.8519 84.49 81.1579 84.116 81.1579C83.742 81.1579 83.436 80.8519 83.436 80.4779C83.436 80.1039 83.742 79.7979 84.116 79.7979C84.49 79.8319 84.796 80.1379 84.796 80.4779Z" fill="#23A9B1"/>
<path d="M84.32 75.8539H83.98V79.8319H84.32V75.8539Z" fill="white"/>
<path opacity="0.3" d="M89.0462 83.6399H79.7642V92.9219H89.0462V83.6399Z" fill="black"/>
<path d="M85.0338 88.8758C85.0338 89.1818 84.7958 89.4198 84.4898 89.4198C84.1838 89.4198 83.9458 89.1818 83.9458 88.8758C83.9458 88.5698 84.1838 88.3318 84.4898 88.3318C84.7958 88.3318 85.0338 88.6038 85.0338 88.8758Z" fill="#263238"/>
<path d="M84.4901 88.3318C84.4221 87.0058 87.6181 84.2518 85.5101 84.2518C83.4021 84.2518 82.0081 85.7478 82.0761 86.6318C82.1441 87.5158 84.4901 88.3318 84.4901 88.3318Z" fill="#263238"/>
<path d="M84.4899 89.4878C83.2319 89.8618 79.7979 87.4138 80.2739 89.4538C80.7839 91.5278 82.5519 92.5138 83.3679 92.2418C84.2519 91.9698 84.4899 89.4878 84.4899 89.4878Z" fill="#263238"/>
<path d="M85.1021 88.6038C86.1901 89.3518 86.428 93.5678 87.72 91.9018C89.012 90.2358 88.6721 88.1958 87.9241 87.7538C87.1761 87.2438 85.1021 88.6038 85.1021 88.6038Z" fill="#263238"/>
<path d="M86.2578 53.9239C87.3118 52.8019 89.0798 52.7339 90.2018 53.7879C90.2358 53.8219 90.2698 53.8559 90.3038 53.8899C90.8138 54.3999 91.6298 53.6179 91.1198 53.0739C89.5898 51.5439 87.1078 51.5099 85.5778 53.0399C85.5438 53.0739 85.5438 53.0739 85.5098 53.1079C84.9658 53.6179 85.7478 54.4339 86.2578 53.9239Z" fill="#23A9B1"/>
<path d="M82.8238 49.232C84.3538 47.906 86.1898 47.09 88.2298 47.09C90.2698 47.056 92.2418 47.804 93.7378 49.198C94.2818 49.708 95.0638 48.892 94.5538 48.382C92.8538 46.784 90.5758 45.934 88.2638 45.934C85.9178 45.934 83.8098 46.886 82.0758 48.416C81.4978 48.926 82.3138 49.708 82.8238 49.232Z" fill="#23A9B1"/>
<path d="M84.1836 51.8159C86.2236 49.5379 89.7256 49.3679 92.0036 51.4079C92.1056 51.5099 92.2076 51.6119 92.3096 51.7139C92.8196 52.2239 93.6356 51.4419 93.1256 50.8979C90.5756 48.2459 86.3596 48.1439 83.7076 50.6939C83.6056 50.7959 83.5036 50.8979 83.4016 50.9999C82.8916 51.5439 83.7076 52.3599 84.1836 51.8159Z" fill="#23A9B1"/>
<path d="M56.5758 139.536L59.6018 138.618L58.6838 131.41L54.9438 132.736L56.5758 139.536Z" fill="#FF8B7B"/>
<path opacity="0.2" d="M54.502 130.73L58.48 129.268L59.058 134.47L55.556 135.456L54.502 130.73Z" fill="black"/>
<path d="M59.8742 138.108L56.4062 139.06C56.2702 139.094 56.2022 139.23 56.2362 139.366L56.7802 142.698C56.8482 143.038 57.1542 143.276 57.4602 143.208C58.6502 142.868 59.2282 142.63 60.7582 142.188C61.7102 141.916 63.8522 141.304 65.1782 141.066C66.5042 140.828 66.2322 139.264 65.6542 139.23C63.0362 139.06 61.5402 138.754 60.4862 138.176C60.2822 138.108 60.0782 138.074 59.8742 138.108Z" fill="#263238"/>
<path d="M62.0501 138.312C62.1181 138.176 62.1181 138.006 62.0501 137.904C62.0161 137.802 61.9141 137.768 61.8461 137.734C61.4381 137.666 60.6901 138.482 60.6221 138.584C60.6221 138.618 60.6221 138.652 60.6221 138.652C60.6221 138.686 60.6561 138.686 60.6901 138.686C60.9621 138.686 61.2681 138.652 61.5401 138.618C61.7101 138.584 61.9141 138.482 62.0501 138.312ZM61.8121 137.87C61.8461 137.87 61.9141 137.904 61.9141 137.972C61.9821 138.04 61.9821 138.142 61.9481 138.244C61.8461 138.414 61.4381 138.516 60.8601 138.55C61.1321 138.244 61.5741 137.836 61.8121 137.87Z" fill="#23A9B1"/>
<path d="M60.69 138.686C60.962 138.414 61.268 137.666 61.098 137.36C61.03 137.258 60.928 137.19 60.792 137.19C60.69 137.19 60.554 137.258 60.52 137.36C60.282 137.734 60.554 138.618 60.588 138.652C60.588 138.686 60.622 138.686 60.656 138.72H60.69C60.69 138.686 60.69 138.686 60.69 138.686ZM60.826 137.326C60.928 137.326 60.996 137.36 60.996 137.394C61.03 137.768 60.928 138.176 60.69 138.448C60.554 138.108 60.554 137.768 60.656 137.428C60.69 137.36 60.724 137.326 60.792 137.326H60.826Z" fill="#23A9B1"/>
<path d="M41.0721 100.402C41.0721 100.402 59.1601 101.932 58.7181 109.786C58.3441 116.212 57.3921 114.478 59.2621 133.62L54.7061 133.858C54.7061 133.858 50.0821 118.218 50.6941 111.996C45.5941 111.996 33.8981 112.438 32.1981 107.848C31.3481 105.502 30.9401 103.054 30.9741 100.538L41.0721 100.402Z" fill="#263238"/>
<path d="M54.026 134.742L59.976 133.722L59.874 131.104L53.686 132.464L54.026 134.742Z" fill="#23A9B1"/>
<path d="M68.3737 140.488L71.2637 139.128L69.2237 132.124L65.7217 134.028L68.3737 140.488Z" fill="#FF8B7B"/>
<path opacity="0.2" d="M65.0078 132.09L68.6798 130.05L70.0738 135.082L66.7418 136.578L65.0078 132.09Z" fill="black"/>
<path d="M71.4341 138.584L68.1361 140.046C68.0341 140.08 67.9661 140.25 68.0001 140.386L69.0201 143.582C69.1561 143.922 69.4961 144.092 69.7681 143.99C70.8901 143.446 71.4341 143.14 72.8621 142.494C73.7461 142.086 75.7861 141.168 77.0441 140.726C78.3021 140.284 77.8261 138.788 77.2141 138.856C74.5961 139.094 73.1001 139.026 71.9441 138.584C71.8081 138.482 71.6041 138.482 71.4341 138.584Z" fill="#263238"/>
<path d="M73.6103 138.448C73.6783 138.312 73.6443 138.142 73.5423 138.04C73.5083 137.972 73.4063 137.904 73.3043 137.904C72.8963 137.904 72.2843 138.822 72.2163 138.924C72.2163 138.958 72.2163 138.992 72.2503 138.992C72.2503 139.026 72.2843 139.026 72.3183 139.026C72.5903 138.992 72.8623 138.924 73.1343 138.822C73.3043 138.754 73.5083 138.618 73.6103 138.448ZM73.3043 138.04C73.3383 138.04 73.4063 138.074 73.4063 138.108C73.4743 138.176 73.5083 138.278 73.4743 138.38C73.4063 138.584 72.9983 138.72 72.4203 138.856C72.6923 138.482 73.0663 138.04 73.3043 138.04Z" fill="#23A9B1"/>
<path d="M72.3183 138.992C72.5563 138.686 72.7263 137.904 72.5223 137.598C72.4543 137.496 72.3183 137.462 72.1823 137.496C72.0803 137.53 71.9783 137.598 71.9443 137.7C71.7743 138.108 72.1823 138.924 72.1823 138.958C72.1823 138.992 72.2163 138.992 72.2503 138.992C72.2843 139.026 72.2843 139.026 72.3183 138.992C72.3183 139.026 72.3183 139.026 72.3183 138.992ZM72.2503 137.666C72.3523 137.632 72.4203 137.666 72.4203 137.7C72.5223 138.074 72.4543 138.482 72.2843 138.788C72.1143 138.482 72.0463 138.108 72.0803 137.768C72.1143 137.7 72.1483 137.666 72.2163 137.632L72.2503 137.666Z" fill="#23A9B1"/>
<path d="M46.4439 100.402C46.5799 100.402 66.7419 102.476 66.7759 109.31C66.8099 120.632 70.0399 133.586 70.0399 133.586L66.0619 135.558C66.0619 135.558 59.1259 121.482 59.2279 112.676C53.6859 111.078 39.3039 113.764 37.6379 109.174C36.2439 105.4 36.9919 100.402 36.9919 100.402H46.4439Z" fill="#263238"/>
<path d="M65.4161 136.17L70.7881 133.756L70.3461 131.58L64.7021 133.518L65.4161 136.17Z" fill="#23A9B1"/>
<path d="M37.4683 76.262C36.8903 77.384 36.3803 78.438 35.9043 79.56C35.3943 80.682 34.9523 81.804 34.5443 82.96C34.1363 84.116 33.7623 85.306 33.4563 86.53C33.1163 87.822 32.9123 89.114 32.8443 90.44C32.8103 91.222 32.8783 92.004 33.0823 92.752C33.1843 93.228 33.3883 93.67 33.6263 94.078C33.7623 94.316 33.9323 94.52 34.1023 94.724L34.2383 94.894C34.3063 94.962 34.4083 95.064 34.5103 95.132C34.6463 95.234 34.8163 95.336 34.9863 95.438C35.2243 95.574 35.4963 95.642 35.7683 95.71C35.9723 95.778 36.1763 95.812 36.4143 95.846C36.7883 95.88 37.1623 95.914 37.5023 95.914C38.1483 95.914 38.7943 95.88 39.4403 95.812C41.8543 95.506 44.2343 94.962 46.5463 94.146L46.1383 92.14C43.8263 92.31 41.4803 92.48 39.2703 92.446C38.7263 92.412 38.1823 92.412 37.7063 92.378C37.4683 92.344 37.2643 92.31 37.0603 92.276C36.8903 92.242 36.7203 92.174 36.7883 92.174C36.8223 92.174 36.8563 92.208 36.8903 92.242C36.9243 92.276 36.9583 92.276 36.9923 92.31C36.9923 92.31 36.9923 92.276 36.9583 92.242C36.9243 92.14 36.8903 92.038 36.8563 91.902C36.7883 91.494 36.7883 91.086 36.8223 90.678C36.9243 89.658 37.1283 88.638 37.4343 87.652C37.7403 86.598 38.1143 85.544 38.5223 84.49C38.9303 83.436 39.3383 82.382 39.8143 81.328C40.2903 80.274 40.7663 79.22 41.2423 78.234L37.4683 76.262Z" fill="#FF8B7B"/>
<path d="M45.0845 92.5139L47.5325 91.2899L48.5865 93.9419C48.5865 93.9419 45.7305 94.9619 45.1865 94.2139L45.0845 92.5139Z" fill="#FF8B7B"/>
<path d="M49.4702 91.9019L50.4562 93.6699L48.6202 93.9419L47.5322 91.2899L49.4702 91.9019Z" fill="#FF8B7B"/>
<path d="M44.7778 80.716C45.2198 81.872 44.7438 80.546 45.2538 81.668C45.7638 82.79 46.2738 83.878 46.7838 84.966C47.8718 87.21 49.0618 89.386 50.3878 91.46C50.7618 92.004 51.1018 92.514 51.5098 93.058C51.7138 93.33 51.9518 93.602 52.1898 93.874C52.3258 94.01 52.4278 94.146 52.5638 94.282L52.7678 94.486L52.9038 94.588C53.2438 94.894 53.6518 95.098 54.0938 95.2C54.3318 95.268 54.5698 95.302 54.8078 95.336C55.1818 95.37 55.5898 95.404 55.9638 95.37C56.6438 95.336 57.2898 95.268 57.9698 95.166C60.4178 94.724 62.8318 94.044 65.1438 93.126L65.1778 90.576C62.8318 90.848 60.4518 91.154 58.2078 91.256C57.6638 91.29 57.1538 91.256 56.6098 91.222C56.4058 91.222 56.2018 91.188 55.9638 91.12C55.8958 91.12 55.8278 91.086 55.7598 91.052C55.7258 91.052 55.7598 91.018 55.8618 91.086C55.8958 91.12 55.9298 91.12 55.9638 91.154L55.9298 91.12L55.8278 91.018C55.7598 90.95 55.6918 90.848 55.6238 90.746C55.4878 90.542 55.3178 90.372 55.1818 90.134C54.8758 89.692 54.6038 89.216 54.2978 88.74C53.7198 87.788 53.1758 86.734 52.6658 85.714C52.1218 84.66 51.6458 83.606 51.1358 82.552C50.1498 80.41 50.1498 80.648 49.2318 78.506L44.7778 80.716Z" fill="#FF8B7B"/>
<path d="M63.6479 91.0519L66.912 90.3719L68.204 93.908C68.204 93.908 64.4299 94.2819 63.7159 93.2619L63.6479 91.0519Z" fill="#FF8B7B"/>
<path d="M69.3941 91.256L70.6521 93.67L68.2041 93.908L66.9121 90.3719L69.3941 91.256Z" fill="#FF8B7B"/>
<path d="M46.4101 66.266C46.6141 66.98 46.9201 67.66 47.2941 68.306C46.8521 68.612 46.2061 68.374 46.2061 68.374L46.4101 66.266Z" fill="#A02724"/>
<path d="M46.6479 68.238C46.5799 68.272 46.4779 68.272 46.4099 68.272C45.7639 68.272 45.2539 67.626 45.2199 66.776C45.1859 65.926 45.6959 65.246 46.3419 65.246C46.6479 65.246 46.9539 65.416 47.1919 65.688C47.3959 65.96 47.5319 66.334 47.5319 66.742C47.5319 67.456 47.1579 68.068 46.6479 68.238ZM46.1379 65.45C45.6959 65.586 45.3899 66.13 45.3899 66.776C45.3899 67.524 45.8659 68.102 46.4099 68.102C46.4779 68.102 46.5459 68.102 46.6139 68.068C47.0559 67.932 47.3619 67.354 47.3619 66.742C47.3619 66.402 47.2599 66.062 47.0559 65.79C46.8519 65.552 46.6139 65.382 46.3419 65.416C46.2739 65.416 46.1719 65.45 46.1379 65.45Z" fill="#263238"/>
<path d="M38.148 68.442L39.916 70.312L42.364 72.862C42.16 73.168 42.024 73.474 41.956 73.814C41.752 74.562 41.548 75.14 43.214 75.854C43.588 75.99 43.826 76.33 43.826 76.738C43.826 77.214 43.452 77.724 41.82 77.758C40.256 77.758 38.726 77.248 37.468 76.296C36.856 75.854 36.924 75.446 37.298 74.8C38.386 72.998 38.386 70.448 38.148 68.442Z" fill="#FF8B7B"/>
<path d="M46.988 66.13C47.022 66.368 46.92 66.606 46.784 66.606C46.648 66.606 46.546 66.436 46.512 66.164C46.478 65.926 46.58 65.688 46.716 65.688C46.852 65.688 46.988 65.892 46.988 66.13Z" fill="#263238"/>
<path d="M46.4441 69.53C46.0701 70.958 45.0161 72.046 43.7921 72.522C43.3501 72.692 42.8741 72.794 42.4321 72.828C41.3441 72.896 40.2221 72.522 39.3721 71.57C37.8421 69.938 37.9441 68.068 37.8421 64.94C37.8081 64.294 37.9441 63.648 38.1821 63.07C39.1001 60.826 41.6841 59.772 43.9281 60.724C46.9201 62.016 47.1921 66.708 46.4441 69.53Z" fill="#FF8B7B"/>
<path opacity="0.2" d="M43.7923 72.556C43.3503 72.726 42.8743 72.828 42.4323 72.862L42.3643 72.828L42.6703 72.25C42.6703 72.25 42.8403 72.76 43.7923 72.556Z" fill="black"/>
<path d="M42.9684 65.0625L42.9229 65.2263L47.6074 66.5284L47.6529 66.3646L42.9684 65.0625Z" fill="#263238"/>
<path d="M43.8601 66.946C43.3161 67.864 42.6361 68.782 42.4661 69.87C42.3981 70.312 38.9981 70.992 38.1481 70.142C37.3321 69.292 36.8221 68.17 36.4821 67.014C36.0741 65.62 35.8701 64.09 36.2441 62.696C36.4481 61.88 36.8901 61.098 37.5701 60.588C38.2501 60.078 39.2021 59.908 39.9501 60.282C41.5141 59.262 43.6561 59.228 45.2541 60.18C46.8521 61.132 47.8381 63.07 47.6681 64.906C47.6681 65.008 47.6341 65.144 47.5661 65.212C47.4641 65.314 47.3281 65.28 47.1921 65.28C46.5461 65.212 45.9001 65.11 45.2541 65.042C45.0161 65.008 44.7101 64.94 44.6761 64.702C44.6421 64.532 44.4721 63.75 44.4721 63.648L43.8601 66.946Z" fill="#263238"/>
<path d="M41.7181 66.64C41.8541 67.32 42.2621 67.966 42.8401 68.374C43.5881 68.918 44.3361 68.136 44.3021 67.252C44.3021 66.436 43.7581 65.348 42.9421 65.144C42.0921 64.974 41.5481 65.79 41.7181 66.64Z" fill="#FF8B7B"/>
<path d="M39.0322 58.888C39.4742 58.854 39.8822 59.16 40.0522 59.568C40.1542 59.806 40.2222 60.384 39.9502 60.52C39.6442 59.976 39.4402 59.398 39.0322 58.888Z" fill="#263238"/>
<path d="M32.164 76.262C32.436 75.548 33.694 74.834 34.476 74.834H34.986C35.87 74.834 36.992 74.902 38.08 75.038C40.154 75.276 42.194 75.616 44.234 76.058C45.152 76.296 46.07 76.602 46.784 76.874C47.702 77.248 48.212 77.486 48.212 77.486C48.212 77.486 47.226 84.116 46.682 90.712C46.41 94.384 46.512 98.022 46.41 100.538H31.042C30.498 97.512 30.6 94.894 30.566 89.454C30.532 86.19 31.042 79.254 32.164 76.262Z" fill="#23A9B1"/>
<path opacity="0.2" d="M47.0222 87.04C46.9202 88.434 46.7842 89.862 46.6482 91.324C44.8462 88.672 43.8262 81.464 43.8262 81.464L47.0222 87.04Z" fill="black"/>
<path d="M49.0962 77.962C51.3062 79.22 53.4822 85.578 53.4822 85.578L48.4162 89.386C46.4782 87.55 43.6562 83.028 43.3502 81.226C42.8402 78.438 45.5602 75.99 49.0962 77.962Z" fill="#23A9B1"/>
<path d="M53.4482 145.724C53.4482 146.608 54.1622 147.288 55.0122 147.288C55.8962 147.288 56.5762 146.574 56.5762 145.724C56.5762 144.874 55.8622 144.16 55.0122 144.16C54.1622 144.16 53.4482 144.874 53.4482 145.724Z" fill="#263238"/>
<path d="M30.022 145.724C30.022 146.608 29.308 147.288 28.458 147.288C27.574 147.288 26.894 146.574 26.894 145.724C26.894 144.84 27.608 144.16 28.458 144.16C29.308 144.16 30.022 144.874 30.022 145.724Z" fill="#263238"/>
<path d="M43.2481 145.248C43.2481 146.132 42.5341 146.812 41.6841 146.812C40.8001 146.812 40.1201 146.098 40.1201 145.248C40.1201 144.364 40.8341 143.684 41.6841 143.684C42.5681 143.65 43.2481 144.364 43.2481 145.248Z" fill="#263238"/>
<path d="M42.1602 143.31V140.284H46.6482C47.5322 140.284 48.4162 140.352 49.2662 140.522L57.6302 142.154C58.0382 142.222 58.3102 142.63 58.2422 143.038C58.1742 143.412 57.8342 143.65 57.4602 143.65L42.1602 143.31Z" fill="#263238"/>
<path d="M42.1601 143.31V140.284H37.6721C36.7881 140.284 35.9041 140.352 35.0541 140.522L25.6361 142.018C25.2281 142.086 24.9561 142.494 25.0241 142.902C25.0921 143.276 25.4321 143.514 25.8061 143.514L42.1601 143.31Z" fill="#263238"/>
<path d="M44.9481 125.154H39.3721V141.202H44.9481V125.154Z" fill="#263238"/>
<path d="M44.166 114.988H40.188V125.222H44.166V114.988Z" fill="#263238"/>
<path opacity="0.5" d="M44.166 116.892L40.188 117.878V114.988H44.166V116.892Z" fill="black"/>
<path d="M57.0182 100.334H55.0122V108.936H57.0182V100.334Z" fill="#23A9B1"/>
<path opacity="0.7" d="M57.0182 100.334H55.0122V108.936H57.0182V100.334Z" fill="white"/>
<path d="M44.8802 114.988V77.554C44.8802 76.126 44.2682 74.8 43.2142 73.848L40.5622 71.502C39.6782 70.72 38.5222 70.278 37.3322 70.278H27.6762L22.9502 75.276V114.954H44.8802V114.988Z" fill="#23A9B1"/>
<path d="M59.2622 107.746H37.2642V114.988H62.8322C64.2602 114.988 65.4162 113.832 65.4502 112.404C65.4502 111.928 65.3142 111.486 65.0762 111.078C63.8522 109.004 61.6422 107.746 59.2622 107.746Z" fill="#23A9B1"/>
<path opacity="0.7" d="M22.9502 75.31V114.988H62.8322C64.2602 114.988 65.4162 113.832 65.4162 112.404C65.4162 111.928 65.2802 111.486 65.0422 111.078C63.8182 109.038 61.6082 107.746 59.2282 107.746H48.1442C46.3422 107.746 44.8462 106.284 44.8462 104.448V77.52C44.8462 76.092 44.2342 74.766 43.1802 73.814L40.5282 71.468C39.6442 70.686 38.4882 70.244 37.2982 70.244H27.6762L22.9502 75.31Z" fill="white"/>
<path d="M41.6841 114.988V77.554C41.6841 76.126 41.0721 74.8 40.0181 73.848L37.3661 71.502C36.4821 70.72 35.3261 70.278 34.1361 70.278H26.5881C25.2281 70.278 23.9361 70.822 23.0181 71.842L21.1141 73.882C20.2641 74.8 19.7881 75.99 19.7881 77.248V111.248C19.7881 113.322 21.4541 114.988 23.5281 114.988H41.6841Z" fill="#23A9B1"/>
<path opacity="0.5" d="M41.6841 114.988V77.554C41.6841 76.126 41.0721 74.8 40.0181 73.848L37.3661 71.502C36.4821 70.72 35.3261 70.278 34.1361 70.278H26.5881C25.2281 70.278 23.9361 70.822 23.0181 71.842L21.1141 73.882C20.2641 74.8 19.7881 75.99 19.7881 77.248V111.248C19.7881 113.322 21.4541 114.988 23.5281 114.988H41.6841Z" fill="white"/>
<path d="M49.164 102.986C53.618 101.422 58.446 101.422 62.9 102.986C63.818 103.326 64.872 102.952 65.314 102.068C65.722 101.184 65.178 100.062 64.056 99.688C58.854 97.886 53.21 97.886 48.042 99.688C46.92 100.062 46.376 101.218 46.784 102.068C47.226 102.918 48.246 103.326 49.164 102.986Z" fill="#23A9B1"/>
<path opacity="0.7" d="M49.164 102.986C53.618 101.422 58.446 101.422 62.9 102.986C63.818 103.326 64.872 102.952 65.314 102.068C65.722 101.184 65.178 100.062 64.056 99.688C58.854 97.886 53.21 97.886 48.042 99.688C46.92 100.062 46.376 101.218 46.784 102.068C47.226 102.918 48.246 103.326 49.164 102.986Z" fill="white"/>
<path d="M106.692 35.02C103.36 37.842 100.776 41.548 99.3478 45.73L97.6138 45.628C98.4298 40.834 100.47 36.448 103.394 32.708L106.692 35.02Z" fill="#23A9B1"/>
<path opacity="0.6" d="M106.692 35.02C103.36 37.842 100.776 41.548 99.3478 45.73L97.6138 45.628C98.4298 40.834 100.47 36.448 103.394 32.708L106.692 35.02Z" fill="white"/>
<path d="M116.96 29.818C113.152 30.702 109.616 32.538 106.692 35.02L103.36 32.742C106.318 28.968 110.16 25.942 114.478 23.902L116.96 29.818Z" fill="#23A9B1"/>
<path opacity="0.5" d="M116.96 29.818C113.152 30.702 109.616 32.538 106.692 35.02L103.36 32.742C106.318 28.968 110.16 25.942 114.478 23.902L116.96 29.818Z" fill="white"/>
<path d="M128.01 21.284L126.786 29.716C125.63 29.444 124.406 29.308 123.148 29.24C121.04 29.138 118.966 29.342 116.994 29.818L114.512 23.902C118.558 22.032 123.046 21.08 127.636 21.284C127.738 21.284 127.874 21.284 128.01 21.284Z" fill="#23A9B1"/>
<path opacity="0.4" d="M128.01 21.284L126.786 29.716C125.63 29.444 124.406 29.308 123.148 29.24C121.04 29.138 118.966 29.342 116.994 29.818L114.512 23.902C118.558 22.032 123.046 21.08 127.636 21.284C127.738 21.284 127.874 21.284 128.01 21.284Z" fill="white"/>
<path d="M140.488 25.466L134.64 33.286C132.396 31.586 129.744 30.328 126.786 29.682L128.01 21.25C132.702 21.59 136.986 23.086 140.488 25.466Z" fill="#23A9B1"/>
<path opacity="0.3" d="M140.488 25.466L134.64 33.286C132.396 31.586 129.744 30.328 126.786 29.682L128.01 21.25C132.702 21.59 136.986 23.086 140.488 25.466Z" fill="white"/>
<path d="M148.852 35.394L140.046 39.61C138.72 37.128 136.884 34.986 134.674 33.286L140.556 25.432C144.16 27.914 147.016 31.348 148.852 35.394Z" fill="#23A9B1"/>
<path opacity="0.2" d="M148.852 35.394L140.046 39.61C138.72 37.128 136.884 34.986 134.674 33.286L140.556 25.432C144.16 27.914 147.016 31.348 148.852 35.394Z" fill="white"/>
<path d="M150.756 48.654L142.324 48.178C142.188 45.084 141.372 42.16 140.012 39.61L148.818 35.394C150.586 39.338 151.334 43.86 150.756 48.654Z" fill="#23A9B1"/>
<path opacity="0.1" d="M150.756 48.654L142.324 48.178C142.188 45.084 141.372 42.16 140.012 39.61L148.818 35.394C150.586 39.338 151.334 43.86 150.756 48.654Z" fill="white"/>
<path d="M150.722 48.892C150.722 48.926 150.722 48.96 150.722 48.994C150.382 51.374 149.26 55.25 148.104 57.494L141.338 55.658L142.018 53.074C142.086 52.734 142.154 52.394 142.188 52.054L142.222 51.85C142.392 50.592 142.426 49.368 142.358 48.178L150.79 48.654C150.79 48.688 150.79 48.756 150.79 48.79C150.756 48.824 150.756 48.858 150.722 48.892Z" fill="#23A9B1"/>
<path d="M98.226 54.7401L97.716 54.8421C97.58 54.1961 97.478 53.516 97.41 52.836C97.172 50.83 97.206 48.7561 97.444 46.6141V46.5121C97.444 46.4781 97.444 46.4441 97.478 46.4101C97.512 46.1381 97.546 45.9001 97.614 45.6281L99.348 45.7301C98.906 47.0561 98.566 48.4501 98.362 49.9121C98.362 49.9461 98.362 49.9801 98.328 50.0141C98.294 50.0481 98.328 50.082 98.328 50.116C98.226 50.966 98.158 51.8161 98.158 52.6321C98.124 53.3461 98.158 54.0601 98.226 54.7401Z" fill="#23A9B1"/>
<path opacity="0.7" d="M98.226 54.7401L97.716 54.8421C97.58 54.1961 97.478 53.516 97.41 52.836C97.172 50.83 97.206 48.7561 97.444 46.6141V46.5121C97.444 46.4781 97.444 46.4441 97.478 46.4101C97.512 46.1381 97.546 45.9001 97.614 45.6281L99.348 45.7301C98.906 47.0561 98.566 48.4501 98.362 49.9121C98.362 49.9461 98.362 49.9801 98.328 50.0141C98.294 50.0481 98.328 50.082 98.328 50.116C98.226 50.966 98.158 51.8161 98.158 52.6321C98.124 53.3461 98.158 54.0601 98.226 54.7401Z" fill="white"/>
<path d="M149.872 55.692L149.09 57.46L147.628 57.052L134.164 53.38L128.384 51.782C128.826 51.272 129.2 50.728 129.472 50.116C129.812 49.402 130.016 48.654 130.118 47.906L142.902 52.938L149.872 55.692Z" fill="#263238"/>
<path d="M130.118 47.872C129.948 49.266 129.37 50.626 128.418 51.748L123.216 50.32L125.086 45.866L130.118 47.872Z" fill="#263238"/>
<path d="M126.99 47.7359C126.888 48.6879 126.48 49.64 125.8 50.3879C125.358 50.932 124.78 51.374 124.1 51.714C121.72 52.836 119.034 51.952 118.082 49.674C117.13 47.43 118.286 44.642 120.666 43.52C123.046 42.364 125.732 43.282 126.684 45.56C126.99 46.274 127.092 47.0219 126.99 47.7359Z" fill="#23A9B1"/>
<path d="M139.128 43.5539C139.06 43.5539 138.992 43.4859 138.992 43.4179C138.72 42.0919 138.108 40.6639 137.224 39.3039C137.19 39.2359 137.19 39.1339 137.258 39.0659C137.326 39.0319 137.428 39.0319 137.496 39.0999C138.414 40.4939 139.026 41.9559 139.298 43.3499C139.332 43.4519 139.264 43.5199 139.162 43.5539C139.128 43.5539 139.128 43.5539 139.128 43.5539Z" fill="#23A9B1"/>
<path d="M102.238 42.942C102.204 42.942 102.17 42.942 102.17 42.908C102.102 42.874 102.068 42.772 102.102 42.704C102.17 42.568 109.412 30.702 121.176 30.668C126.922 30.668 132.328 33.014 135.966 37.128C136.034 37.196 136.034 37.298 135.966 37.366C135.898 37.434 135.796 37.434 135.728 37.366C132.124 33.32 126.82 30.974 121.176 31.008C109.582 31.042 102.442 42.772 102.374 42.874C102.34 42.908 102.272 42.942 102.238 42.942Z" fill="#23A9B1"/>
<path d="M147.492 58.718H147.458L145.486 58.174C145.384 58.14 145.35 58.072 145.384 57.97C145.418 57.868 145.486 57.834 145.588 57.868L147.56 58.412C147.662 58.446 147.696 58.514 147.662 58.616C147.628 58.65 147.56 58.718 147.492 58.718Z" fill="#23A9B1"/>
<path d="M144.092 57.766H144.058L128.146 53.278C128.044 53.244 128.01 53.176 128.044 53.074C128.078 52.972 128.146 52.938 128.248 52.972L144.16 57.46C144.262 57.494 144.296 57.562 144.262 57.664C144.228 57.698 144.16 57.766 144.092 57.766Z" fill="#23A9B1"/>
</svg>
