<svg width="32" height="32" viewBox="0 0 32 32" fill="none" xmlns="http://www.w3.org/2000/svg">
<path d="M25.4375 0H6.5625C2.94394 0 0 2.94394 0 6.5625V25.4375C0 29.0561 2.94394 32 6.5625 32H25.4375C29.0561 32 32 29.0561 32 25.4375V6.5625C32 2.94394 29.0561 0 25.4375 0ZM10.2121 12.0757C10.8273 11.2647 11.6827 11.2608 11.6827 11.2608C11.6827 11.2608 11.8099 12.0232 11.1987 12.7577C10.5461 13.5419 9.80419 13.4136 9.80419 13.4136C9.80419 13.4136 9.66494 12.7968 10.2121 12.0757ZM11.5609 20.6112C11.0138 20.6112 10.5884 20.2426 10.0119 20.2426C9.4245 20.2426 8.8415 20.625 8.46187 20.625C7.37419 20.625 6 18.2704 6 16.3777C6 14.5155 7.16319 13.5386 8.25412 13.5386C8.96338 13.5386 9.51375 13.9476 9.88244 13.9476C10.199 13.9476 10.7864 13.5126 11.5511 13.5126C12.8673 13.5126 13.3851 14.4491 13.3851 14.4491C13.3851 14.4491 12.3723 14.9669 12.3723 16.2232C12.3723 17.6406 13.6339 18.129 13.6339 18.129C13.6339 18.129 12.7521 20.6112 11.5609 20.6112ZM18.5125 20.4625C18.1875 20.5625 17.8457 20.6125 17.4875 20.6125C16.375 20.6125 15.7875 20 15.7875 19V15.2375H14.925V13.95H15.7875V11.825H17.4625V13.95H18.8375V15.2375H17.4625V18.4375C17.4625 18.8906 17.7188 19.075 18.0875 19.075C18.4375 19.075 18.9 18.8793 19 18.8375L19.3375 20.1625C19.1125 20.2625 18.8375 20.3625 18.5125 20.4625ZM23.7874 20.5H21.9749L19.5624 13.95H21.2874L22.9499 19.1375L24.6249 13.95H26.1999L23.7874 20.5Z" fill="#FF312C"/>
</svg>
