<svg width="188" height="42" viewBox="0 0 188 42" fill="none" xmlns="http://www.w3.org/2000/svg">
<path d="M68.0429 11.5895V30.507H64.935V17.0215L59.1787 26.5343H58.8004L53.044 16.9945V30.507H49.9362V11.5895H53.2873L58.9895 21.0482L64.7188 11.5895H68.0429ZM73.9227 24.9939C74.1389 26.0208 74.6344 26.8136 75.4091 27.3721C76.1838 27.9126 77.1297 28.1828 78.2467 28.1828C79.7961 28.1828 80.9582 27.6243 81.7329 26.5073L84.1381 27.9126C82.8049 29.8764 80.8321 30.8583 78.2197 30.8583C76.0216 30.8583 74.247 30.1917 72.8958 28.8584C71.5445 27.5072 70.8689 25.8046 70.8689 23.7507C70.8689 21.7329 71.5355 20.0483 72.8687 18.6971C74.202 17.3278 75.9135 16.6432 78.0035 16.6432C79.9853 16.6432 81.6068 17.3368 82.868 18.7241C84.1471 20.1114 84.7867 21.7959 84.7867 23.7777C84.7867 24.084 84.7507 24.4894 84.6786 24.9939H73.9227ZM73.8957 22.6157H81.841C81.6428 21.5167 81.1834 20.6879 80.4627 20.1294C79.7601 19.5709 78.9313 19.2916 77.9764 19.2916C76.8954 19.2916 75.9946 19.5889 75.274 20.1834C74.5533 20.778 74.0939 21.5887 73.8957 22.6157ZM96.4083 16.9945V19.8051H90.2736V30.507H87.3549V16.9945H96.4083ZM108.561 16.9945H111.479V30.507H108.561V28.5612C107.462 30.0926 105.885 30.8583 103.831 30.8583C101.976 30.8583 100.39 30.1737 99.0749 28.8044C97.7597 27.4171 97.1021 25.7326 97.1021 23.7507C97.1021 21.7509 97.7597 20.0663 99.0749 18.6971C100.39 17.3278 101.976 16.6432 103.831 16.6432C105.885 16.6432 107.462 17.3999 108.561 18.9133V16.9945ZM101.237 26.8586C102.048 27.6693 103.066 28.0747 104.291 28.0747C105.516 28.0747 106.534 27.6693 107.345 26.8586C108.155 26.0298 108.561 24.9939 108.561 23.7507C108.561 22.5076 108.155 21.4806 107.345 20.6699C106.534 19.8411 105.516 19.4267 104.291 19.4267C103.066 19.4267 102.048 19.8411 101.237 20.6699C100.426 21.4806 100.021 22.5076 100.021 23.7507C100.021 24.9939 100.426 26.0298 101.237 26.8586ZM121.151 30.8583C119.079 30.8583 117.386 30.1917 116.07 28.8584C114.773 27.5072 114.125 25.7866 114.125 23.6967C114.125 21.4086 114.467 19.6429 115.152 18.3998C115.836 17.1386 117.223 15.9946 119.313 14.9676C119.656 14.8055 120.16 14.5713 120.827 14.265C121.511 13.9587 121.98 13.7425 122.232 13.6164C122.484 13.4722 122.8 13.2741 123.178 13.0218C123.556 12.7516 123.836 12.4723 124.016 12.1841C124.196 11.8778 124.34 11.5174 124.448 11.1031L126.826 12.4813C126.754 12.8777 126.637 13.247 126.475 13.5893C126.313 13.9136 126.079 14.2199 125.772 14.5082C125.466 14.7965 125.196 15.0307 124.962 15.2108C124.745 15.391 124.376 15.6072 123.854 15.8594C123.331 16.1117 122.944 16.2918 122.692 16.3999C122.457 16.508 122.007 16.6972 121.34 16.9675C120.151 17.4359 119.277 17.9223 118.719 18.4268C118.178 18.9133 117.8 19.5258 117.584 20.2645C118.665 19.0394 120.133 18.4268 121.989 18.4268C123.574 18.4268 124.953 18.9943 126.124 20.1294C127.313 21.2644 127.907 22.7328 127.907 24.5344C127.907 26.3721 127.277 27.8855 126.016 29.0746C124.772 30.2637 123.151 30.8583 121.151 30.8583ZM121.124 28.1288C122.259 28.1288 123.187 27.7955 123.908 27.1288C124.628 26.4442 124.989 25.5794 124.989 24.5344C124.989 23.4715 124.628 22.5977 123.908 21.913C123.205 21.2284 122.286 20.8861 121.151 20.8861C120.142 20.8861 119.232 21.2104 118.422 21.859C117.611 22.4896 117.205 23.3363 117.205 24.3993C117.205 25.4803 117.584 26.3721 118.341 27.0748C119.097 27.7774 120.025 28.1288 121.124 28.1288ZM139.998 16.9945H142.241V30.507H139.376V21.913L132.458 30.507H130.215V16.9945H133.079V25.5614L139.998 16.9945ZM155.951 16.9945V19.8051H151.546V30.507H148.627V19.8051H144.195V16.9945H155.951ZM169.871 30.507H166.385L160.845 24.2642V30.507H157.926V16.9945H160.845V22.967L166.087 16.9945H169.655L163.709 23.6156L169.871 30.507ZM181.454 16.9945H184.373V30.507H181.454V28.5612C180.355 30.0926 178.779 30.8583 176.725 30.8583C174.869 30.8583 173.284 30.1737 171.968 28.8044C170.653 27.4171 169.995 25.7326 169.995 23.7507C169.995 21.7509 170.653 20.0663 171.968 18.6971C173.284 17.3278 174.869 16.6432 176.725 16.6432C178.779 16.6432 180.355 17.3999 181.454 18.9133V16.9945ZM174.13 26.8586C174.941 27.6693 175.959 28.0747 177.184 28.0747C178.409 28.0747 179.427 27.6693 180.238 26.8586C181.049 26.0298 181.454 24.9939 181.454 23.7507C181.454 22.5076 181.049 21.4806 180.238 20.6699C179.427 19.8411 178.409 19.4267 177.184 19.4267C175.959 19.4267 174.941 19.8411 174.13 20.6699C173.32 21.4806 172.914 22.5076 172.914 23.7507C172.914 24.9939 173.32 26.0298 174.13 26.8586Z" fill="white"/>
<path fill-rule="evenodd" clip-rule="evenodd" d="M18.9524 7.17583C18.9524 7.17583 33.0696 14.0211 11.1066 39.6759C12.5069 41.0807 13.8514 41.9226 15.0127 41.9226C20.4711 41.9226 30.0255 23.303 30.0255 15.0127C30.0255 6.72022 23.303 0 15.0127 0C6.72022 0 0 6.72245 0 15.0127C0 16.9446 0.518143 19.437 1.38469 22.1238C0.560577 16.6699 8.20988 6.11498 15.14 6.11498C16.5337 6.11721 17.8402 6.50358 18.9524 7.17583Z" fill="white"/>
<path fill-rule="evenodd" clip-rule="evenodd" d="M22.5212 13.4986C22.5212 17.5745 19.2158 20.8799 15.1399 20.8799C11.1645 20.8799 7.92386 17.7375 7.76529 13.8023C2.96354 18.9368 3.09754 26.642 3.09754 26.6733C5.27955 31.7765 8.30354 36.8597 11.1087 39.676C33.0717 14.0212 18.9545 7.1759 18.9545 7.1759C21.0918 8.46903 22.5212 10.8163 22.5212 13.4986Z" fill="white" fill-opacity="0.3"/>
<mask id="mask0_856_2981" style="mask-type:alpha" maskUnits="userSpaceOnUse" x="11" y="7" width="13" height="33">
<mask id="mask1_856_2981" style="mask-type:alpha" maskUnits="userSpaceOnUse" x="11" y="7" width="13" height="33">
<path d="M23.419 7.1759H11.1064V39.676H23.419V7.1759Z" fill="url(#paint0_linear_856_2981)"/>
</mask>
<g mask="url(#mask1_856_2981)">
<path d="M23.419 7.1759H11.1064V39.676H23.419V7.1759Z" fill="url(#paint1_linear_856_2981)"/>
</g>
</mask>
<g mask="url(#mask0_856_2981)">
<path fill-rule="evenodd" clip-rule="evenodd" d="M15.9283 20.8393C18.1974 28.0285 11.1064 39.6778 11.1064 39.6778C33.0694 14.023 18.9523 7.17773 18.9523 7.17773C21.0919 8.47086 22.5212 10.8181 22.5212 13.5004C22.5212 17.3083 19.6335 20.444 15.9283 20.8393Z" fill="white" fill-opacity="0.5"/>
</g>
<mask id="mask2_856_2981" style="mask-type:alpha" maskUnits="userSpaceOnUse" x="11" y="6" width="14" height="34">
<mask id="mask3_856_2981" style="mask-type:alpha" maskUnits="userSpaceOnUse" x="11" y="6" width="14" height="34">
<path d="M24.2633 6.11694H11.1064V39.9816H24.2633V6.11694Z" fill="url(#paint2_linear_856_2981)"/>
</mask>
<g mask="url(#mask3_856_2981)">
<path d="M24.2633 6.11694H11.1064V39.9816H24.2633V6.11694Z" fill="url(#paint3_linear_856_2981)"/>
</g>
</mask>
<g mask="url(#mask2_856_2981)">
</g>
<mask id="mask4_856_2981" style="mask-type:alpha" maskUnits="userSpaceOnUse" x="1" y="0" width="30" height="37">
<mask id="mask5_856_2981" style="mask-type:alpha" maskUnits="userSpaceOnUse" x="1" y="0" width="30" height="37">
<path d="M30.028 0H1.46094V36.9087H30.028V0Z" fill="url(#paint4_linear_856_2981)"/>
</mask>
<g mask="url(#mask5_856_2981)">
<path d="M30.028 0H1.46094V36.9087H30.028V0Z" fill="url(#paint5_linear_856_2981)"/>
</g>
</mask>
<g mask="url(#mask4_856_2981)">
</g>
<defs>
<linearGradient id="paint0_linear_856_2981" x1="11.5126" y1="35.0029" x2="27.4367" y2="2.94394" gradientUnits="userSpaceOnUse">
<stop stop-color="white"/>
<stop offset="1"/>
</linearGradient>
<linearGradient id="paint1_linear_856_2981" x1="11.5126" y1="35.0029" x2="27.4367" y2="2.94394" gradientUnits="userSpaceOnUse">
<stop stop-color="white"/>
<stop offset="1" stop-color="white"/>
</linearGradient>
<linearGradient id="paint2_linear_856_2981" x1="35.5968" y1="1.07202" x2="10.4978" y2="31.8657" gradientUnits="userSpaceOnUse">
<stop stop-color="white"/>
<stop offset="1"/>
</linearGradient>
<linearGradient id="paint3_linear_856_2981" x1="35.5968" y1="1.07202" x2="10.4978" y2="31.8657" gradientUnits="userSpaceOnUse">
<stop stop-color="white"/>
<stop offset="1" stop-color="white"/>
</linearGradient>
<linearGradient id="paint4_linear_856_2981" x1="30.9943" y1="-8.59283" x2="17.4957" y2="15.3461" gradientUnits="userSpaceOnUse">
<stop stop-color="white"/>
<stop offset="1"/>
</linearGradient>
<linearGradient id="paint5_linear_856_2981" x1="30.9943" y1="-8.59283" x2="17.4957" y2="15.3461" gradientUnits="userSpaceOnUse">
<stop stop-color="white"/>
<stop offset="1" stop-color="white"/>
</linearGradient>
</defs>
</svg>
