<svg width="60" height="60" viewBox="0 0 60 60" fill="none" xmlns="http://www.w3.org/2000/svg">
<path d="M28.0128 8.66025C27.8186 8.66091 27.6306 8.59184 27.483 8.46562C27.3354 8.33939 27.2381 8.16438 27.2086 7.97242C27.1791 7.78046 27.2196 7.58431 27.3225 7.41964C27.4255 7.25496 27.5841 7.13271 27.7696 7.07511L30.1209 6.33727C30.3261 6.27276 30.5484 6.29239 30.7391 6.39183C30.8335 6.44107 30.9173 6.50842 30.9857 6.59005C31.0541 6.67167 31.1057 6.76596 31.1377 6.86754C31.1696 6.96912 31.1812 7.076 31.1719 7.18207C31.1625 7.28814 31.1323 7.39133 31.0831 7.48574C31.0339 7.58016 30.9665 7.66395 30.8849 7.73233C30.8033 7.80072 30.709 7.85236 30.6074 7.8843L28.256 8.62214C28.1775 8.64749 28.0954 8.66035 28.0128 8.66025Z" fill="#252525"/>
<path d="M41.4488 57.1622H18.5515C18.3365 57.1622 18.1303 57.0768 17.9782 56.9247C17.8261 56.7727 17.7407 56.5665 17.7407 56.3514V10.8001C17.7405 10.6274 17.7955 10.4591 17.8976 10.3199C17.9997 10.1806 18.1436 10.0775 18.3083 10.0257L22.094 8.84195C22.2992 8.77744 22.5217 8.79711 22.7125 8.89663C22.9032 8.99615 23.0466 9.16737 23.1111 9.37263C23.1756 9.57788 23.156 9.80036 23.0565 9.99112C22.9569 10.1819 22.7857 10.3253 22.5805 10.3898L19.3623 11.396V55.5406H40.638V4.7506L36.2823 6.10952C36.077 6.17403 35.8544 6.15432 35.6636 6.05472C35.4727 5.95513 35.3293 5.7838 35.2648 5.57844C35.2003 5.37307 35.22 5.15049 35.3196 4.95966C35.4192 4.76883 35.5905 4.62538 35.7959 4.56087L41.204 2.87438C41.3255 2.83617 41.4543 2.82712 41.5799 2.84797C41.7056 2.86883 41.8246 2.91899 41.9272 2.9944C42.0299 3.06982 42.1133 3.16836 42.1708 3.28203C42.2283 3.39571 42.2582 3.52133 42.258 3.64871V56.3514C42.258 56.5662 42.1728 56.7722 42.0211 56.9242C41.8694 57.0762 41.6636 57.1618 41.4488 57.1622Z" fill="#252525"/>
<path d="M54.3245 57.1621H41.4529C41.2379 57.1621 41.0316 57.0767 40.8796 56.9246C40.7275 56.7726 40.6421 56.5664 40.6421 56.3513V20.2175C40.6421 20.0848 40.6747 19.954 40.737 19.8368C40.7994 19.7196 40.8896 19.6195 40.9997 19.5453C41.1097 19.471 41.2364 19.425 41.3684 19.4112C41.5005 19.3973 41.6339 19.4161 41.757 19.4659L54.6294 24.6924C54.779 24.7531 54.907 24.857 54.9971 24.9909C55.0873 25.1248 55.1354 25.2826 55.1353 25.444V56.3513C55.1353 56.5664 55.0499 56.7726 54.8979 56.9246C54.7458 57.0767 54.5396 57.1621 54.3245 57.1621ZM42.2637 55.5405H53.5137V25.9897L42.2637 21.4216V55.5405Z" fill="#252525"/>
<path d="M18.5472 57.1621H5.67556C5.46052 57.1621 5.25428 57.0767 5.10223 56.9246C4.95017 56.7726 4.86475 56.5664 4.86475 56.3513V25.444C4.86468 25.2826 4.9128 25.1248 5.00294 24.9909C5.09307 24.857 5.22112 24.7531 5.37069 24.6924L18.2431 19.4659C18.3662 19.4161 18.4996 19.3973 18.6317 19.4112C18.7637 19.425 18.8903 19.471 19.0004 19.5453C19.1105 19.6195 19.2007 19.7196 19.263 19.8368C19.3254 19.954 19.358 20.0848 19.358 20.2175V56.3513C19.358 56.5664 19.2726 56.7726 19.1205 56.9246C18.9685 57.0767 18.7622 57.1621 18.5472 57.1621ZM6.48637 55.5405H17.7364V21.4216L6.48637 25.9897V55.5405Z" fill="#252525"/>
<path d="M57.5675 57.1621H2.43239C2.21735 57.1621 2.01112 57.0767 1.85906 56.9247C1.70701 56.7726 1.62158 56.5664 1.62158 56.3513C1.62158 56.1363 1.70701 55.9301 1.85906 55.778C2.01112 55.626 2.21735 55.5405 2.43239 55.5405H57.5675C57.7826 55.5405 57.9888 55.626 58.1409 55.778C58.2929 55.9301 58.3783 56.1363 58.3783 56.3513C58.3783 56.5664 58.2929 56.7726 58.1409 56.9247C57.9888 57.0767 57.7826 57.1621 57.5675 57.1621Z" fill="#252525"/>
<path d="M35.4391 49.054H33.9529C33.7379 49.054 33.5316 48.9686 33.3796 48.8165C33.2275 48.6645 33.1421 48.4582 33.1421 48.2432C33.1421 48.0281 33.2275 47.8219 33.3796 47.6699C33.5316 47.5178 33.7379 47.4324 33.9529 47.4324H35.4391C35.6542 47.4324 35.8604 47.5178 36.0124 47.6699C36.1645 47.8219 36.2499 48.0281 36.2499 48.2432C36.2499 48.4582 36.1645 48.6645 36.0124 48.8165C35.8604 48.9686 35.6542 49.054 35.4391 49.054Z" fill="#252525"/>
<path d="M26.0475 49.054H24.5613C24.3463 49.054 24.14 48.9686 23.988 48.8165C23.8359 48.6645 23.7505 48.4582 23.7505 48.2432C23.7505 48.0281 23.8359 47.8219 23.988 47.6699C24.14 47.5178 24.3463 47.4324 24.5613 47.4324H26.0475C26.2626 47.4324 26.4688 47.5178 26.6208 47.6699C26.7729 47.8219 26.8583 48.0281 26.8583 48.2432C26.8583 48.4582 26.7729 48.6645 26.6208 48.8165C26.4688 48.9686 26.2626 49.054 26.0475 49.054Z" fill="#252525"/>
<path d="M35.4391 39.5951H33.9529C33.7379 39.5951 33.5316 39.5097 33.3796 39.3577C33.2275 39.2056 33.1421 38.9994 33.1421 38.7843C33.1421 38.5693 33.2275 38.363 33.3796 38.211C33.5316 38.0589 33.7379 37.9735 33.9529 37.9735H35.4391C35.6542 37.9735 35.8604 38.0589 36.0124 38.211C36.1645 38.363 36.2499 38.5693 36.2499 38.7843C36.2499 38.9994 36.1645 39.2056 36.0124 39.3577C35.8604 39.5097 35.6542 39.5951 35.4391 39.5951Z" fill="#252525"/>
<path d="M26.0475 39.5951H24.5613C24.3463 39.5951 24.14 39.5097 23.988 39.3577C23.8359 39.2056 23.7505 38.9994 23.7505 38.7843C23.7505 38.5693 23.8359 38.363 23.988 38.211C24.14 38.0589 24.3463 37.9735 24.5613 37.9735H26.0475C26.2626 37.9735 26.4688 38.0589 26.6208 38.211C26.7729 38.363 26.8583 38.5693 26.8583 38.7843C26.8583 38.9994 26.7729 39.2056 26.6208 39.3577C26.4688 39.5097 26.2626 39.5951 26.0475 39.5951Z" fill="#252525"/>
<path d="M35.4391 30.1346H33.9529C33.7379 30.1346 33.5316 30.0491 33.3796 29.8971C33.2275 29.745 33.1421 29.5388 33.1421 29.3238C33.1421 29.1087 33.2275 28.9025 33.3796 28.7504C33.5316 28.5984 33.7379 28.5129 33.9529 28.5129H35.4391C35.6542 28.5129 35.8604 28.5984 36.0124 28.7504C36.1645 28.9025 36.2499 29.1087 36.2499 29.3238C36.2499 29.5388 36.1645 29.745 36.0124 29.8971C35.8604 30.0491 35.6542 30.1346 35.4391 30.1346Z" fill="#252525"/>
<path d="M26.0475 30.1346H24.5613C24.3463 30.1346 24.14 30.0491 23.988 29.8971C23.8359 29.745 23.7505 29.5388 23.7505 29.3238C23.7505 29.1087 23.8359 28.9025 23.988 28.7504C24.14 28.5984 24.3463 28.5129 24.5613 28.5129H26.0475C26.2626 28.5129 26.4688 28.5984 26.6208 28.7504C26.7729 28.9025 26.8583 29.1087 26.8583 29.3238C26.8583 29.5388 26.7729 29.745 26.6208 29.8971C26.4688 30.0491 26.2626 30.1346 26.0475 30.1346Z" fill="#252525"/>
<path d="M35.4391 20.6757H33.9529C33.7379 20.6757 33.5316 20.5903 33.3796 20.4382C33.2275 20.2862 33.1421 20.0799 33.1421 19.8649C33.1421 19.6498 33.2275 19.4436 33.3796 19.2916C33.5316 19.1395 33.7379 19.0541 33.9529 19.0541H35.4391C35.6542 19.0541 35.8604 19.1395 36.0124 19.2916C36.1645 19.4436 36.2499 19.6498 36.2499 19.8649C36.2499 20.0799 36.1645 20.2862 36.0124 20.4382C35.8604 20.5903 35.6542 20.6757 35.4391 20.6757Z" fill="#252525"/>
<path d="M26.0475 20.6757H24.5613C24.3463 20.6757 24.14 20.5903 23.988 20.4382C23.8359 20.2862 23.7505 20.0799 23.7505 19.8649C23.7505 19.6498 23.8359 19.4436 23.988 19.2916C24.14 19.1395 24.3463 19.0541 24.5613 19.0541H26.0475C26.2626 19.0541 26.4688 19.1395 26.6208 19.2916C26.7729 19.4436 26.8583 19.6498 26.8583 19.8649C26.8583 20.0799 26.7729 20.2862 26.6208 20.4382C26.4688 20.5903 26.2626 20.6757 26.0475 20.6757Z" fill="#252525"/>
<path d="M49.2065 32.027H47.2298C47.0147 32.027 46.8085 31.9416 46.6564 31.7895C46.5044 31.6375 46.4189 31.4312 46.4189 31.2162C46.4189 31.0012 46.5044 30.7949 46.6564 30.6429C46.8085 30.4908 47.0147 30.4054 47.2298 30.4054H49.2065C49.4216 30.4054 49.6278 30.4908 49.7798 30.6429C49.9319 30.7949 50.0173 31.0012 50.0173 31.2162C50.0173 31.4312 49.9319 31.6375 49.7798 31.7895C49.6278 31.9416 49.4216 32.027 49.2065 32.027Z" fill="#252525"/>
<path d="M49.2065 38.2841H47.2298C47.0147 38.2841 46.8085 38.1987 46.6564 38.0466C46.5044 37.8946 46.4189 37.6883 46.4189 37.4733C46.4189 37.2582 46.5044 37.052 46.6564 36.9C46.8085 36.7479 47.0147 36.6625 47.2298 36.6625H49.2065C49.4216 36.6625 49.6278 36.7479 49.7798 36.9C49.9319 37.052 50.0173 37.2582 50.0173 37.4733C50.0173 37.6883 49.9319 37.8946 49.7798 38.0466C49.6278 38.1987 49.4216 38.2841 49.2065 38.2841Z" fill="#252525"/>
<path d="M49.2065 44.5419H47.2298C47.0147 44.5419 46.8085 44.4565 46.6564 44.3044C46.5044 44.1524 46.4189 43.9461 46.4189 43.7311C46.4189 43.5161 46.5044 43.3098 46.6564 43.1578C46.8085 43.0057 47.0147 42.9203 47.2298 42.9203H49.2065C49.4216 42.9203 49.6278 43.0057 49.7798 43.1578C49.9319 43.3098 50.0173 43.5161 50.0173 43.7311C50.0173 43.9461 49.9319 44.1524 49.7798 44.3044C49.6278 44.4565 49.4216 44.5419 49.2065 44.5419Z" fill="#252525"/>
<path d="M49.2065 50.7989H47.2298C47.0147 50.7989 46.8085 50.7134 46.6564 50.5614C46.5044 50.4093 46.4189 50.2031 46.4189 49.9881C46.4189 49.773 46.5044 49.5668 46.6564 49.4147C46.8085 49.2627 47.0147 49.1772 47.2298 49.1772H49.2065C49.4216 49.1772 49.6278 49.2627 49.7798 49.4147C49.9319 49.5668 50.0173 49.773 50.0173 49.9881C50.0173 50.2031 49.9319 50.4093 49.7798 50.5614C49.6278 50.7134 49.4216 50.7989 49.2065 50.7989Z" fill="#252525"/>
<path d="M12.7705 32.027H10.7937C10.5787 32.027 10.3724 31.9416 10.2204 31.7895C10.0683 31.6375 9.98291 31.4312 9.98291 31.2162C9.98291 31.0012 10.0683 30.7949 10.2204 30.6429C10.3724 30.4908 10.5787 30.4054 10.7937 30.4054H12.7705C12.9855 30.4054 13.1918 30.4908 13.3438 30.6429C13.4959 30.7949 13.5813 31.0012 13.5813 31.2162C13.5813 31.4312 13.4959 31.6375 13.3438 31.7895C13.1918 31.9416 12.9855 32.027 12.7705 32.027Z" fill="#252525"/>
<path d="M12.7705 38.2841H10.7937C10.5787 38.2841 10.3724 38.1987 10.2204 38.0466C10.0683 37.8946 9.98291 37.6883 9.98291 37.4733C9.98291 37.2582 10.0683 37.052 10.2204 36.9C10.3724 36.7479 10.5787 36.6625 10.7937 36.6625H12.7705C12.9855 36.6625 13.1918 36.7479 13.3438 36.9C13.4959 37.052 13.5813 37.2582 13.5813 37.4733C13.5813 37.6883 13.4959 37.8946 13.3438 38.0466C13.1918 38.1987 12.9855 38.2841 12.7705 38.2841Z" fill="#252525"/>
<path d="M12.7705 44.5419H10.7937C10.5787 44.5419 10.3724 44.4565 10.2204 44.3044C10.0683 44.1524 9.98291 43.9461 9.98291 43.7311C9.98291 43.5161 10.0683 43.3098 10.2204 43.1578C10.3724 43.0057 10.5787 42.9203 10.7937 42.9203H12.7705C12.9855 42.9203 13.1918 43.0057 13.3438 43.1578C13.4959 43.3098 13.5813 43.5161 13.5813 43.7311C13.5813 43.9461 13.4959 44.1524 13.3438 44.3044C13.1918 44.4565 12.9855 44.5419 12.7705 44.5419Z" fill="#252525"/>
<path d="M12.7705 50.7989H10.7937C10.5787 50.7989 10.3724 50.7134 10.2204 50.5614C10.0683 50.4093 9.98291 50.2031 9.98291 49.9881C9.98291 49.773 10.0683 49.5668 10.2204 49.4147C10.3724 49.2627 10.5787 49.1772 10.7937 49.1772H12.7705C12.9855 49.1772 13.1918 49.2627 13.3438 49.4147C13.4959 49.5668 13.5813 49.773 13.5813 49.9881C13.5813 50.2031 13.4959 50.4093 13.3438 50.5614C13.1918 50.7134 12.9855 50.7989 12.7705 50.7989Z" fill="#252525"/>
</svg>
