<svg width="170" height="170" viewBox="0 0 170 170" fill="none" xmlns="http://www.w3.org/2000/svg">
<path d="M170 130.016H0V130.101H170V130.016Z" fill="#EBEBEB"/>
<path d="M152.966 135.487H134.188V135.572H152.966V135.487Z" fill="#EBEBEB"/>
<path d="M112.37 133.705H109.416V133.79H112.37V133.705Z" fill="#EBEBEB"/>
<path d="M133.164 132.331H126.64V132.416H133.164V132.331Z" fill="#EBEBEB"/>
<path d="M32.521 132.903H17.8364V132.988H32.521V132.903Z" fill="#EBEBEB"/>
<path d="M88.7572 135.099H73.2124V135.184H88.7572V135.099Z" fill="#EBEBEB"/>
<path d="M79.6075 133.661H47.7563V133.746H79.6075V133.661Z" fill="#EBEBEB"/>
<path d="M82.5246 112.911C82.5246 113.982 81.6542 114.852 80.5832 114.852H14.9326C13.8616 114.852 12.9912 113.982 12.9912 112.911V20.6244C12.9912 19.5534 13.8616 18.683 14.9326 18.683H80.5866C81.6576 18.683 82.528 19.5534 82.528 20.6244M82.4396 20.6244C82.4396 19.601 81.6066 18.768 80.5832 18.768H14.9326C13.9092 18.768 13.0762 19.601 13.0762 20.6244V112.911C13.0762 113.934 13.9092 114.767 14.9326 114.767H80.5866C81.61 114.767 82.443 113.934 82.443 112.911" fill="#EBEBEB"/>
<path d="M154.125 114.852H88.4712C87.4002 114.852 86.5298 113.982 86.5298 112.911V20.6244C86.5298 19.5534 87.4002 18.683 88.4712 18.683H154.125C155.196 18.683 156.067 19.5534 156.067 20.6244V112.911C156.067 113.982 155.196 114.852 154.125 114.852ZM88.4712 18.768C87.4478 18.768 86.6148 19.601 86.6148 20.6244V112.911C86.6148 113.934 87.4478 114.767 88.4712 114.767H154.125C155.149 114.767 155.982 113.934 155.982 112.911V20.6244C155.982 19.601 155.149 18.768 154.125 18.768H88.4712Z" fill="#EBEBEB"/>
<path d="M65.6712 50.1704C65.627 44.8698 61.3192 40.5892 56.0084 40.5892C54.73 40.5892 53.5094 40.8408 52.3908 41.293C50.4936 37.4102 46.5054 34.7344 41.895 34.7344C36.3156 34.7344 31.6542 38.6478 30.4948 43.877C25.2486 44.2136 21.0972 48.5724 21.0972 53.9036C21.0972 59.4558 25.5988 63.954 31.1476 63.954H63.1314C67.0652 63.954 70.2578 60.7648 70.2578 56.8276C70.2612 53.788 68.3538 51.1938 65.6712 50.1704Z" fill="#E0E0E0"/>
<path d="M147.574 96.5633C147.53 91.2627 143.222 86.9821 137.911 86.9821C136.633 86.9821 135.412 87.2337 134.294 87.6859C132.396 83.8031 128.408 81.1273 123.798 81.1273C118.218 81.1273 113.557 85.0407 112.398 90.2699C107.151 90.6065 103 94.9653 103 100.297C103 105.849 107.502 110.347 113.05 110.347H145.034C148.968 110.347 152.161 107.158 152.161 103.221C152.161 100.181 150.257 97.5867 147.574 96.5633Z" fill="#F5F5F5"/>
<path d="M116.947 65.2323C116.923 62.4851 114.689 60.2615 111.935 60.2615C111.272 60.2615 110.64 60.3907 110.058 60.6253C109.072 58.6125 107.005 57.2253 104.615 57.2253C101.721 57.2253 99.3041 59.2551 98.7023 61.9649C95.9823 62.1383 93.8267 64.4027 93.8267 67.1669C93.8267 70.0467 96.1625 72.3791 99.0389 72.3791H115.627C117.667 72.3791 119.323 70.7233 119.323 68.6833C119.327 67.1091 118.337 65.7627 116.947 65.2323Z" fill="#E0E0E0"/>
<path d="M140.342 35.3021C140.311 31.6709 137.36 28.7367 133.722 28.7367C132.845 28.7367 132.009 28.9101 131.244 29.2195C129.945 26.5607 127.211 24.7281 124.053 24.7281C120.231 24.7281 117.035 27.4073 116.243 30.9909C112.649 31.2221 109.803 34.2107 109.803 37.8623C109.803 41.6669 112.887 44.7507 116.692 44.7507H138.608C141.304 44.7507 143.49 42.5645 143.49 39.8683C143.484 37.7807 142.178 36.0025 140.342 35.3021Z" fill="#EBEBEB"/>
<path d="M70.0705 93.5747C70.0399 89.9435 67.0887 87.0093 63.4507 87.0093C62.5735 87.0093 61.7371 87.1827 60.9721 87.4921C59.6733 84.8333 56.9397 83.0007 53.7811 83.0007C49.9595 83.0007 46.7635 85.6799 45.9713 89.2635C42.3775 89.4947 39.5317 92.4833 39.5317 96.1349C39.5317 99.9395 42.6155 103.023 46.4201 103.023H68.3365C71.0327 103.023 73.2189 100.837 73.2189 98.1409C73.2121 96.0533 71.9065 94.2751 70.0705 93.5747Z" fill="#F5F5F5"/>
<path d="M44.5401 59.5204C44.4959 59.5204 44.4517 59.5 44.4211 59.4694C44.4041 59.4524 44.3905 59.4354 44.3837 59.415C44.3735 59.3946 44.3701 59.3708 44.3701 59.3504C44.3701 59.3266 44.3735 59.3062 44.3837 59.2824C44.3905 59.262 44.4041 59.245 44.4211 59.228C44.4653 59.1838 44.5401 59.1668 44.6047 59.1906C44.6251 59.2008 44.6455 59.2144 44.6591 59.228C44.6931 59.262 44.7101 59.3028 44.7101 59.3504C44.7101 59.3708 44.7067 59.3946 44.6965 59.415C44.6897 59.4354 44.6761 59.4524 44.6591 59.4694C44.6285 59.5 44.5843 59.5204 44.5401 59.5204Z" fill="#E0E0E0"/>
<path d="M44.3701 66.8439C44.3701 66.7487 44.4483 66.6739 44.5401 66.6739C44.6353 66.6739 44.7101 66.7487 44.7101 66.8439C44.7101 66.9391 44.6353 67.0139 44.5401 67.0139C44.4483 67.0139 44.3701 66.9391 44.3701 66.8439ZM44.3701 64.9705C44.3701 64.8753 44.4483 64.8005 44.5401 64.8005C44.6353 64.8005 44.7101 64.8753 44.7101 64.9705C44.7101 65.0623 44.6353 65.1405 44.5401 65.1405C44.4483 65.1405 44.3701 65.0623 44.3701 64.9705ZM44.3701 63.0971C44.3701 63.0019 44.4483 62.9271 44.5401 62.9271C44.6353 62.9271 44.7101 63.0019 44.7101 63.0971C44.7101 63.1889 44.6353 63.2671 44.5401 63.2671C44.4483 63.2671 44.3701 63.1889 44.3701 63.0971ZM44.3701 61.2237C44.3701 61.1285 44.4483 61.0537 44.5401 61.0537C44.6353 61.0537 44.7101 61.1285 44.7101 61.2237C44.7101 61.3155 44.6353 61.3937 44.5401 61.3937C44.4483 61.3937 44.3701 61.3155 44.3701 61.2237Z" fill="#E0E0E0"/>
<path d="M44.5401 68.8874C44.5197 68.8874 44.4959 68.884 44.4755 68.8738C44.4551 68.867 44.4347 68.8534 44.4211 68.8364C44.4041 68.8228 44.3905 68.8024 44.3837 68.782C44.3735 68.7616 44.3701 68.7412 44.3701 68.7174C44.3701 68.697 44.3735 68.6732 44.3837 68.6528C44.3905 68.6324 44.4041 68.612 44.4211 68.5984C44.4347 68.5814 44.4551 68.5712 44.4755 68.561C44.5163 68.544 44.5639 68.544 44.6047 68.561C44.6251 68.5712 44.6455 68.5814 44.6591 68.5984C44.6761 68.612 44.6897 68.6324 44.6965 68.6528C44.7067 68.6732 44.7101 68.697 44.7101 68.7174C44.7101 68.7616 44.6931 68.8058 44.6591 68.8364C44.6455 68.8534 44.6251 68.867 44.6047 68.8738C44.5843 68.884 44.5639 68.8874 44.5401 68.8874Z" fill="#E0E0E0"/>
<path d="M75.5382 68.7174C75.5382 68.6256 75.613 68.5474 75.7048 68.5474C75.8 68.5474 75.8782 68.6256 75.8782 68.7174C75.8782 68.8126 75.8 68.8874 75.7048 68.8874C75.613 68.8874 75.5382 68.8126 75.5382 68.7174ZM73.4608 68.7174C73.4608 68.6256 73.5356 68.5474 73.6308 68.5474C73.7226 68.5474 73.7974 68.6256 73.7974 68.7174C73.7974 68.8126 73.7226 68.8874 73.6308 68.8874C73.5356 68.8874 73.4608 68.8126 73.4608 68.7174ZM71.3834 68.7174C71.3834 68.6256 71.4582 68.5474 71.5534 68.5474C71.6452 68.5474 71.7234 68.6256 71.7234 68.7174C71.7234 68.8126 71.6452 68.8874 71.5534 68.8874C71.4582 68.8874 71.3834 68.8126 71.3834 68.7174ZM69.3026 68.7174C69.3026 68.6256 69.3808 68.5474 69.4726 68.5474C69.5678 68.5474 69.6426 68.6256 69.6426 68.7174C69.6426 68.8126 69.5678 68.8874 69.4726 68.8874C69.3808 68.8874 69.3026 68.8126 69.3026 68.7174ZM67.2252 68.7174C67.2252 68.6256 67.3034 68.5474 67.3952 68.5474C67.4904 68.5474 67.5652 68.6256 67.5652 68.7174C67.5652 68.8126 67.4904 68.8874 67.3952 68.8874C67.3034 68.8874 67.2252 68.8126 67.2252 68.7174ZM65.1478 68.7174C65.1478 68.6256 65.2226 68.5474 65.3178 68.5474C65.413 68.5474 65.4878 68.6256 65.4878 68.7174C65.4878 68.8126 65.413 68.8874 65.3178 68.8874C65.2226 68.8874 65.1478 68.8126 65.1478 68.7174ZM63.0704 68.7174C63.0704 68.6256 63.1452 68.5474 63.2404 68.5474C63.3356 68.5474 63.4104 68.6256 63.4104 68.7174C63.4104 68.8126 63.3356 68.8874 63.2404 68.8874C63.1452 68.8874 63.0704 68.8126 63.0704 68.7174ZM60.993 68.7174C60.993 68.6256 61.0678 68.5474 61.163 68.5474C61.2548 68.5474 61.333 68.6256 61.333 68.7174C61.333 68.8126 61.2548 68.8874 61.163 68.8874C61.0678 68.8874 60.993 68.8126 60.993 68.7174ZM58.9156 68.7174C58.9156 68.6256 58.9904 68.5474 59.0856 68.5474C59.1774 68.5474 59.2556 68.6256 59.2556 68.7174C59.2556 68.8126 59.1774 68.8874 59.0856 68.8874C58.9904 68.8874 58.9156 68.8126 58.9156 68.7174ZM56.8382 68.7174C56.8382 68.6256 56.913 68.5474 57.0082 68.5474C57.1 68.5474 57.1782 68.6256 57.1782 68.7174C57.1782 68.8126 57.1 68.8874 57.0082 68.8874C56.913 68.8874 56.8382 68.8126 56.8382 68.7174ZM54.7574 68.7174C54.7574 68.6256 54.8356 68.5474 54.9274 68.5474C55.0226 68.5474 55.1008 68.6256 55.1008 68.7174C55.1008 68.8126 55.0226 68.8874 54.9274 68.8874C54.8356 68.8874 54.7574 68.8126 54.7574 68.7174ZM52.6834 68.7174C52.6834 68.6256 52.7582 68.5474 52.8534 68.5474C52.9452 68.5474 53.02 68.6256 53.02 68.7174C53.02 68.8126 52.9452 68.8874 52.8534 68.8874C52.7582 68.8874 52.6834 68.8126 52.6834 68.7174ZM50.6026 68.7174C50.6026 68.6256 50.6808 68.5474 50.7726 68.5474C50.8678 68.5474 50.9426 68.6256 50.9426 68.7174C50.9426 68.8126 50.8678 68.8874 50.7726 68.8874C50.6808 68.8874 50.6026 68.8126 50.6026 68.7174ZM48.5252 68.7174C48.5252 68.6256 48.6034 68.5474 48.6952 68.5474C48.7904 68.5474 48.8652 68.6256 48.8652 68.7174C48.8652 68.8126 48.7904 68.8874 48.6952 68.8874C48.6034 68.8874 48.5252 68.8126 48.5252 68.7174ZM46.4478 68.7174C46.4478 68.6256 46.526 68.5474 46.6178 68.5474C46.713 68.5474 46.7878 68.6256 46.7878 68.7174C46.7878 68.8126 46.713 68.8874 46.6178 68.8874C46.526 68.8874 46.4478 68.8126 46.4478 68.7174Z" fill="#E0E0E0"/>
<path d="M77.7852 68.8874C77.7614 68.8874 77.741 68.884 77.7206 68.8738C77.7002 68.867 77.6798 68.8534 77.6628 68.8364C77.6492 68.8228 77.6356 68.8024 77.6288 68.782C77.6186 68.7616 77.6152 68.7412 77.6152 68.7174C77.6152 68.697 77.6186 68.6732 77.6288 68.6528C77.6356 68.6324 77.6492 68.612 77.6628 68.5984C77.6798 68.5814 77.7002 68.5678 77.7206 68.561C77.7614 68.544 77.809 68.544 77.8498 68.561C77.8702 68.5678 77.8906 68.5814 77.9042 68.5984C77.9178 68.612 77.9314 68.6324 77.9416 68.6528C77.9484 68.6732 77.9552 68.697 77.9552 68.7174C77.9552 68.7616 77.9348 68.8058 77.9042 68.8364C77.8906 68.8534 77.8702 68.867 77.8498 68.8738C77.8294 68.884 77.8056 68.8874 77.7852 68.8874Z" fill="#E0E0E0"/>
<path d="M77.6152 66.6944C77.6152 66.5992 77.69 66.5244 77.7852 66.5244C77.877 66.5244 77.9552 66.5992 77.9552 66.6944C77.9552 66.7862 77.877 66.8644 77.7852 66.8644C77.69 66.8644 77.6152 66.7862 77.6152 66.6944ZM77.6152 64.668C77.6152 64.5728 77.69 64.498 77.7852 64.498C77.877 64.498 77.9552 64.5728 77.9552 64.668C77.9552 64.7632 77.877 64.838 77.7852 64.838C77.69 64.838 77.6152 64.7632 77.6152 64.668ZM77.6152 62.6416C77.6152 62.5498 77.69 62.4716 77.7852 62.4716C77.877 62.4716 77.9552 62.5498 77.9552 62.6416C77.9552 62.7368 77.877 62.8116 77.7852 62.8116C77.69 62.8116 77.6152 62.7368 77.6152 62.6416ZM77.6152 60.6186C77.6152 60.5234 77.69 60.4486 77.7852 60.4486C77.877 60.4486 77.9552 60.5234 77.9552 60.6186C77.9552 60.7138 77.877 60.7886 77.7852 60.7886C77.69 60.7886 77.6152 60.7138 77.6152 60.6186ZM77.6152 58.5922C77.6152 58.5004 77.69 58.4222 77.7852 58.4222C77.877 58.4222 77.9552 58.5004 77.9552 58.5922C77.9552 58.6874 77.877 58.7622 77.7852 58.7622C77.69 58.7622 77.6152 58.6874 77.6152 58.5922ZM77.6152 56.5692C77.6152 56.474 77.69 56.3992 77.7852 56.3992C77.877 56.3992 77.9552 56.474 77.9552 56.5692C77.9552 56.661 77.877 56.7392 77.7852 56.7392C77.69 56.7392 77.6152 56.661 77.6152 56.5692ZM77.6152 54.5428C77.6152 54.451 77.69 54.3728 77.7852 54.3728C77.877 54.3728 77.9552 54.451 77.9552 54.5428C77.9552 54.638 77.877 54.7128 77.7852 54.7128C77.69 54.7128 77.6152 54.638 77.6152 54.5428ZM77.6152 52.5198C77.6152 52.4246 77.69 52.3498 77.7852 52.3498C77.877 52.3498 77.9552 52.4246 77.9552 52.5198C77.9552 52.6116 77.877 52.6898 77.7852 52.6898C77.69 52.6898 77.6152 52.6116 77.6152 52.5198ZM77.6152 50.4934C77.6152 50.3982 77.69 50.3234 77.7852 50.3234C77.877 50.3234 77.9552 50.3982 77.9552 50.4934C77.9552 50.5886 77.877 50.6634 77.7852 50.6634C77.69 50.6634 77.6152 50.5886 77.6152 50.4934Z" fill="#E0E0E0"/>
<path d="M77.7852 48.6404C77.7614 48.6404 77.741 48.6336 77.7206 48.6268C77.7002 48.6166 77.6798 48.603 77.6628 48.5894C77.6492 48.5724 77.6356 48.5554 77.6288 48.535C77.6186 48.5146 77.6152 48.4908 77.6152 48.4704C77.6152 48.4466 77.6186 48.4262 77.6288 48.4024C77.6356 48.382 77.6492 48.365 77.6628 48.348C77.6798 48.3344 77.7002 48.3208 77.7206 48.3106C77.7614 48.2936 77.809 48.2936 77.8498 48.3106C77.8702 48.3208 77.8906 48.3344 77.9042 48.348C77.9348 48.382 77.9552 48.4262 77.9552 48.4704C77.9552 48.5146 77.9348 48.5588 77.9042 48.5894C77.8736 48.62 77.8294 48.6404 77.7852 48.6404Z" fill="#E0E0E0"/>
<path d="M124.437 48.4704C124.437 48.3752 124.511 48.297 124.607 48.297C124.698 48.297 124.777 48.3752 124.777 48.4704C124.777 48.5622 124.698 48.6404 124.607 48.6404C124.511 48.6404 124.437 48.5622 124.437 48.4704ZM122.4 48.4704C122.4 48.3752 122.475 48.297 122.57 48.297C122.665 48.297 122.74 48.3752 122.74 48.4704C122.74 48.5622 122.665 48.6404 122.57 48.6404C122.475 48.6404 122.4 48.5622 122.4 48.4704ZM120.363 48.4704C120.363 48.3752 120.442 48.297 120.533 48.297C120.629 48.297 120.703 48.3752 120.703 48.4704C120.703 48.5622 120.629 48.6404 120.533 48.6404C120.442 48.6404 120.363 48.5622 120.363 48.4704ZM118.33 48.4704C118.33 48.3752 118.405 48.297 118.5 48.297C118.592 48.297 118.667 48.3752 118.667 48.4704C118.667 48.5622 118.592 48.6404 118.5 48.6404C118.405 48.6404 118.33 48.5622 118.33 48.4704ZM116.294 48.4704C116.294 48.3752 116.368 48.297 116.464 48.297C116.555 48.297 116.634 48.3752 116.634 48.4704C116.634 48.5622 116.555 48.6404 116.464 48.6404C116.368 48.6404 116.294 48.5622 116.294 48.4704ZM114.257 48.4704C114.257 48.3752 114.332 48.297 114.427 48.297C114.522 48.297 114.597 48.3752 114.597 48.4704C114.597 48.5622 114.522 48.6404 114.427 48.6404C114.332 48.6404 114.257 48.5622 114.257 48.4704ZM112.22 48.4704C112.22 48.3752 112.299 48.297 112.39 48.297C112.486 48.297 112.56 48.3752 112.56 48.4704C112.56 48.5622 112.486 48.6404 112.39 48.6404C112.299 48.6404 112.22 48.5622 112.22 48.4704ZM110.187 48.4704C110.187 48.3752 110.262 48.297 110.357 48.297C110.449 48.297 110.527 48.3752 110.527 48.4704C110.527 48.5622 110.449 48.6404 110.357 48.6404C110.262 48.6404 110.187 48.5622 110.187 48.4704ZM108.151 48.4704C108.151 48.3752 108.225 48.297 108.321 48.297C108.412 48.297 108.491 48.3752 108.491 48.4704C108.491 48.5622 108.412 48.6404 108.321 48.6404C108.225 48.6404 108.151 48.5622 108.151 48.4704ZM106.114 48.4704C106.114 48.3752 106.192 48.297 106.284 48.297C106.379 48.297 106.454 48.3752 106.454 48.4704C106.454 48.5622 106.379 48.6404 106.284 48.6404C106.192 48.6404 106.114 48.5622 106.114 48.4704ZM104.077 48.4704C104.077 48.3752 104.156 48.297 104.251 48.297C104.343 48.297 104.417 48.3752 104.417 48.4704C104.417 48.5622 104.343 48.6404 104.251 48.6404C104.156 48.6404 104.077 48.5622 104.077 48.4704ZM102.044 48.4704C102.044 48.3752 102.119 48.297 102.214 48.297C102.306 48.297 102.384 48.3752 102.384 48.4704C102.384 48.5622 102.306 48.6404 102.214 48.6404C102.119 48.6404 102.044 48.5622 102.044 48.4704ZM100.008 48.4704C100.008 48.3752 100.082 48.297 100.178 48.297C100.273 48.297 100.348 48.3752 100.348 48.4704C100.348 48.5622 100.273 48.6404 100.178 48.6404C100.082 48.6404 100.008 48.5622 100.008 48.4704ZM97.9711 48.4704C97.9711 48.3752 98.0493 48.297 98.1411 48.297C98.2363 48.297 98.3111 48.3752 98.3111 48.4704C98.3111 48.5622 98.2363 48.6404 98.1411 48.6404C98.0493 48.6404 97.9711 48.5622 97.9711 48.4704ZM95.9345 48.4704C95.9345 48.3752 96.0127 48.297 96.1045 48.297C96.1997 48.297 96.2779 48.3752 96.2779 48.4704C96.2779 48.5622 96.1997 48.6404 96.1045 48.6404C96.0127 48.6404 95.9345 48.5622 95.9345 48.4704ZM93.9013 48.4704C93.9013 48.3752 93.9761 48.297 94.0713 48.297C94.1631 48.297 94.2413 48.3752 94.2413 48.4704C94.2413 48.5622 94.1631 48.6404 94.0713 48.6404C93.9761 48.6404 93.9013 48.5622 93.9013 48.4704ZM91.8647 48.4704C91.8647 48.3752 91.9395 48.297 92.0347 48.297C92.1265 48.297 92.2047 48.3752 92.2047 48.4704C92.2047 48.5622 92.1265 48.6404 92.0347 48.6404C91.9395 48.6404 91.8647 48.5622 91.8647 48.4704ZM89.8281 48.4704C89.8281 48.3752 89.9063 48.297 89.9981 48.297C90.0933 48.297 90.1681 48.3752 90.1681 48.4704C90.1681 48.5622 90.0933 48.6404 89.9981 48.6404C89.9063 48.6404 89.8281 48.5622 89.8281 48.4704ZM87.7949 48.4704C87.7949 48.3752 87.8697 48.297 87.9649 48.297C88.0567 48.297 88.1315 48.3752 88.1315 48.4704C88.1315 48.5622 88.0567 48.6404 87.9649 48.6404C87.8697 48.6404 87.7949 48.5622 87.7949 48.4704ZM85.7583 48.4704C85.7583 48.3752 85.8331 48.297 85.9283 48.297C86.0201 48.297 86.0983 48.3752 86.0983 48.4704C86.0983 48.5622 86.0201 48.6404 85.9283 48.6404C85.8331 48.6404 85.7583 48.5622 85.7583 48.4704ZM83.7217 48.4704C83.7217 48.3752 83.7965 48.297 83.8917 48.297C83.9869 48.297 84.0617 48.3752 84.0617 48.4704C84.0617 48.5622 83.9869 48.6404 83.8917 48.6404C83.7965 48.6404 83.7217 48.5622 83.7217 48.4704ZM81.6851 48.4704C81.6851 48.3752 81.7633 48.297 81.8551 48.297C81.9503 48.297 82.0251 48.3752 82.0251 48.4704C82.0251 48.5622 81.9503 48.6404 81.8551 48.6404C81.7633 48.6404 81.6851 48.5622 81.6851 48.4704ZM79.6519 48.4704C79.6519 48.3752 79.7267 48.297 79.8219 48.297C79.9137 48.297 79.9919 48.3752 79.9919 48.4704C79.9919 48.5622 79.9137 48.6404 79.8219 48.6404C79.7267 48.6404 79.6519 48.5622 79.6519 48.4704Z" fill="#E0E0E0"/>
<path d="M126.643 48.6403C126.596 48.6403 126.551 48.6199 126.521 48.5893C126.49 48.5553 126.473 48.5145 126.473 48.4703C126.473 48.4261 126.49 48.3819 126.521 48.3479C126.538 48.3343 126.555 48.3207 126.575 48.3105C126.64 48.2867 126.718 48.3003 126.762 48.3479C126.776 48.3649 126.789 48.3819 126.8 48.4057C126.806 48.4261 126.81 48.4465 126.81 48.4703C126.81 48.5145 126.793 48.5587 126.762 48.5893C126.732 48.6199 126.687 48.6403 126.643 48.6403Z" fill="#E0E0E0"/>
<path d="M126.47 46.5051C126.47 46.4133 126.548 46.3385 126.64 46.3385C126.735 46.3385 126.813 46.4133 126.813 46.5051C126.813 46.6003 126.735 46.6751 126.64 46.6751C126.548 46.6751 126.47 46.6003 126.47 46.5051ZM126.47 44.5433C126.47 44.4515 126.548 44.3733 126.64 44.3733C126.735 44.3733 126.813 44.4515 126.813 44.5433C126.813 44.6385 126.735 44.7167 126.64 44.7167C126.548 44.7167 126.47 44.6385 126.47 44.5433ZM126.47 42.5815C126.47 42.4897 126.548 42.4115 126.64 42.4115C126.735 42.4115 126.813 42.4897 126.813 42.5815C126.813 42.6767 126.735 42.7515 126.64 42.7515C126.548 42.7515 126.47 42.6767 126.47 42.5815ZM126.47 40.6197C126.47 40.5279 126.548 40.4497 126.64 40.4497C126.735 40.4497 126.813 40.5279 126.813 40.6197C126.813 40.7149 126.735 40.7897 126.64 40.7897C126.548 40.7897 126.47 40.7149 126.47 40.6197ZM126.47 38.6579C126.47 38.5661 126.548 38.4879 126.64 38.4879C126.735 38.4879 126.813 38.5661 126.813 38.6579C126.813 38.7531 126.735 38.8279 126.64 38.8279C126.548 38.8279 126.47 38.7531 126.47 38.6579ZM126.47 36.6961C126.47 36.6043 126.548 36.5261 126.64 36.5261C126.735 36.5261 126.813 36.6043 126.813 36.6961C126.813 36.7913 126.735 36.8661 126.64 36.8661C126.548 36.8661 126.47 36.7913 126.47 36.6961Z" fill="#E0E0E0"/>
<path d="M126.643 34.9043C126.596 34.9043 126.555 34.8873 126.521 34.8533C126.49 34.8227 126.473 34.7785 126.473 34.7343C126.473 34.7105 126.477 34.6901 126.483 34.6697C126.494 34.6493 126.507 34.6289 126.521 34.6153C126.585 34.5507 126.701 34.5507 126.762 34.6153C126.793 34.6459 126.81 34.6901 126.81 34.7343C126.81 34.7581 126.806 34.7785 126.8 34.7989C126.789 34.8193 126.776 34.8397 126.762 34.8533C126.745 34.8703 126.728 34.8839 126.708 34.8907C126.687 34.9009 126.664 34.9043 126.643 34.9043Z" fill="#E0E0E0"/>
<path d="M56.3721 98.8822C56.3245 98.8822 56.2803 98.8652 56.2497 98.8346C56.2327 98.8176 56.2225 98.8006 56.2123 98.7768C56.2055 98.7564 56.1987 98.736 56.1987 98.7122C56.1987 98.668 56.2191 98.6238 56.2497 98.5932C56.2973 98.5456 56.3721 98.532 56.4367 98.5558C56.4571 98.566 56.4741 98.5762 56.4911 98.5932C56.5217 98.6238 56.5387 98.668 56.5387 98.7122C56.5387 98.736 56.5353 98.7564 56.5285 98.7768C56.5183 98.8006 56.5047 98.8176 56.4911 98.8346C56.4741 98.8482 56.4571 98.8618 56.4367 98.8686C56.4163 98.8788 56.3925 98.8822 56.3721 98.8822Z" fill="#E0E0E0"/>
<path d="M56.2021 107.056C56.2021 106.961 56.2769 106.886 56.3721 106.886C56.4639 106.886 56.5387 106.961 56.5387 107.056C56.5387 107.148 56.4639 107.226 56.3721 107.226C56.2769 107.226 56.2021 107.148 56.2021 107.056ZM56.2021 104.968C56.2021 104.876 56.2769 104.798 56.3721 104.798C56.4639 104.798 56.5387 104.876 56.5387 104.968C56.5387 105.063 56.4639 105.138 56.3721 105.138C56.2769 105.138 56.2021 105.063 56.2021 104.968ZM56.2021 102.884C56.2021 102.792 56.2769 102.714 56.3721 102.714C56.4639 102.714 56.5387 102.792 56.5387 102.884C56.5387 102.976 56.4639 103.054 56.3721 103.054C56.2769 103.054 56.2021 102.976 56.2021 102.884ZM56.2021 100.8C56.2021 100.705 56.2769 100.63 56.3721 100.63C56.4639 100.63 56.5387 100.705 56.5387 100.8C56.5387 100.892 56.4639 100.97 56.3721 100.97C56.2769 100.97 56.2021 100.892 56.2021 100.8Z" fill="#E0E0E0"/>
<path d="M56.3721 109.31C56.3245 109.31 56.2803 109.293 56.2497 109.259C56.2327 109.245 56.2225 109.225 56.2123 109.205C56.2055 109.184 56.1987 109.164 56.1987 109.14C56.1987 109.12 56.2055 109.096 56.2123 109.075C56.2225 109.055 56.2327 109.035 56.2497 109.021C56.2973 108.973 56.3721 108.956 56.4367 108.984C56.4571 108.99 56.4741 109.004 56.4911 109.021C56.5047 109.035 56.5183 109.055 56.5285 109.075C56.5353 109.096 56.5387 109.12 56.5387 109.14C56.5387 109.164 56.5353 109.184 56.5285 109.205C56.5183 109.225 56.5047 109.245 56.4911 109.259C56.4741 109.276 56.4571 109.29 56.4367 109.296C56.4163 109.307 56.3925 109.31 56.3721 109.31Z" fill="#E0E0E0"/>
<path d="M75.6672 109.14C75.6672 109.045 75.7454 108.97 75.8372 108.97C75.9324 108.97 76.0072 109.045 76.0072 109.14C76.0072 109.235 75.9324 109.31 75.8372 109.31C75.7454 109.31 75.6672 109.235 75.6672 109.14ZM73.7224 109.14C73.7224 109.045 73.7972 108.97 73.8924 108.97C73.9842 108.97 74.0624 109.045 74.0624 109.14C74.0624 109.235 73.9842 109.31 73.8924 109.31C73.7972 109.31 73.7224 109.235 73.7224 109.14ZM71.7742 109.14C71.7742 109.045 71.8524 108.97 71.9442 108.97C72.0394 108.97 72.1142 109.045 72.1142 109.14C72.1142 109.235 72.0394 109.31 71.9442 109.31C71.8524 109.31 71.7742 109.235 71.7742 109.14ZM69.8294 109.14C69.8294 109.045 69.9042 108.97 69.9994 108.97C70.0912 108.97 70.1694 109.045 70.1694 109.14C70.1694 109.235 70.0912 109.31 69.9994 109.31C69.9042 109.31 69.8294 109.235 69.8294 109.14ZM67.8812 109.14C67.8812 109.045 67.956 108.97 68.0512 108.97C68.143 108.97 68.2212 109.045 68.2212 109.14C68.2212 109.235 68.143 109.31 68.0512 109.31C67.956 109.31 67.8812 109.235 67.8812 109.14ZM65.933 109.14C65.933 109.045 66.0112 108.97 66.1064 108.97C66.1982 108.97 66.273 109.045 66.273 109.14C66.273 109.235 66.1982 109.31 66.1064 109.31C66.0112 109.31 65.933 109.235 65.933 109.14ZM63.9882 109.14C63.9882 109.045 64.063 108.97 64.1582 108.97C64.25 108.97 64.3282 109.045 64.3282 109.14C64.3282 109.235 64.25 109.31 64.1582 109.31C64.063 109.31 63.9882 109.235 63.9882 109.14ZM62.04 109.14C62.04 109.045 62.1182 108.97 62.21 108.97C62.3052 108.97 62.38 109.045 62.38 109.14C62.38 109.235 62.3052 109.31 62.21 109.31C62.1182 109.31 62.04 109.235 62.04 109.14ZM60.0952 109.14C60.0952 109.045 60.17 108.97 60.2652 108.97C60.357 108.97 60.4352 109.045 60.4352 109.14C60.4352 109.235 60.357 109.31 60.2652 109.31C60.17 109.31 60.0952 109.235 60.0952 109.14ZM58.147 109.14C58.147 109.045 58.2252 108.97 58.317 108.97C58.4122 108.97 58.487 109.045 58.487 109.14C58.487 109.235 58.4122 109.31 58.317 109.31C58.2252 109.31 58.147 109.235 58.147 109.14Z" fill="#E0E0E0"/>
<path d="M77.7852 109.31C77.7614 109.31 77.741 109.307 77.7206 109.296C77.7002 109.29 77.6798 109.276 77.6628 109.259C77.6492 109.245 77.6356 109.225 77.6288 109.205C77.6186 109.184 77.6152 109.164 77.6152 109.14C77.6152 109.096 77.6322 109.052 77.6628 109.021C77.6798 109.004 77.7002 108.99 77.7206 108.984C77.7614 108.967 77.809 108.967 77.8498 108.984C77.8702 108.99 77.8906 109.004 77.9042 109.021C77.9348 109.052 77.9552 109.096 77.9552 109.14C77.9552 109.16 77.9518 109.184 77.9416 109.205C77.9314 109.225 77.9212 109.245 77.9042 109.259C77.8906 109.276 77.8702 109.29 77.8498 109.296C77.8294 109.307 77.8056 109.31 77.7852 109.31Z" fill="#E0E0E0"/>
<path d="M77.6152 107.161C77.6152 107.066 77.69 106.991 77.7852 106.991C77.877 106.991 77.9552 107.066 77.9552 107.161C77.9552 107.253 77.877 107.331 77.7852 107.331C77.69 107.331 77.6152 107.253 77.6152 107.161ZM77.6152 105.182C77.6152 105.087 77.69 105.009 77.7852 105.009C77.877 105.009 77.9552 105.087 77.9552 105.182C77.9552 105.274 77.877 105.352 77.7852 105.352C77.69 105.352 77.6152 105.274 77.6152 105.182ZM77.6152 103.2C77.6152 103.108 77.69 103.03 77.7852 103.03C77.877 103.03 77.9552 103.108 77.9552 103.2C77.9552 103.295 77.877 103.37 77.7852 103.37C77.69 103.37 77.6152 103.295 77.6152 103.2ZM77.6152 101.221C77.6152 101.13 77.69 101.051 77.7852 101.051C77.877 101.051 77.9552 101.13 77.9552 101.221C77.9552 101.317 77.877 101.391 77.7852 101.391C77.69 101.391 77.6152 101.317 77.6152 101.221ZM77.6152 99.2426C77.6152 99.1474 77.69 99.0726 77.7852 99.0726C77.877 99.0726 77.9552 99.1474 77.9552 99.2426C77.9552 99.3344 77.877 99.4126 77.7852 99.4126C77.69 99.4126 77.6152 99.3344 77.6152 99.2426ZM77.6152 97.2638C77.6152 97.1686 77.69 97.0938 77.7852 97.0938C77.877 97.0938 77.9552 97.1686 77.9552 97.2638C77.9552 97.3556 77.877 97.4338 77.7852 97.4338C77.69 97.4338 77.6152 97.3556 77.6152 97.2638ZM77.6152 95.285C77.6152 95.1898 77.69 95.115 77.7852 95.115C77.877 95.115 77.9552 95.1898 77.9552 95.285C77.9552 95.3768 77.877 95.455 77.7852 95.455C77.69 95.455 77.6152 95.3768 77.6152 95.285ZM77.6152 93.3028C77.6152 93.211 77.69 93.1328 77.7852 93.1328C77.877 93.1328 77.9552 93.211 77.9552 93.3028C77.9552 93.398 77.877 93.4728 77.7852 93.4728C77.69 93.4728 77.6152 93.398 77.6152 93.3028ZM77.6152 91.324C77.6152 91.2288 77.69 91.154 77.7852 91.154C77.877 91.154 77.9552 91.2288 77.9552 91.324C77.9552 91.4192 77.877 91.494 77.7852 91.494C77.69 91.494 77.6152 91.4192 77.6152 91.324ZM77.6152 89.3452C77.6152 89.25 77.69 89.1752 77.7852 89.1752C77.877 89.1752 77.9552 89.25 77.9552 89.3452C77.9552 89.437 77.877 89.5152 77.7852 89.5152C77.69 89.5152 77.6152 89.437 77.6152 89.3452ZM77.6152 87.3664C77.6152 87.2712 77.69 87.1964 77.7852 87.1964C77.877 87.1964 77.9552 87.2712 77.9552 87.3664C77.9552 87.4582 77.877 87.5364 77.7852 87.5364C77.69 87.5364 77.6152 87.4582 77.6152 87.3664ZM77.6152 85.3842C77.6152 85.2924 77.69 85.2142 77.7852 85.2142C77.877 85.2142 77.9552 85.2924 77.9552 85.3842C77.9552 85.4794 77.877 85.5542 77.7852 85.5542C77.69 85.5542 77.6152 85.4794 77.6152 85.3842ZM77.6152 83.4054C77.6152 83.3102 77.69 83.2354 77.7852 83.2354C77.877 83.2354 77.9552 83.3102 77.9552 83.4054C77.9552 83.5006 77.877 83.5754 77.7852 83.5754C77.69 83.5754 77.6152 83.5006 77.6152 83.4054ZM77.6152 81.4266C77.6152 81.3314 77.69 81.2566 77.7852 81.2566C77.877 81.2566 77.9552 81.3314 77.9552 81.4266C77.9552 81.5218 77.877 81.5966 77.7852 81.5966C77.69 81.5966 77.6152 81.5218 77.6152 81.4266Z" fill="#E0E0E0"/>
<path d="M77.7852 79.6177C77.7614 79.6177 77.741 79.6109 77.7206 79.6041C77.7002 79.5939 77.6798 79.5837 77.6628 79.5667C77.6492 79.5497 77.6356 79.5327 77.6288 79.5123C77.6186 79.4919 77.6152 79.4681 77.6152 79.4477C77.6152 79.4001 77.6322 79.3593 77.6628 79.3253C77.6798 79.3117 77.7002 79.2981 77.7206 79.2913C77.7614 79.2743 77.809 79.2743 77.8498 79.2913C77.8702 79.2981 77.8906 79.3117 77.9042 79.3253C77.9348 79.3593 77.9552 79.4035 77.9552 79.4477C77.9552 79.4681 77.9518 79.4919 77.9416 79.5123C77.9314 79.5327 77.9212 79.5497 77.9042 79.5667C77.8906 79.5803 77.8702 79.5939 77.8498 79.6041C77.8294 79.6109 77.8056 79.6177 77.7852 79.6177Z" fill="#E0E0E0"/>
<path d="M104.35 79.4478C104.35 79.3526 104.428 79.2778 104.52 79.2778C104.615 79.2778 104.69 79.3526 104.69 79.4478C104.69 79.5396 104.615 79.6178 104.52 79.6178C104.428 79.6178 104.35 79.5396 104.35 79.4478ZM102.293 79.4478C102.293 79.3526 102.371 79.2778 102.463 79.2778C102.558 79.2778 102.636 79.3526 102.636 79.4478C102.636 79.5396 102.558 79.6178 102.463 79.6178C102.371 79.6178 102.293 79.5396 102.293 79.4478ZM100.236 79.4478C100.236 79.3526 100.314 79.2778 100.406 79.2778C100.501 79.2778 100.576 79.3526 100.576 79.4478C100.576 79.5396 100.501 79.6178 100.406 79.6178C100.314 79.6178 100.236 79.5396 100.236 79.4478ZM98.182 79.4478C98.182 79.3526 98.2568 79.2778 98.3486 79.2778C98.4438 79.2778 98.5186 79.3526 98.5186 79.4478C98.5186 79.5396 98.4438 79.6178 98.3486 79.6178C98.2568 79.6178 98.182 79.5396 98.182 79.4478ZM96.125 79.4478C96.125 79.3526 96.1998 79.2778 96.295 79.2778C96.3868 79.2778 96.465 79.3526 96.465 79.4478C96.465 79.5396 96.3868 79.6178 96.295 79.6178C96.1998 79.6178 96.125 79.5396 96.125 79.4478ZM94.068 79.4478C94.068 79.3526 94.1428 79.2778 94.238 79.2778C94.3298 79.2778 94.408 79.3526 94.408 79.4478C94.408 79.5396 94.3298 79.6178 94.238 79.6178C94.1428 79.6178 94.068 79.5396 94.068 79.4478ZM92.011 79.4478C92.011 79.3526 92.0858 79.2778 92.181 79.2778C92.2728 79.2778 92.351 79.3526 92.351 79.4478C92.351 79.5396 92.2728 79.6178 92.181 79.6178C92.0858 79.6178 92.011 79.5396 92.011 79.4478ZM89.954 79.4478C89.954 79.3526 90.0322 79.2778 90.124 79.2778C90.2192 79.2778 90.294 79.3526 90.294 79.4478C90.294 79.5396 90.2192 79.6178 90.124 79.6178C90.0322 79.6178 89.954 79.5396 89.954 79.4478ZM87.897 79.4478C87.897 79.3526 87.9718 79.2778 88.067 79.2778C88.1622 79.2778 88.237 79.3526 88.237 79.4478C88.237 79.5396 88.1622 79.6178 88.067 79.6178C87.9718 79.6178 87.897 79.5396 87.897 79.4478ZM85.84 79.4478C85.84 79.3526 85.9182 79.2778 86.01 79.2778C86.1052 79.2778 86.18 79.3526 86.18 79.4478C86.18 79.5396 86.1052 79.6178 86.01 79.6178C85.9182 79.6178 85.84 79.5396 85.84 79.4478ZM83.783 79.4478C83.783 79.3526 83.8612 79.2778 83.953 79.2778C84.0482 79.2778 84.123 79.3526 84.123 79.4478C84.123 79.5396 84.0482 79.6178 83.953 79.6178C83.8612 79.6178 83.783 79.5396 83.783 79.4478ZM81.7294 79.4478C81.7294 79.3526 81.8042 79.2778 81.8994 79.2778C81.9912 79.2778 82.0694 79.3526 82.0694 79.4478C82.0694 79.5396 81.9912 79.6178 81.8994 79.6178C81.8042 79.6178 81.7294 79.5396 81.7294 79.4478ZM79.6724 79.4478C79.6724 79.3526 79.7472 79.2778 79.8424 79.2778C79.9342 79.2778 80.0124 79.3526 80.0124 79.4478C80.0124 79.5396 79.9342 79.6178 79.8424 79.6178C79.7472 79.6178 79.6724 79.5396 79.6724 79.4478Z" fill="#E0E0E0"/>
<path d="M106.577 79.6178C106.533 79.6178 106.488 79.5974 106.458 79.5668C106.441 79.5498 106.431 79.5328 106.42 79.5124C106.414 79.492 106.407 79.4682 106.407 79.4478C106.407 79.424 106.414 79.4036 106.42 79.3832C106.431 79.3594 106.441 79.3424 106.458 79.3254C106.471 79.3118 106.492 79.2982 106.512 79.2914C106.556 79.271 106.601 79.271 106.641 79.2914C106.662 79.2982 106.682 79.3118 106.699 79.3254C106.713 79.3424 106.726 79.3594 106.733 79.3832C106.743 79.4036 106.747 79.424 106.747 79.4478C106.747 79.492 106.73 79.5362 106.699 79.5668C106.665 79.5974 106.621 79.6178 106.577 79.6178Z" fill="#E0E0E0"/>
<path d="M106.407 77.3024C106.407 77.2071 106.485 77.1323 106.577 77.1323C106.672 77.1323 106.747 77.2071 106.747 77.3024C106.747 77.3941 106.672 77.4724 106.577 77.4724C106.485 77.4724 106.407 77.3941 106.407 77.3024ZM106.407 75.157C106.407 75.0618 106.485 74.987 106.577 74.987C106.672 74.987 106.747 75.0618 106.747 75.157C106.747 75.2488 106.672 75.3235 106.577 75.3235C106.485 75.3235 106.407 75.2488 106.407 75.157ZM106.407 73.0081C106.407 72.9163 106.485 72.8381 106.577 72.8381C106.672 72.8381 106.747 72.9163 106.747 73.0081C106.747 73.1033 106.672 73.1781 106.577 73.1781C106.485 73.1781 106.407 73.1033 106.407 73.0081ZM106.407 70.8627C106.407 70.7709 106.485 70.6927 106.577 70.6927C106.672 70.6927 106.747 70.7709 106.747 70.8627C106.747 70.9579 106.672 71.0327 106.577 71.0327C106.485 71.0327 106.407 70.9579 106.407 70.8627Z" fill="#E0E0E0"/>
<path d="M106.577 68.8874C106.533 68.8874 106.488 68.8704 106.458 68.8398C106.441 68.8228 106.431 68.8024 106.42 68.782C106.414 68.7616 106.407 68.7412 106.407 68.7174C106.407 68.697 106.414 68.6732 106.42 68.6528C106.431 68.6324 106.441 68.612 106.458 68.5984C106.471 68.5814 106.492 68.5712 106.512 68.561C106.556 68.544 106.601 68.544 106.641 68.561C106.665 68.5712 106.682 68.5814 106.699 68.5984C106.713 68.612 106.726 68.6324 106.733 68.6528C106.743 68.6732 106.747 68.697 106.747 68.7174C106.747 68.7616 106.73 68.8058 106.699 68.8398C106.665 68.8704 106.621 68.8874 106.577 68.8874Z" fill="#E0E0E0"/>
<path d="M126.643 106.478C126.596 106.478 126.551 106.457 126.521 106.427C126.49 106.396 126.473 106.352 126.473 106.308C126.473 106.264 126.49 106.219 126.521 106.185C126.568 106.141 126.643 106.124 126.708 106.151C126.728 106.158 126.745 106.172 126.762 106.185C126.776 106.202 126.789 106.219 126.8 106.243C126.806 106.264 126.81 106.284 126.81 106.308C126.81 106.352 126.793 106.396 126.762 106.427C126.732 106.457 126.687 106.478 126.643 106.478Z" fill="#E0E0E0"/>
<path d="M126.47 118.062C126.47 117.966 126.548 117.892 126.64 117.892C126.735 117.892 126.813 117.966 126.813 118.062C126.813 118.157 126.735 118.232 126.64 118.232C126.548 118.232 126.47 118.157 126.47 118.062ZM126.47 116.103C126.47 116.008 126.548 115.933 126.64 115.933C126.735 115.933 126.813 116.008 126.813 116.103C126.813 116.195 126.735 116.273 126.64 116.273C126.548 116.273 126.47 116.195 126.47 116.103ZM126.47 114.141C126.47 114.05 126.548 113.971 126.64 113.971C126.735 113.971 126.813 114.05 126.813 114.141C126.813 114.237 126.735 114.315 126.64 114.315C126.548 114.315 126.47 114.237 126.47 114.141ZM126.47 112.183C126.47 112.091 126.548 112.013 126.64 112.013C126.735 112.013 126.813 112.091 126.813 112.183C126.813 112.278 126.735 112.353 126.64 112.353C126.548 112.353 126.47 112.278 126.47 112.183ZM126.47 110.225C126.47 110.129 126.548 110.055 126.64 110.055C126.735 110.055 126.813 110.129 126.813 110.225C126.813 110.32 126.735 110.395 126.64 110.395C126.548 110.395 126.47 110.32 126.47 110.225ZM126.47 108.266C126.47 108.171 126.548 108.096 126.64 108.096C126.735 108.096 126.813 108.171 126.813 108.266C126.813 108.358 126.735 108.436 126.64 108.436C126.548 108.436 126.47 108.358 126.47 108.266Z" fill="#E0E0E0"/>
<path d="M126.643 120.19C126.596 120.19 126.555 120.173 126.521 120.139C126.49 120.108 126.473 120.064 126.473 120.02C126.473 119.996 126.477 119.976 126.483 119.955C126.494 119.935 126.507 119.915 126.521 119.901C126.585 119.836 126.701 119.836 126.762 119.901C126.793 119.932 126.81 119.976 126.81 120.02C126.81 120.04 126.806 120.064 126.8 120.085C126.789 120.105 126.776 120.125 126.762 120.139C126.745 120.156 126.728 120.17 126.708 120.176C126.687 120.187 126.664 120.19 126.643 120.19Z" fill="#E0E0E0"/>
<path d="M124.437 120.02C124.437 119.925 124.511 119.85 124.607 119.85C124.698 119.85 124.777 119.925 124.777 120.02C124.777 120.115 124.698 120.19 124.607 120.19C124.511 120.19 124.437 120.115 124.437 120.02ZM122.4 120.02C122.4 119.925 122.475 119.85 122.57 119.85C122.662 119.85 122.74 119.925 122.74 120.02C122.74 120.115 122.662 120.19 122.57 120.19C122.475 120.19 122.4 120.115 122.4 120.02ZM120.363 120.02C120.363 119.925 120.438 119.85 120.533 119.85C120.629 119.85 120.703 119.925 120.703 120.02C120.703 120.115 120.629 120.19 120.533 120.19C120.438 120.19 120.363 120.115 120.363 120.02ZM118.327 120.02C118.327 119.925 118.405 119.85 118.497 119.85C118.592 119.85 118.667 119.925 118.667 120.02C118.667 120.115 118.592 120.19 118.497 120.19C118.405 120.19 118.327 120.115 118.327 120.02ZM116.294 120.02C116.294 119.925 116.368 119.85 116.464 119.85C116.555 119.85 116.634 119.925 116.634 120.02C116.634 120.115 116.555 120.19 116.464 120.19C116.368 120.19 116.294 120.115 116.294 120.02ZM114.257 120.02C114.257 119.925 114.332 119.85 114.427 119.85C114.519 119.85 114.597 119.925 114.597 120.02C114.597 120.115 114.519 120.19 114.427 120.19C114.332 120.19 114.257 120.115 114.257 120.02ZM112.22 120.02C112.22 119.925 112.299 119.85 112.39 119.85C112.486 119.85 112.56 119.925 112.56 120.02C112.56 120.115 112.486 120.19 112.39 120.19C112.299 120.19 112.22 120.115 112.22 120.02ZM110.184 120.02C110.184 119.925 110.262 119.85 110.357 119.85C110.449 119.85 110.527 119.925 110.527 120.02C110.527 120.115 110.449 120.19 110.357 120.19C110.262 120.19 110.184 120.115 110.184 120.02ZM108.151 120.02C108.151 119.925 108.225 119.85 108.321 119.85C108.412 119.85 108.491 119.925 108.491 120.02C108.491 120.115 108.412 120.19 108.321 120.19C108.225 120.19 108.151 120.115 108.151 120.02ZM106.114 120.02C106.114 119.925 106.189 119.85 106.284 119.85C106.379 119.85 106.454 119.925 106.454 120.02C106.454 120.115 106.379 120.19 106.284 120.19C106.189 120.19 106.114 120.115 106.114 120.02ZM104.077 120.02C104.077 119.925 104.156 119.85 104.247 119.85C104.343 119.85 104.417 119.925 104.417 120.02C104.417 120.115 104.343 120.19 104.247 120.19C104.156 120.19 104.077 120.115 104.077 120.02ZM102.041 120.02C102.041 119.925 102.119 119.85 102.211 119.85C102.306 119.85 102.384 119.925 102.384 120.02C102.384 120.115 102.306 120.19 102.211 120.19C102.119 120.19 102.041 120.115 102.041 120.02ZM100.008 120.02C100.008 119.925 100.082 119.85 100.178 119.85C100.269 119.85 100.348 119.925 100.348 120.02C100.348 120.115 100.269 120.19 100.178 120.19C100.082 120.19 100.008 120.115 100.008 120.02ZM97.971 120.02C97.971 119.925 98.0492 119.85 98.141 119.85C98.2328 119.85 98.311 119.925 98.311 120.02C98.311 120.115 98.2328 120.19 98.141 120.19C98.0492 120.19 97.971 120.115 97.971 120.02ZM95.9344 120.02C95.9344 119.925 96.0126 119.85 96.1044 119.85C96.1996 119.85 96.2744 119.925 96.2744 120.02C96.2744 120.115 96.1996 120.19 96.1044 120.19C96.0126 120.19 95.9344 120.115 95.9344 120.02ZM93.9012 120.02C93.9012 119.925 93.976 119.85 94.0712 119.85C94.163 119.85 94.2412 119.925 94.2412 120.02C94.2412 120.115 94.163 120.19 94.0712 120.19C93.976 120.19 93.9012 120.115 93.9012 120.02ZM91.8646 120.02C91.8646 119.925 91.9394 119.85 92.0346 119.85C92.1264 119.85 92.2046 119.925 92.2046 120.02C92.2046 120.115 92.1264 120.19 92.0346 120.19C91.9394 120.19 91.8646 120.115 91.8646 120.02ZM89.828 120.02C89.828 119.925 89.9028 119.85 89.998 119.85C90.0932 119.85 90.168 119.925 90.168 120.02C90.168 120.115 90.0932 120.19 89.998 120.19C89.9028 120.19 89.828 120.115 89.828 120.02ZM87.7948 120.02C87.7948 119.925 87.8696 119.85 87.9614 119.85C88.0566 119.85 88.1314 119.925 88.1314 120.02C88.1314 120.115 88.0566 120.19 87.9614 120.19C87.8696 120.19 87.7948 120.115 87.7948 120.02ZM85.7582 120.02C85.7582 119.925 85.833 119.85 85.9282 119.85C86.02 119.85 86.0982 119.925 86.0982 120.02C86.0982 120.115 86.02 120.19 85.9282 120.19C85.833 120.19 85.7582 120.115 85.7582 120.02ZM83.7216 120.02C83.7216 119.925 83.7964 119.85 83.8916 119.85C83.9834 119.85 84.0616 119.925 84.0616 120.02C84.0616 120.115 83.9834 120.19 83.8916 120.19C83.7964 120.19 83.7216 120.115 83.7216 120.02ZM81.685 120.02C81.685 119.925 81.7632 119.85 81.855 119.85C81.9502 119.85 82.025 119.925 82.025 120.02C82.025 120.115 81.9502 120.19 81.855 120.19C81.7632 120.19 81.685 120.115 81.685 120.02ZM79.6484 120.02C79.6484 119.925 79.7266 119.85 79.8184 119.85C79.9136 119.85 79.9918 119.925 79.9918 120.02C79.9918 120.115 79.9136 120.19 79.8184 120.19C79.7266 120.19 79.6484 120.115 79.6484 120.02Z" fill="#E0E0E0"/>
<path d="M77.7852 120.19C77.7614 120.19 77.741 120.187 77.7206 120.176C77.7002 120.17 77.6798 120.156 77.6628 120.139C77.6492 120.125 77.6356 120.105 77.6288 120.085C77.6186 120.064 77.6152 120.04 77.6152 120.02C77.6152 120 77.6186 119.976 77.6288 119.955C77.6356 119.935 77.6492 119.915 77.6628 119.901C77.6798 119.884 77.7002 119.87 77.7206 119.864C77.7614 119.847 77.809 119.847 77.8498 119.864C77.8702 119.87 77.8906 119.884 77.9042 119.901C77.9178 119.915 77.9314 119.935 77.9416 119.955C77.9484 119.976 77.9552 120 77.9552 120.02C77.9552 120.04 77.9484 120.064 77.9416 120.085C77.9314 120.105 77.9178 120.125 77.9042 120.139C77.8906 120.156 77.8702 120.17 77.8498 120.176C77.8294 120.187 77.8056 120.19 77.7852 120.19Z" fill="#E0E0E0"/>
<path d="M77.6152 117.844C77.6152 117.749 77.69 117.674 77.7852 117.674C77.877 117.674 77.9552 117.749 77.9552 117.844C77.9552 117.939 77.877 118.014 77.7852 118.014C77.69 118.014 77.6152 117.939 77.6152 117.844ZM77.6152 115.668C77.6152 115.573 77.69 115.498 77.7852 115.498C77.877 115.498 77.9552 115.573 77.9552 115.668C77.9552 115.763 77.877 115.838 77.7852 115.838C77.69 115.838 77.6152 115.763 77.6152 115.668ZM77.6152 113.492C77.6152 113.397 77.69 113.322 77.7852 113.322C77.877 113.322 77.9552 113.397 77.9552 113.492C77.9552 113.587 77.877 113.662 77.7852 113.662C77.69 113.662 77.6152 113.587 77.6152 113.492ZM77.6152 111.316C77.6152 111.221 77.69 111.146 77.7852 111.146C77.877 111.146 77.9552 111.221 77.9552 111.316C77.9552 111.411 77.877 111.486 77.7852 111.486C77.69 111.486 77.6152 111.411 77.6152 111.316Z" fill="#E0E0E0"/>
<path d="M77.7852 109.31C77.7614 109.31 77.741 109.307 77.7206 109.296C77.7002 109.29 77.6798 109.276 77.6628 109.259C77.6492 109.245 77.6356 109.225 77.6288 109.205C77.6186 109.184 77.6152 109.164 77.6152 109.14C77.6152 109.096 77.6322 109.052 77.6628 109.021C77.6798 109.004 77.7002 108.99 77.7206 108.984C77.7614 108.967 77.809 108.967 77.8498 108.984C77.8702 108.99 77.8906 109.004 77.9042 109.021C77.9348 109.052 77.9552 109.096 77.9552 109.14C77.9552 109.16 77.9518 109.184 77.9416 109.205C77.9314 109.225 77.9212 109.245 77.9042 109.259C77.8906 109.276 77.8702 109.29 77.8498 109.296C77.8294 109.307 77.8056 109.31 77.7852 109.31Z" fill="#E0E0E0"/>
<path d="M77.7852 68.8874C77.7614 68.8874 77.741 68.884 77.7206 68.8738C77.7002 68.867 77.6798 68.8534 77.6628 68.8364C77.6492 68.8228 77.6356 68.8024 77.6288 68.782C77.6186 68.7616 77.6152 68.7412 77.6152 68.7174C77.6152 68.697 77.6186 68.6732 77.6288 68.6528C77.6356 68.6324 77.6492 68.612 77.6628 68.5984C77.6798 68.5814 77.7002 68.5678 77.7206 68.561C77.7614 68.544 77.809 68.544 77.8498 68.561C77.8702 68.5678 77.8906 68.5814 77.9042 68.5984C77.9178 68.612 77.9314 68.6324 77.9416 68.6528C77.9484 68.6732 77.9552 68.697 77.9552 68.7174C77.9552 68.7616 77.9348 68.8058 77.9042 68.8364C77.8906 68.8534 77.8702 68.867 77.8498 68.8738C77.8294 68.884 77.8056 68.8874 77.7852 68.8874Z" fill="#E0E0E0"/>
<path d="M77.6152 77.3024C77.6152 77.2071 77.69 77.129 77.7852 77.129C77.877 77.129 77.9552 77.2071 77.9552 77.3024C77.9552 77.3941 77.877 77.4724 77.7852 77.4724C77.69 77.4724 77.6152 77.3941 77.6152 77.3024ZM77.6152 75.157C77.6152 75.0618 77.69 74.987 77.7852 74.987C77.877 74.987 77.9552 75.0618 77.9552 75.157C77.9552 75.2488 77.877 75.327 77.7852 75.327C77.69 75.327 77.6152 75.2488 77.6152 75.157ZM77.6152 73.0081C77.6152 72.9163 77.69 72.8381 77.7852 72.8381C77.877 72.8381 77.9552 72.9163 77.9552 73.0081C77.9552 73.1033 77.877 73.1781 77.7852 73.1781C77.69 73.1781 77.6152 73.1033 77.6152 73.0081ZM77.6152 70.8627C77.6152 70.7709 77.69 70.6927 77.7852 70.6927C77.877 70.6927 77.9552 70.7709 77.9552 70.8627C77.9552 70.9579 77.877 71.0327 77.7852 71.0327C77.69 71.0327 77.6152 70.9579 77.6152 70.8627Z" fill="#E0E0E0"/>
<path d="M77.7852 79.6177C77.7614 79.6177 77.741 79.6109 77.7206 79.6041C77.7002 79.5939 77.6798 79.5837 77.6628 79.5667C77.6492 79.5497 77.6356 79.5327 77.6288 79.5123C77.6186 79.4919 77.6152 79.4681 77.6152 79.4477C77.6152 79.4001 77.6322 79.3593 77.6628 79.3253C77.6798 79.3117 77.7002 79.2981 77.7206 79.2913C77.7614 79.2743 77.809 79.2743 77.8498 79.2913C77.8702 79.2981 77.8906 79.3117 77.9042 79.3253C77.9348 79.3593 77.9552 79.4035 77.9552 79.4477C77.9552 79.4681 77.9518 79.4919 77.9416 79.5123C77.9314 79.5327 77.9212 79.5497 77.9042 79.5667C77.8906 79.5803 77.8702 79.5939 77.8498 79.6041C77.8294 79.6109 77.8056 79.6177 77.7852 79.6177Z" fill="#E0E0E0"/>
<path d="M85.0002 145.37C121.408 145.37 150.923 143.647 150.923 141.522C150.923 139.396 121.408 137.673 85.0002 137.673C48.5922 137.673 19.0776 139.396 19.0776 141.522C19.0776 143.647 48.5922 145.37 85.0002 145.37Z" fill="#F5F5F5"/>
<path d="M41.9223 120.183L42.5887 108.542C42.6261 107.862 43.2109 107.311 43.8909 107.311H62.7813C63.4613 107.311 63.9815 107.862 63.9441 108.542L63.2777 120.183C63.2403 120.863 62.6555 121.414 61.9755 121.414H43.0851C42.4051 121.417 41.8849 120.863 41.9223 120.183Z" fill="#23A9B1"/>
<path d="M40.9667 120.183L41.6331 108.542C41.6705 107.862 42.2553 107.311 42.9353 107.311H62.5839C63.2639 107.311 63.7841 107.862 63.7467 108.542L63.0803 120.183C63.0429 120.863 62.4581 121.414 61.7781 121.414H42.1295C41.4495 121.417 40.9293 120.863 40.9667 120.183Z" fill="white"/>
<path opacity="0.3" d="M40.9667 120.183L41.6331 108.542C41.6705 107.862 42.2553 107.311 42.9353 107.311H62.5839C63.2639 107.311 63.7841 107.862 63.7467 108.542L63.0803 120.183C63.0429 120.863 62.4581 121.414 61.7781 121.414H42.1295C41.4495 121.417 40.9293 120.863 40.9667 120.183Z" fill="#23A9B1"/>
<path d="M49.0317 123.92V123.767C49.0317 123.087 49.5825 122.536 50.2625 122.536H57.3685C58.0485 122.536 58.5993 123.087 58.5993 123.767V123.92C58.5993 124.6 58.0485 125.151 57.3685 125.151H50.2625C49.5859 125.151 49.0317 124.6 49.0317 123.92Z" fill="#23A9B1"/>
<g opacity="0.6">
<path d="M49.0317 123.92V123.767C49.0317 123.087 49.5825 122.536 50.2625 122.536H57.3685C58.0485 122.536 58.5993 123.087 58.5993 123.767V123.92C58.5993 124.6 58.0485 125.151 57.3685 125.151H50.2625C49.5859 125.151 49.0317 124.6 49.0317 123.92Z" fill="white"/>
</g>
<path d="M46.1143 123.92V123.767C46.1143 123.087 46.6651 122.536 47.3451 122.536H55.2093C55.8893 122.536 56.4401 123.087 56.4401 123.767V123.92C56.4401 124.6 55.8893 125.151 55.2093 125.151H47.3451C46.6651 125.151 46.1143 124.6 46.1143 123.92Z" fill="white"/>
<path opacity="0.3" d="M46.1143 123.92V123.767C46.1143 123.087 46.6651 122.536 47.3451 122.536H55.2093C55.8893 122.536 56.4401 123.087 56.4401 123.767V123.92C56.4401 124.6 55.8893 125.151 55.2093 125.151H47.3451C46.6651 125.151 46.1143 124.6 46.1143 123.92Z" fill="#23A9B1"/>
<path opacity="0.9" d="M62.0568 120.819H41.922C41.6228 120.819 41.3916 120.574 41.4086 120.275L42.0852 108.45C42.1022 108.151 42.3606 107.906 42.6598 107.906H62.7946C63.0938 107.906 63.325 108.151 63.308 108.45L62.6314 120.275C62.6144 120.574 62.356 120.819 62.0568 120.819Z" fill="white"/>
<path opacity="0.1" d="M47.7225 120.819H43.7207L47.3825 107.906H51.3877L47.7225 120.819Z" fill="#23A9B1"/>
<path opacity="0.1" d="M51.0033 120.819H48.2051L51.8669 107.906H54.6651L51.0033 120.819Z" fill="#23A9B1"/>
<path opacity="0.1" d="M57.1029 120.819H54.3047L57.9665 107.906H60.7647L57.1029 120.819Z" fill="#23A9B1"/>
<path d="M74.4671 120.183L75.1335 108.542C75.1709 107.862 75.7557 107.311 76.4357 107.311H95.3261C96.0061 107.311 96.5263 107.862 96.4889 108.542L95.8225 120.183C95.7851 120.863 95.2003 121.414 94.5203 121.414H75.6299C74.9465 121.417 74.4263 120.863 74.4671 120.183Z" fill="#23A9B1"/>
<path d="M73.5117 120.183L74.1781 108.542C74.2155 107.862 74.8003 107.311 75.4803 107.311H95.1289C95.8089 107.311 96.3291 107.862 96.2917 108.542L95.6253 120.183C95.5879 120.863 95.0031 121.414 94.3231 121.414H74.6745C73.9911 121.417 73.4743 120.863 73.5117 120.183Z" fill="white"/>
<path opacity="0.3" d="M73.5117 120.183L74.1781 108.542C74.2155 107.862 74.8003 107.311 75.4803 107.311H95.1289C95.8089 107.311 96.3291 107.862 96.2917 108.542L95.6253 120.183C95.5879 120.863 95.0031 121.414 94.3231 121.414H74.6745C73.9911 121.417 73.4743 120.863 73.5117 120.183Z" fill="#23A9B1"/>
<path d="M81.5767 123.92V123.767C81.5767 123.087 82.1275 122.536 82.8075 122.536H89.9135C90.5935 122.536 91.1443 123.087 91.1443 123.767V123.92C91.1443 124.6 90.5935 125.151 89.9135 125.151H82.8075C82.1275 125.151 81.5767 124.6 81.5767 123.92Z" fill="#23A9B1"/>
<g opacity="0.6">
<path d="M81.5767 123.92V123.767C81.5767 123.087 82.1275 122.536 82.8075 122.536H89.9135C90.5935 122.536 91.1443 123.087 91.1443 123.767V123.92C91.1443 124.6 90.5935 125.151 89.9135 125.151H82.8075C82.1275 125.151 81.5767 124.6 81.5767 123.92Z" fill="white"/>
</g>
<path d="M78.6592 123.92V123.767C78.6592 123.087 79.21 122.536 79.89 122.536H87.7542C88.4342 122.536 88.985 123.087 88.985 123.767V123.92C88.985 124.6 88.4342 125.151 87.7542 125.151H79.89C79.21 125.151 78.6592 124.6 78.6592 123.92Z" fill="white"/>
<path opacity="0.3" d="M78.6592 123.92V123.767C78.6592 123.087 79.21 122.536 79.89 122.536H87.7542C88.4342 122.536 88.985 123.087 88.985 123.767V123.92C88.985 124.6 88.4342 125.151 87.7542 125.151H79.89C79.21 125.151 78.6592 124.6 78.6592 123.92Z" fill="#23A9B1"/>
<path opacity="0.9" d="M94.5983 120.819H74.4635C74.1643 120.819 73.9331 120.574 73.9501 120.275L74.6267 108.45C74.6437 108.151 74.9021 107.906 75.2013 107.906H95.3361C95.6353 107.906 95.8665 108.151 95.8495 108.45L95.1729 120.275C95.1559 120.574 94.9009 120.819 94.5983 120.819Z" fill="white"/>
<path opacity="0.1" d="M80.2674 120.819H76.2622L79.9274 107.906H83.9292L80.2674 120.819Z" fill="#23A9B1"/>
<path opacity="0.1" d="M83.5448 120.819H80.75L84.4118 107.906H87.21L83.5448 120.819Z" fill="#23A9B1"/>
<path opacity="0.1" d="M89.6444 120.819H86.8496L90.5114 107.906H93.3096L89.6444 120.819Z" fill="#23A9B1"/>
<path d="M107.008 120.183L107.675 108.542C107.712 107.862 108.297 107.311 108.977 107.311H127.867C128.547 107.311 129.067 107.862 129.03 108.542L128.364 120.183C128.326 120.863 127.741 121.414 127.061 121.414H108.171C107.491 121.417 106.971 120.863 107.008 120.183Z" fill="#23A9B1"/>
<path d="M106.056 120.183L106.723 108.542C106.76 107.862 107.345 107.311 108.025 107.311H127.674C128.354 107.311 128.874 107.862 128.836 108.542L128.17 120.183C128.133 120.863 127.548 121.414 126.868 121.414H107.219C106.536 121.417 106.016 120.863 106.056 120.183Z" fill="white"/>
<path opacity="0.3" d="M106.056 120.183L106.723 108.542C106.76 107.862 107.345 107.311 108.025 107.311H127.674C128.354 107.311 128.874 107.862 128.836 108.542L128.17 120.183C128.133 120.863 127.548 121.414 126.868 121.414H107.219C106.536 121.417 106.016 120.863 106.056 120.183Z" fill="#23A9B1"/>
<path d="M114.121 123.92V123.767C114.121 123.087 114.672 122.536 115.352 122.536H122.458C123.138 122.536 123.689 123.087 123.689 123.767V123.92C123.689 124.6 123.138 125.151 122.458 125.151H115.352C114.672 125.151 114.121 124.6 114.121 123.92Z" fill="#23A9B1"/>
<g opacity="0.6">
<path d="M114.121 123.92V123.767C114.121 123.087 114.672 122.536 115.352 122.536H122.458C123.138 122.536 123.689 123.087 123.689 123.767V123.92C123.689 124.6 123.138 125.151 122.458 125.151H115.352C114.672 125.151 114.121 124.6 114.121 123.92Z" fill="white"/>
</g>
<path d="M111.201 123.92V123.767C111.201 123.087 111.751 122.536 112.431 122.536H120.296C120.976 122.536 121.526 123.087 121.526 123.767V123.92C121.526 124.6 120.976 125.151 120.296 125.151H112.431C111.751 125.151 111.201 124.6 111.201 123.92Z" fill="white"/>
<path opacity="0.3" d="M111.201 123.92V123.767C111.201 123.087 111.751 122.536 112.431 122.536H120.296C120.976 122.536 121.526 123.087 121.526 123.767V123.92C121.526 124.6 120.976 125.151 120.296 125.151H112.431C111.751 125.151 111.201 124.6 111.201 123.92Z" fill="#23A9B1"/>
<path opacity="0.9" d="M127.143 120.819H107.008C106.709 120.819 106.478 120.574 106.495 120.275L107.172 108.45C107.189 108.151 107.447 107.906 107.746 107.906H127.881C128.18 107.906 128.411 108.151 128.394 108.45L127.718 120.275C127.701 120.574 127.442 120.819 127.143 120.819Z" fill="white"/>
<path opacity="0.1" d="M112.812 120.819H108.807L112.469 107.906H116.474L112.812 120.819Z" fill="#23A9B1"/>
<path opacity="0.1" d="M116.09 120.819H113.292L116.957 107.906H119.752L116.09 120.819Z" fill="#23A9B1"/>
<path opacity="0.1" d="M122.189 120.819H119.391L123.053 107.906H125.851L122.189 120.819Z" fill="#23A9B1"/>
<path d="M52.2511 104.992C52.2273 104.992 52.2069 104.985 52.1865 104.978C52.1661 104.968 52.1457 104.955 52.1287 104.941C52.1151 104.924 52.1015 104.907 52.0947 104.887C52.0845 104.863 52.0811 104.842 52.0811 104.822C52.0811 104.774 52.0981 104.73 52.1287 104.7C52.1763 104.652 52.2511 104.638 52.3157 104.662C52.3361 104.672 52.3565 104.683 52.3701 104.7C52.3871 104.717 52.4007 104.734 52.4075 104.754C52.4177 104.774 52.4211 104.798 52.4211 104.822C52.4211 104.842 52.4177 104.863 52.4075 104.887C52.4007 104.907 52.3871 104.924 52.3701 104.941C52.3565 104.955 52.3361 104.968 52.3157 104.978C52.2953 104.985 52.2715 104.992 52.2511 104.992Z" fill="#23A9B1"/>
<path d="M52.0811 103.574C52.0811 103.482 52.1559 103.404 52.2511 103.404C52.3463 103.404 52.4211 103.482 52.4211 103.574C52.4211 103.669 52.3463 103.744 52.2511 103.744C52.1559 103.744 52.0811 103.669 52.0811 103.574Z" fill="#23A9B1"/>
<path d="M52.2511 102.5C52.2069 102.5 52.1627 102.483 52.1287 102.449C52.1151 102.435 52.1015 102.415 52.0947 102.394C52.0845 102.374 52.0811 102.354 52.0811 102.33C52.0811 102.286 52.0981 102.241 52.1287 102.211C52.1763 102.163 52.2511 102.146 52.3157 102.173C52.3361 102.184 52.3565 102.194 52.3701 102.211C52.3871 102.224 52.4007 102.245 52.4075 102.265C52.4177 102.286 52.4211 102.309 52.4211 102.33C52.4211 102.354 52.4177 102.374 52.4075 102.394C52.4007 102.415 52.3871 102.435 52.3701 102.449C52.3565 102.466 52.3361 102.479 52.3157 102.486C52.2953 102.496 52.2715 102.5 52.2511 102.5Z" fill="#23A9B1"/>
<path d="M83.4663 102.33C83.4663 102.238 83.5411 102.16 83.6329 102.16C83.7281 102.16 83.8029 102.238 83.8029 102.33C83.8029 102.425 83.7281 102.5 83.6329 102.5C83.5411 102.5 83.4663 102.425 83.4663 102.33ZM82.0995 102.33C82.0995 102.238 82.1777 102.16 82.2695 102.16C82.3647 102.16 82.4395 102.238 82.4395 102.33C82.4395 102.425 82.3647 102.5 82.2695 102.5C82.1777 102.5 82.0995 102.425 82.0995 102.33ZM80.7361 102.33C80.7361 102.238 80.8109 102.16 80.9061 102.16C80.9979 102.16 81.0761 102.238 81.0761 102.33C81.0761 102.425 80.9979 102.5 80.9061 102.5C80.8109 102.5 80.7361 102.425 80.7361 102.33ZM79.3727 102.33C79.3727 102.238 79.4475 102.16 79.5427 102.16C79.6345 102.16 79.7093 102.238 79.7093 102.33C79.7093 102.425 79.6345 102.5 79.5427 102.5C79.4475 102.5 79.3727 102.425 79.3727 102.33ZM78.0059 102.33C78.0059 102.238 78.0841 102.16 78.1759 102.16C78.2711 102.16 78.3459 102.238 78.3459 102.33C78.3459 102.425 78.2711 102.5 78.1759 102.5C78.0841 102.5 78.0059 102.425 78.0059 102.33ZM76.6425 102.33C76.6425 102.238 76.7173 102.16 76.8125 102.16C76.9043 102.16 76.9825 102.238 76.9825 102.33C76.9825 102.425 76.9043 102.5 76.8125 102.5C76.7173 102.5 76.6425 102.425 76.6425 102.33ZM75.2791 102.33C75.2791 102.238 75.3539 102.16 75.4491 102.16C75.5409 102.16 75.6191 102.238 75.6191 102.33C75.6191 102.425 75.5409 102.5 75.4491 102.5C75.3539 102.5 75.2791 102.425 75.2791 102.33ZM73.9123 102.33C73.9123 102.238 73.9905 102.16 74.0823 102.16C74.1775 102.16 74.2523 102.238 74.2523 102.33C74.2523 102.425 74.1775 102.5 74.0823 102.5C73.9905 102.5 73.9123 102.425 73.9123 102.33ZM72.5489 102.33C72.5489 102.238 72.6237 102.16 72.7189 102.16C72.8107 102.16 72.8889 102.238 72.8889 102.33C72.8889 102.425 72.8107 102.5 72.7189 102.5C72.6237 102.5 72.5489 102.425 72.5489 102.33ZM71.1855 102.33C71.1855 102.238 71.2603 102.16 71.3555 102.16C71.4473 102.16 71.5255 102.238 71.5255 102.33C71.5255 102.425 71.4473 102.5 71.3555 102.5C71.2603 102.5 71.1855 102.425 71.1855 102.33ZM69.8187 102.33C69.8187 102.238 69.8969 102.16 69.9887 102.16C70.0839 102.16 70.1587 102.238 70.1587 102.33C70.1587 102.425 70.0839 102.5 69.9887 102.5C69.8969 102.5 69.8187 102.425 69.8187 102.33ZM68.4553 102.33C68.4553 102.238 68.5301 102.16 68.6253 102.16C68.7171 102.16 68.7953 102.238 68.7953 102.33C68.7953 102.425 68.7171 102.5 68.6253 102.5C68.5301 102.5 68.4553 102.425 68.4553 102.33ZM67.0885 102.33C67.0885 102.238 67.1667 102.16 67.2619 102.16C67.3537 102.16 67.4319 102.238 67.4319 102.33C67.4319 102.425 67.3537 102.5 67.2619 102.5C67.1667 102.5 67.0885 102.425 67.0885 102.33ZM65.7251 102.33C65.7251 102.238 65.8033 102.16 65.8951 102.16C65.9903 102.16 66.0651 102.238 66.0651 102.33C66.0651 102.425 65.9903 102.5 65.8951 102.5C65.8033 102.5 65.7251 102.425 65.7251 102.33ZM64.3617 102.33C64.3617 102.238 64.4365 102.16 64.5317 102.16C64.6269 102.16 64.7017 102.238 64.7017 102.33C64.7017 102.425 64.6269 102.5 64.5317 102.5C64.4365 102.5 64.3617 102.425 64.3617 102.33ZM62.9949 102.33C62.9949 102.238 63.0731 102.16 63.1649 102.16C63.2601 102.16 63.3383 102.238 63.3383 102.33C63.3383 102.425 63.2601 102.5 63.1649 102.5C63.0731 102.5 62.9949 102.425 62.9949 102.33ZM61.6315 102.33C61.6315 102.238 61.7063 102.16 61.8015 102.16C61.8967 102.16 61.9715 102.238 61.9715 102.33C61.9715 102.425 61.8967 102.5 61.8015 102.5C61.7063 102.5 61.6315 102.425 61.6315 102.33ZM60.2681 102.33C60.2681 102.238 60.3429 102.16 60.4381 102.16C60.5299 102.16 60.6081 102.238 60.6081 102.33C60.6081 102.425 60.5299 102.5 60.4381 102.5C60.3429 102.5 60.2681 102.425 60.2681 102.33ZM58.9013 102.33C58.9013 102.238 58.9795 102.16 59.0713 102.16C59.1665 102.16 59.2413 102.238 59.2413 102.33C59.2413 102.425 59.1665 102.5 59.0713 102.5C58.9795 102.5 58.9013 102.425 58.9013 102.33ZM57.5379 102.33C57.5379 102.238 57.6161 102.16 57.7079 102.16C57.8031 102.16 57.8779 102.238 57.8779 102.33C57.8779 102.425 57.8031 102.5 57.7079 102.5C57.6161 102.5 57.5379 102.425 57.5379 102.33ZM56.1745 102.33C56.1745 102.238 56.2493 102.16 56.3445 102.16C56.4363 102.16 56.5145 102.238 56.5145 102.33C56.5145 102.425 56.4363 102.5 56.3445 102.5C56.2493 102.5 56.1745 102.425 56.1745 102.33ZM54.8111 102.33C54.8111 102.238 54.8859 102.16 54.9777 102.16C55.0729 102.16 55.1477 102.238 55.1477 102.33C55.1477 102.425 55.0729 102.5 54.9777 102.5C54.8859 102.5 54.8111 102.425 54.8111 102.33ZM53.4443 102.33C53.4443 102.238 53.5225 102.16 53.6143 102.16C53.7095 102.16 53.7843 102.238 53.7843 102.33C53.7843 102.425 53.7095 102.5 53.6143 102.5C53.5225 102.5 53.4443 102.425 53.4443 102.33Z" fill="#23A9B1"/>
<path d="M85.0001 102.5C84.9763 102.5 84.9559 102.496 84.9355 102.486C84.9151 102.479 84.8947 102.466 84.8811 102.452C84.8641 102.435 84.8505 102.415 84.8437 102.394C84.8335 102.374 84.8301 102.354 84.8301 102.33C84.8301 102.309 84.8335 102.286 84.8437 102.265C84.8505 102.245 84.8641 102.228 84.8811 102.211C84.8947 102.194 84.9151 102.184 84.9355 102.173C84.9763 102.156 85.0239 102.156 85.0647 102.173C85.0851 102.184 85.1055 102.194 85.1191 102.211C85.1531 102.241 85.1701 102.286 85.1701 102.33C85.1701 102.354 85.1667 102.374 85.1565 102.394C85.1497 102.415 85.1361 102.435 85.1191 102.452C85.1055 102.466 85.0851 102.479 85.0647 102.486C85.0443 102.496 85.0239 102.5 85.0001 102.5Z" fill="#23A9B1"/>
<path d="M85.0001 102.5C84.9763 102.5 84.9559 102.496 84.9355 102.486C84.9151 102.479 84.8947 102.466 84.8811 102.452C84.8641 102.435 84.8505 102.415 84.8437 102.394C84.8335 102.374 84.8301 102.354 84.8301 102.33C84.8301 102.309 84.8335 102.286 84.8437 102.265C84.8505 102.245 84.8641 102.228 84.8811 102.211C84.8947 102.194 84.9151 102.184 84.9355 102.173C84.9763 102.156 85.0239 102.156 85.0647 102.173C85.0851 102.184 85.1055 102.194 85.1191 102.211C85.1531 102.241 85.1701 102.286 85.1701 102.33C85.1701 102.354 85.1667 102.374 85.1565 102.394C85.1497 102.415 85.1361 102.435 85.1191 102.452C85.1055 102.466 85.0851 102.479 85.0647 102.486C85.0443 102.496 85.0239 102.5 85.0001 102.5Z" fill="#23A9B1"/>
<path d="M84.8301 101.15C84.8301 101.055 84.9083 100.98 85.0001 100.98C85.0953 100.98 85.1701 101.055 85.1701 101.15C85.1701 101.245 85.0953 101.32 85.0001 101.32C84.9083 101.32 84.8301 101.245 84.8301 101.15ZM84.8301 99.9703C84.8301 99.8751 84.9083 99.8003 85.0001 99.8003C85.0953 99.8003 85.1701 99.8751 85.1701 99.9703C85.1701 100.065 85.0953 100.14 85.0001 100.14C84.9083 100.14 84.8301 100.065 84.8301 99.9703ZM84.8301 98.7905C84.8301 98.6953 84.9083 98.6205 85.0001 98.6205C85.0953 98.6205 85.1701 98.6953 85.1701 98.7905C85.1701 98.8857 85.0953 98.9605 85.0001 98.9605C84.9083 98.9605 84.8301 98.8857 84.8301 98.7905Z" fill="#23A9B1"/>
<path d="M85.0001 97.7806C84.9559 97.7806 84.9117 97.7636 84.8811 97.7296C84.8641 97.716 84.8505 97.6956 84.8437 97.6752C84.8335 97.6548 84.8301 97.631 84.8301 97.6106C84.8301 97.5868 84.8335 97.5664 84.8437 97.546C84.8505 97.5222 84.8641 97.5052 84.8811 97.4882C84.8947 97.4746 84.9151 97.461 84.9355 97.4542C84.9763 97.4372 85.0239 97.4338 85.0647 97.4542C85.0851 97.461 85.1055 97.4746 85.1191 97.4882C85.1361 97.5052 85.1497 97.5256 85.1565 97.546C85.1667 97.5664 85.1701 97.5868 85.1701 97.6106C85.1701 97.631 85.1667 97.6548 85.1565 97.6752C85.1497 97.6956 85.1361 97.716 85.1191 97.7296C85.0885 97.7636 85.0443 97.7806 85.0001 97.7806Z" fill="#23A9B1"/>
<path d="M85.0001 102.5C84.9763 102.5 84.9559 102.496 84.9355 102.486C84.9151 102.479 84.8947 102.466 84.8811 102.452C84.8641 102.435 84.8505 102.415 84.8437 102.394C84.8335 102.374 84.8301 102.354 84.8301 102.33C84.8301 102.309 84.8335 102.286 84.8437 102.265C84.8505 102.245 84.8641 102.228 84.8811 102.211C84.8947 102.194 84.9151 102.184 84.9355 102.173C84.9763 102.156 85.0239 102.156 85.0647 102.173C85.0851 102.184 85.1055 102.194 85.1191 102.211C85.1531 102.241 85.1701 102.286 85.1701 102.33C85.1701 102.354 85.1667 102.374 85.1565 102.394C85.1497 102.415 85.1361 102.435 85.1191 102.452C85.1055 102.466 85.0851 102.479 85.0647 102.486C85.0443 102.496 85.0239 102.5 85.0001 102.5Z" fill="#23A9B1"/>
<path d="M84.8301 103.574C84.8301 103.482 84.9083 103.404 85.0001 103.404C85.0953 103.404 85.1701 103.482 85.1701 103.574C85.1701 103.669 85.0953 103.744 85.0001 103.744C84.9083 103.744 84.8301 103.669 84.8301 103.574Z" fill="#23A9B1"/>
<path d="M85.0001 104.992C84.9559 104.992 84.9117 104.972 84.8811 104.941C84.8641 104.924 84.8505 104.907 84.8437 104.887C84.8335 104.866 84.8301 104.842 84.8301 104.819C84.8301 104.798 84.8335 104.774 84.8437 104.754C84.8505 104.734 84.8641 104.717 84.8811 104.7C84.9423 104.638 85.0545 104.635 85.1191 104.7C85.1361 104.717 85.1497 104.734 85.1565 104.754C85.1667 104.774 85.1701 104.798 85.1701 104.819C85.1701 104.842 85.1667 104.866 85.1565 104.887C85.1497 104.907 85.1361 104.924 85.1191 104.941C85.0885 104.972 85.0443 104.992 85.0001 104.992Z" fill="#23A9B1"/>
<path d="M117.749 104.992C117.705 104.992 117.661 104.972 117.63 104.941C117.599 104.907 117.579 104.863 117.579 104.819C117.579 104.774 117.599 104.73 117.63 104.7C117.691 104.638 117.807 104.635 117.868 104.7C117.885 104.717 117.899 104.734 117.905 104.754C117.916 104.774 117.919 104.798 117.919 104.819C117.919 104.863 117.902 104.907 117.868 104.941C117.838 104.972 117.793 104.992 117.749 104.992Z" fill="#23A9B1"/>
<path d="M117.579 103.574C117.579 103.482 117.657 103.404 117.749 103.404C117.844 103.404 117.919 103.482 117.919 103.574C117.919 103.669 117.844 103.744 117.749 103.744C117.657 103.744 117.579 103.669 117.579 103.574Z" fill="#23A9B1"/>
<path d="M117.749 102.5C117.705 102.5 117.661 102.483 117.63 102.452C117.599 102.418 117.579 102.374 117.579 102.33C117.579 102.286 117.599 102.241 117.63 102.211C117.691 102.146 117.804 102.146 117.868 102.211C117.902 102.241 117.919 102.286 117.919 102.33C117.919 102.374 117.902 102.418 117.868 102.452C117.838 102.483 117.793 102.5 117.749 102.5Z" fill="#23A9B1"/>
<path d="M116.215 102.33C116.215 102.235 116.29 102.16 116.385 102.16C116.477 102.16 116.555 102.235 116.555 102.33C116.555 102.425 116.477 102.5 116.385 102.5C116.29 102.5 116.215 102.425 116.215 102.33ZM114.849 102.33C114.849 102.235 114.927 102.16 115.022 102.16C115.114 102.16 115.192 102.235 115.192 102.33C115.192 102.425 115.114 102.5 115.022 102.5C114.927 102.5 114.849 102.425 114.849 102.33ZM113.485 102.33C113.485 102.235 113.563 102.16 113.655 102.16C113.75 102.16 113.825 102.235 113.825 102.33C113.825 102.425 113.75 102.5 113.655 102.5C113.563 102.5 113.485 102.425 113.485 102.33ZM112.122 102.33C112.122 102.235 112.197 102.16 112.292 102.16C112.384 102.16 112.462 102.235 112.462 102.33C112.462 102.425 112.384 102.5 112.292 102.5C112.197 102.5 112.122 102.425 112.122 102.33ZM110.755 102.33C110.755 102.235 110.833 102.16 110.925 102.16C111.02 102.16 111.098 102.235 111.098 102.33C111.098 102.425 111.02 102.5 110.925 102.5C110.833 102.5 110.755 102.425 110.755 102.33ZM109.392 102.33C109.392 102.235 109.47 102.16 109.562 102.16C109.657 102.16 109.732 102.235 109.732 102.33C109.732 102.425 109.657 102.5 109.562 102.5C109.47 102.5 109.392 102.425 109.392 102.33ZM108.028 102.33C108.028 102.235 108.103 102.16 108.198 102.16C108.29 102.16 108.368 102.235 108.368 102.33C108.368 102.425 108.29 102.5 108.198 102.5C108.103 102.5 108.028 102.425 108.028 102.33ZM106.661 102.33C106.661 102.235 106.74 102.16 106.831 102.16C106.927 102.16 107.005 102.235 107.005 102.33C107.005 102.425 106.927 102.5 106.831 102.5C106.74 102.5 106.661 102.425 106.661 102.33ZM105.298 102.33C105.298 102.235 105.376 102.16 105.468 102.16C105.563 102.16 105.638 102.235 105.638 102.33C105.638 102.425 105.563 102.5 105.468 102.5C105.376 102.5 105.298 102.425 105.298 102.33ZM103.935 102.33C103.935 102.235 104.009 102.16 104.105 102.16C104.196 102.16 104.275 102.235 104.275 102.33C104.275 102.425 104.196 102.5 104.105 102.5C104.009 102.5 103.935 102.425 103.935 102.33ZM102.568 102.33C102.568 102.235 102.646 102.16 102.738 102.16C102.833 102.16 102.908 102.235 102.908 102.33C102.908 102.425 102.833 102.5 102.738 102.5C102.646 102.5 102.568 102.425 102.568 102.33ZM101.204 102.33C101.204 102.235 101.283 102.16 101.374 102.16C101.47 102.16 101.544 102.235 101.544 102.33C101.544 102.425 101.47 102.5 101.374 102.5C101.283 102.5 101.204 102.425 101.204 102.33ZM99.841 102.33C99.841 102.235 99.9158 102.16 100.011 102.16C100.103 102.16 100.181 102.235 100.181 102.33C100.181 102.425 100.103 102.5 100.011 102.5C99.9158 102.5 99.841 102.425 99.841 102.33ZM98.4742 102.33C98.4742 102.235 98.5524 102.16 98.6442 102.16C98.7394 102.16 98.8142 102.235 98.8142 102.33C98.8142 102.425 98.7394 102.5 98.6442 102.5C98.5524 102.5 98.4742 102.425 98.4742 102.33ZM97.1108 102.33C97.1108 102.235 97.189 102.16 97.2808 102.16C97.376 102.16 97.4508 102.235 97.4508 102.33C97.4508 102.425 97.376 102.5 97.2808 102.5C97.189 102.5 97.1108 102.425 97.1108 102.33ZM95.7474 102.33C95.7474 102.235 95.8222 102.16 95.9174 102.16C96.0092 102.16 96.0874 102.235 96.0874 102.33C96.0874 102.425 96.0092 102.5 95.9174 102.5C95.8222 102.5 95.7474 102.425 95.7474 102.33ZM94.3806 102.33C94.3806 102.235 94.4588 102.16 94.5506 102.16C94.6458 102.16 94.724 102.235 94.724 102.33C94.724 102.425 94.6458 102.5 94.5506 102.5C94.4588 102.5 94.3806 102.425 94.3806 102.33ZM93.0172 102.33C93.0172 102.235 93.0954 102.16 93.1872 102.16C93.2824 102.16 93.3572 102.235 93.3572 102.33C93.3572 102.425 93.2824 102.5 93.1872 102.5C93.0954 102.5 93.0172 102.425 93.0172 102.33ZM91.6538 102.33C91.6538 102.235 91.7286 102.16 91.8238 102.16C91.9156 102.16 91.9938 102.235 91.9938 102.33C91.9938 102.425 91.9156 102.5 91.8238 102.5C91.7286 102.5 91.6538 102.425 91.6538 102.33ZM90.287 102.33C90.287 102.235 90.3652 102.16 90.457 102.16C90.5522 102.16 90.6304 102.235 90.6304 102.33C90.6304 102.425 90.5522 102.5 90.457 102.5C90.3652 102.5 90.287 102.425 90.287 102.33ZM88.9236 102.33C88.9236 102.235 88.9984 102.16 89.0936 102.16C89.1888 102.16 89.2636 102.235 89.2636 102.33C89.2636 102.425 89.1888 102.5 89.0936 102.5C88.9984 102.5 88.9236 102.425 88.9236 102.33ZM87.5602 102.33C87.5602 102.235 87.635 102.16 87.7302 102.16C87.822 102.16 87.9002 102.235 87.9002 102.33C87.9002 102.425 87.822 102.5 87.7302 102.5C87.635 102.5 87.5602 102.425 87.5602 102.33ZM86.1934 102.33C86.1934 102.235 86.2716 102.16 86.3634 102.16C86.4586 102.16 86.5368 102.235 86.5368 102.33C86.5368 102.425 86.4586 102.5 86.3634 102.5C86.2716 102.5 86.1934 102.425 86.1934 102.33Z" fill="#23A9B1"/>
<path d="M85.0001 102.5C84.9763 102.5 84.9559 102.496 84.9355 102.486C84.9151 102.479 84.8947 102.466 84.8811 102.452C84.8641 102.435 84.8505 102.415 84.8437 102.394C84.8335 102.374 84.8301 102.354 84.8301 102.33C84.8301 102.309 84.8335 102.286 84.8437 102.265C84.8505 102.245 84.8641 102.228 84.8811 102.211C84.8947 102.194 84.9151 102.184 84.9355 102.173C84.9763 102.156 85.0239 102.156 85.0647 102.173C85.0851 102.184 85.1055 102.194 85.1191 102.211C85.1531 102.241 85.1701 102.286 85.1701 102.33C85.1701 102.354 85.1667 102.374 85.1565 102.394C85.1497 102.415 85.1361 102.435 85.1191 102.452C85.1055 102.466 85.0851 102.479 85.0647 102.486C85.0443 102.496 85.0239 102.5 85.0001 102.5Z" fill="#23A9B1"/>
<path d="M136.867 66.4734C136.771 55.301 127.69 46.274 116.497 46.274H108.082C103.829 38.8994 95.8661 33.932 86.7405 33.932H70.3627V40.1744C66.5819 43.5506 63.8449 48.076 62.7093 53.2032C51.6491 53.9138 42.8975 63.104 42.8975 74.3444C42.8975 86.0472 52.3835 95.5332 64.0863 95.5332H131.515C139.811 95.5332 146.536 88.808 146.536 80.512C146.54 74.0996 142.521 68.629 136.867 66.4734Z" fill="#23A9B1"/>
<path opacity="0.7" d="M136.867 66.4734C136.771 55.301 127.69 46.274 116.497 46.274H108.082C103.829 38.8994 95.8661 33.932 86.7405 33.932H70.3627V40.1744C66.5819 43.5506 63.8449 48.076 62.7093 53.2032C51.6491 53.9138 42.8975 63.104 42.8975 74.3444C42.8975 86.0472 52.3835 95.5332 64.0863 95.5332H131.515C139.811 95.5332 146.536 88.808 146.536 80.512C146.54 74.0996 142.521 68.629 136.867 66.4734Z" fill="white"/>
<path d="M120.489 66.4734C120.394 55.301 111.312 46.2706 100.119 46.2706C97.4231 46.2706 94.8493 46.801 92.4931 47.753C88.4913 39.5692 80.0865 33.9286 70.3625 33.9286C58.6019 33.9286 48.7759 42.177 46.3313 53.1998C35.2711 53.9104 26.5195 63.1006 26.5195 74.341C26.5195 86.0438 36.0055 95.5298 47.7083 95.5298H115.137C123.433 95.5298 130.158 88.8046 130.158 80.5086C130.162 74.0996 126.143 68.629 120.489 66.4734Z" fill="#23A9B1"/>
<path opacity="0.1" d="M136.867 66.4734C136.771 55.301 127.69 46.2706 116.497 46.2706C113.801 46.2706 111.227 46.801 108.871 47.753C104.869 39.5692 96.4645 33.9286 86.7405 33.9286C74.9799 33.9286 65.1539 42.177 62.7093 53.1998C51.6491 53.9104 42.8975 63.1006 42.8975 74.341C42.8975 86.0438 52.3835 95.5298 64.0863 95.5298H131.515C139.811 95.5298 146.536 88.8046 146.536 80.5086C146.54 74.0996 142.521 68.629 136.867 66.4734Z" fill="black"/>
<path d="M115.141 95.863H47.712C35.846 95.863 26.1934 86.2104 26.1934 74.341C26.1934 63.1108 34.9042 53.7336 46.0664 52.887C47.3108 47.5252 50.3504 42.6632 54.648 39.1748C59.0714 35.581 64.6542 33.5988 70.3662 33.5988C79.8726 33.5988 88.3862 38.8552 92.6566 47.3348C95.0434 46.41 97.5526 45.9408 100.123 45.9408C111.367 45.9408 120.608 55.029 120.822 66.2456C126.619 68.5542 130.499 74.2594 130.499 80.5086C130.492 88.9746 123.607 95.863 115.141 95.863ZM70.3662 34.2584C59.0714 34.2584 49.0992 42.2552 46.658 53.2712C46.6274 53.414 46.5016 53.5194 46.3554 53.5296C35.421 54.2334 26.853 63.3726 26.853 74.341C26.853 85.8432 36.2098 95.2 47.712 95.2H115.141C123.243 95.2 129.832 88.6108 129.832 80.5086C129.832 74.4532 126.031 68.9384 120.373 66.7794C120.248 66.7318 120.163 66.6094 120.159 66.4734C120.067 55.5152 111.078 46.6004 100.12 46.6004C97.5356 46.6004 95.0094 47.09 92.6158 48.059C92.456 48.1236 92.2724 48.0522 92.1942 47.8992C88.0836 39.4842 79.7196 34.2584 70.3662 34.2584Z" fill="#23A9B1"/>
<path opacity="0.7" d="M115.141 95.863H47.712C35.846 95.863 26.1934 86.2104 26.1934 74.341C26.1934 63.1108 34.9042 53.7336 46.0664 52.887C47.3108 47.5252 50.3504 42.6632 54.648 39.1748C59.0714 35.581 64.6542 33.5988 70.3662 33.5988C79.8726 33.5988 88.3862 38.8552 92.6566 47.3348C95.0434 46.41 97.5526 45.9408 100.123 45.9408C111.367 45.9408 120.608 55.029 120.822 66.2456C126.619 68.5542 130.499 74.2594 130.499 80.5086C130.492 88.9746 123.607 95.863 115.141 95.863ZM70.3662 34.2584C59.0714 34.2584 49.0992 42.2552 46.658 53.2712C46.6274 53.414 46.5016 53.5194 46.3554 53.5296C35.421 54.2334 26.853 63.3726 26.853 74.341C26.853 85.8432 36.2098 95.2 47.712 95.2H115.141C123.243 95.2 129.832 88.6108 129.832 80.5086C129.832 74.4532 126.031 68.9384 120.373 66.7794C120.248 66.7318 120.163 66.6094 120.159 66.4734C120.067 55.5152 111.078 46.6004 100.12 46.6004C97.5356 46.6004 95.0094 47.09 92.6158 48.059C92.456 48.1236 92.2724 48.0522 92.1942 47.8992C88.0836 39.4842 79.7196 34.2584 70.3662 34.2584Z" fill="white"/>
<path d="M61.771 65.484H67.1872C68.0236 65.484 68.7002 66.1606 68.7002 66.997V93.6938C68.7002 94.5268 68.0236 95.2068 67.1872 95.2068H61.771V65.484Z" fill="#E0E0E0"/>
<path d="M62.3083 65.484H50.6497C49.8133 65.484 49.1367 66.1606 49.1367 66.997V93.6938C49.1367 94.5268 49.8133 95.2068 50.6497 95.2068H62.3083C63.1447 95.2068 63.8213 94.5302 63.8213 93.6938V66.997C63.8213 66.1606 63.1447 65.484 62.3083 65.484Z" fill="white"/>
<path d="M63.8213 89.0358H49.1401V89.3112H63.8213V89.0358Z" fill="#E0E0E0"/>
<path d="M63.8213 83.147H49.1401V83.4224H63.8213V83.147Z" fill="#E0E0E0"/>
<path d="M63.8213 77.2616H49.1401V77.537H63.8213V77.2616Z" fill="#E0E0E0"/>
<path d="M63.8213 71.3728H49.1401V71.6482H63.8213V71.3728Z" fill="#E0E0E0"/>
<path opacity="0.6" d="M56.4603 69.462H51.5507C51.2413 69.462 50.9897 69.7136 50.9897 70.023C50.9897 70.3324 51.2413 70.584 51.5507 70.584H56.4603C56.7697 70.584 57.0213 70.3324 57.0213 70.023C57.0213 69.7136 56.7697 69.462 56.4603 69.462Z" fill="#23A9B1"/>
<path opacity="0.6" d="M56.4603 68.0034H51.5507C51.2413 68.0034 50.9897 68.255 50.9897 68.5644C50.9897 68.8738 51.2413 69.1254 51.5507 69.1254H56.4603C56.7697 69.1254 57.0213 68.8738 57.0213 68.5644C57.0213 68.255 56.7697 68.0034 56.4603 68.0034Z" fill="#23A9B1"/>
<path opacity="0.6" d="M56.4603 66.5481H51.5507C51.2413 66.5481 50.9897 66.7997 50.9897 67.1091C50.9897 67.4185 51.2413 67.6701 51.5507 67.6701H56.4603C56.7697 67.6701 57.0213 67.4185 57.0213 67.1091C57.0213 66.7997 56.7697 66.5481 56.4603 66.5481Z" fill="#23A9B1"/>
<path d="M57.5377 70.5823H59.5879V69.4603H57.5377V70.5823Z" fill="#EBEBEB"/>
<path d="M57.5377 69.1268H59.5879V68.0048H57.5377V69.1268Z" fill="#23A9B1"/>
<path d="M57.5377 67.6678H59.5879V66.5458H57.5377V67.6678Z" fill="#EBEBEB"/>
<path d="M59.9215 70.5823H61.9717V69.4603H59.9215V70.5823Z" fill="#EBEBEB"/>
<path d="M59.9215 69.1268H61.9717V68.0048H59.9215V69.1268Z" fill="#EBEBEB"/>
<path d="M59.9215 67.6678H61.9717V66.5458H59.9215V67.6678Z" fill="#23A9B1"/>
<path d="M56.4603 75.3508H51.5507C51.2413 75.3508 50.9897 75.6024 50.9897 75.9118C50.9897 76.2212 51.2413 76.4728 51.5507 76.4728H56.4603C56.7697 76.4728 57.0213 76.2212 57.0213 75.9118C57.0213 75.6024 56.7697 75.3508 56.4603 75.3508Z" fill="#EBEBEB"/>
<path opacity="0.6" d="M56.4603 73.8922H51.5507C51.2413 73.8922 50.9897 74.1438 50.9897 74.4532C50.9897 74.7626 51.2413 75.0142 51.5507 75.0142H56.4603C56.7697 75.0142 57.0213 74.7626 57.0213 74.4532C57.0213 74.1438 56.7697 73.8922 56.4603 73.8922Z" fill="#23A9B1"/>
<path opacity="0.6" d="M56.4603 72.4369H51.5507C51.2413 72.4369 50.9897 72.6885 50.9897 72.9979C50.9897 73.3073 51.2413 73.5589 51.5507 73.5589H56.4603C56.7697 73.5589 57.0213 73.3073 57.0213 72.9979C57.0213 72.6851 56.7697 72.4369 56.4603 72.4369Z" fill="#23A9B1"/>
<path d="M57.5377 76.4707H59.5879V75.3487H57.5377V76.4707Z" fill="#EBEBEB"/>
<path d="M57.5377 75.0153H59.5879V73.8933H57.5377V75.0153Z" fill="#EBEBEB"/>
<path d="M57.5377 73.5563H59.5879V72.4343H57.5377V73.5563Z" fill="#23A9B1"/>
<path d="M59.9215 76.4707H61.9717V75.3487H59.9215V76.4707Z" fill="#EBEBEB"/>
<path d="M59.9215 75.0153H61.9717V73.8933H59.9215V75.0153Z" fill="#EBEBEB"/>
<path d="M59.9215 73.5563H61.9717V72.4343H59.9215V73.5563Z" fill="#EBEBEB"/>
<path opacity="0.6" d="M56.4603 81.2396H51.5507C51.2413 81.2396 50.9897 81.4912 50.9897 81.8006C50.9897 82.11 51.2413 82.3616 51.5507 82.3616H56.4603C56.7697 82.3616 57.0213 82.11 57.0213 81.8006C57.0213 81.4912 56.7697 81.2396 56.4603 81.2396Z" fill="#23A9B1"/>
<path opacity="0.6" d="M56.4603 79.781H51.5507C51.2413 79.781 50.9897 80.0326 50.9897 80.342C50.9897 80.6514 51.2413 80.903 51.5507 80.903H56.4603C56.7697 80.903 57.0213 80.6514 57.0213 80.342C57.0213 80.0326 56.7697 79.781 56.4603 79.781Z" fill="#23A9B1"/>
<path opacity="0.6" d="M56.4603 78.3257H51.5507C51.2413 78.3257 50.9897 78.5773 50.9897 78.8867C50.9897 79.1961 51.2413 79.4477 51.5507 79.4477H56.4603C56.7697 79.4477 57.0213 79.1961 57.0213 78.8867C57.0213 78.5739 56.7697 78.3257 56.4603 78.3257Z" fill="#23A9B1"/>
<path d="M57.5377 82.3591H59.5879V81.2371H57.5377V82.3591Z" fill="#EBEBEB"/>
<path d="M57.5377 80.9037H59.5879V79.7817H57.5377V80.9037Z" fill="#23A9B1"/>
<path d="M57.5377 79.4447H59.5879V78.3227H57.5377V79.4447Z" fill="#EBEBEB"/>
<path d="M59.9215 82.3591H61.9717V81.2371H59.9215V82.3591Z" fill="#EBEBEB"/>
<path d="M59.9215 80.9037H61.9717V79.7817H59.9215V80.9037Z" fill="#EBEBEB"/>
<path d="M59.9215 79.4447H61.9717V78.3227H59.9215V79.4447Z" fill="#23A9B1"/>
<path opacity="0.6" d="M56.4603 87.1284H51.5507C51.2413 87.1284 50.9897 87.38 50.9897 87.6894C50.9897 87.9988 51.2413 88.2504 51.5507 88.2504H56.4603C56.7697 88.2504 57.0213 87.9988 57.0213 87.6894C57.0213 87.3766 56.7697 87.1284 56.4603 87.1284Z" fill="#23A9B1"/>
<path opacity="0.6" d="M56.4603 85.6698H51.5507C51.2413 85.6698 50.9897 85.9214 50.9897 86.2308C50.9897 86.5402 51.2413 86.7918 51.5507 86.7918H56.4603C56.7697 86.7918 57.0213 86.5402 57.0213 86.2308C57.0213 85.9214 56.7697 85.6698 56.4603 85.6698Z" fill="#23A9B1"/>
<path opacity="0.6" d="M56.4603 84.2145H51.5507C51.2413 84.2145 50.9897 84.4661 50.9897 84.7755C50.9897 85.0849 51.2413 85.3365 51.5507 85.3365H56.4603C56.7697 85.3365 57.0213 85.0849 57.0213 84.7755C57.0213 84.4627 56.7697 84.2145 56.4603 84.2145Z" fill="#23A9B1"/>
<path d="M57.5377 88.2476H59.5879V87.1256H57.5377V88.2476Z" fill="#EBEBEB"/>
<path d="M57.5377 86.7921H59.5879V85.6701H57.5377V86.7921Z" fill="#23A9B1"/>
<path d="M57.5377 85.3331H59.5879V84.2111H57.5377V85.3331Z" fill="#EBEBEB"/>
<path d="M59.9215 88.2476H61.9717V87.1256H59.9215V88.2476Z" fill="#23A9B1"/>
<path d="M59.9215 86.7921H61.9717V85.6701H59.9215V86.7921Z" fill="#EBEBEB"/>
<path d="M59.9215 85.3331H61.9717V84.2111H59.9215V85.3331Z" fill="#23A9B1"/>
<path opacity="0.6" d="M56.4603 93.0172H51.5507C51.2413 93.0172 50.9897 93.2688 50.9897 93.5782C50.9897 93.8876 51.2413 94.1392 51.5507 94.1392H56.4603C56.7697 94.1392 57.0213 93.8876 57.0213 93.5782C57.0213 93.2654 56.7697 93.0172 56.4603 93.0172Z" fill="#23A9B1"/>
<path opacity="0.6" d="M56.4603 91.5586H51.5507C51.2413 91.5586 50.9897 91.8102 50.9897 92.1196C50.9897 92.429 51.2413 92.6806 51.5507 92.6806H56.4603C56.7697 92.6806 57.0213 92.429 57.0213 92.1196C57.0213 91.8102 56.7697 91.5586 56.4603 91.5586Z" fill="#23A9B1"/>
<path opacity="0.6" d="M56.4603 90.1H51.5507C51.2413 90.1 50.9897 90.3516 50.9897 90.661C50.9897 90.9704 51.2413 91.222 51.5507 91.222H56.4603C56.7697 91.222 57.0213 90.9704 57.0213 90.661C57.0213 90.3516 56.7697 90.1 56.4603 90.1Z" fill="#23A9B1"/>
<path d="M57.5377 94.136H59.5879V93.014H57.5377V94.136Z" fill="#23A9B1"/>
<path d="M57.5377 92.6804H59.5879V91.5584H57.5377V92.6804Z" fill="#EBEBEB"/>
<path d="M57.5377 91.225H59.5879V90.103H57.5377V91.225Z" fill="#EBEBEB"/>
<path d="M59.9215 94.136H61.9717V93.014H59.9215V94.136Z" fill="#EBEBEB"/>
<path d="M59.9215 92.6804H61.9717V91.5584H59.9215V92.6804Z" fill="#EBEBEB"/>
<path d="M59.9215 91.225H61.9717V90.103H59.9215V91.225Z" fill="#23A9B1"/>
<path d="M82.9224 51.4487H90.892C92.1194 51.4487 93.1156 52.4449 93.1156 53.6723V92.9729C93.1156 94.2003 92.1194 95.1965 90.892 95.1965H82.9224V51.4487Z" fill="#E0E0E0"/>
<path d="M83.7145 51.4487H66.5547C65.3273 51.4487 64.3311 52.4449 64.3311 53.6723V92.9729C64.3311 94.2003 65.3273 95.1965 66.5547 95.1965H83.7145C84.9419 95.1965 85.938 94.2003 85.938 92.9729V53.6757C85.9414 52.4449 84.9453 51.4487 83.7145 51.4487Z" fill="white"/>
<path d="M85.938 86.1254H64.3276V86.5334H85.938V86.1254Z" fill="#E0E0E0"/>
<path d="M85.938 77.4587H64.3276V77.8667H85.938V77.4587Z" fill="#E0E0E0"/>
<path d="M85.938 68.7887H64.3276V69.1967H85.938V68.7887Z" fill="#E0E0E0"/>
<path d="M85.938 60.1188H64.3276V60.5268H85.938V60.1188Z" fill="#E0E0E0"/>
<path opacity="0.6" d="M75.1059 57.3069H67.8775C67.4219 57.3069 67.0513 57.6775 67.0513 58.1331C67.0513 58.5887 67.4219 58.9593 67.8775 58.9593H75.1059C75.5615 58.9593 75.9321 58.5887 75.9321 58.1331C75.9321 57.6775 75.5615 57.3069 75.1059 57.3069Z" fill="#23A9B1"/>
<path opacity="0.6" d="M75.1059 55.1615H67.8775C67.4219 55.1615 67.0513 55.5321 67.0513 55.9877C67.0513 56.4433 67.4219 56.8139 67.8775 56.8139H75.1059C75.5615 56.8139 75.9321 56.4433 75.9321 55.9877C75.9321 55.5321 75.5615 55.1615 75.1059 55.1615Z" fill="#23A9B1"/>
<path opacity="0.6" d="M75.1059 53.0161H67.8775C67.4219 53.0161 67.0513 53.3867 67.0513 53.8423C67.0513 54.2979 67.4219 54.6685 67.8775 54.6685H75.1059C75.5615 54.6685 75.9321 54.2979 75.9321 53.8423C75.9321 53.3867 75.5615 53.0161 75.1059 53.0161Z" fill="#23A9B1"/>
<path d="M76.6873 58.959H79.7065V57.3066H76.6873V58.959Z" fill="#EBEBEB"/>
<path d="M76.6873 56.8143H79.7065V55.1619H76.6873V56.8143Z" fill="#23A9B1"/>
<path d="M76.6873 54.6697H79.7065V53.0173H76.6873V54.6697Z" fill="#EBEBEB"/>
<path d="M80.1986 58.959H83.2178V57.3066H80.1986V58.959Z" fill="#EBEBEB"/>
<path d="M80.1986 56.8143H83.2178V55.1619H80.1986V56.8143Z" fill="#EBEBEB"/>
<path d="M80.1986 54.6697H83.2178V53.0173H80.1986V54.6697Z" fill="#23A9B1"/>
<path opacity="0.6" d="M75.1059 65.9769H67.8775C67.4219 65.9769 67.0513 66.3475 67.0513 66.8031C67.0513 67.2587 67.4219 67.6293 67.8775 67.6293H75.1059C75.5615 67.6293 75.9321 67.2587 75.9321 66.8031C75.9321 66.3475 75.5615 65.9769 75.1059 65.9769Z" fill="#23A9B1"/>
<path opacity="0.6" d="M75.1059 63.8315H67.8775C67.4219 63.8315 67.0513 64.2021 67.0513 64.6577C67.0513 65.1133 67.4219 65.4839 67.8775 65.4839H75.1059C75.5615 65.4839 75.9321 65.1133 75.9321 64.6577C75.9321 64.2021 75.5615 63.8315 75.1059 63.8315Z" fill="#23A9B1"/>
<path opacity="0.6" d="M75.1059 61.6862H67.8775C67.4219 61.6862 67.0513 62.0568 67.0513 62.5124C67.0513 62.968 67.4219 63.3386 67.8775 63.3386H75.1059C75.5615 63.3386 75.9321 62.968 75.9321 62.5124C75.9321 62.0568 75.5615 61.6862 75.1059 61.6862Z" fill="#23A9B1"/>
<path d="M76.6873 67.6271H79.7065V65.9747H76.6873V67.6271Z" fill="#EBEBEB"/>
<path d="M76.6873 65.4824H79.7065V63.83H76.6873V65.4824Z" fill="#EBEBEB"/>
<path d="M76.6873 63.3378H79.7065V61.6854H76.6873V63.3378Z" fill="#23A9B1"/>
<path d="M80.1986 67.6271H83.2178V65.9747H80.1986V67.6271Z" fill="#23A9B1"/>
<path d="M80.1986 65.4824H83.2178V63.83H80.1986V65.4824Z" fill="#EBEBEB"/>
<path d="M80.1986 63.3378H83.2178V61.6854H80.1986V63.3378Z" fill="#23A9B1"/>
<path opacity="0.6" d="M75.1059 74.647H67.8775C67.4219 74.647 67.0513 75.0176 67.0513 75.4732C67.0513 75.9288 67.4219 76.2994 67.8775 76.2994H75.1059C75.5615 76.2994 75.9321 75.9288 75.9321 75.4732C75.9321 75.0142 75.5615 74.647 75.1059 74.647Z" fill="#23A9B1"/>
<path opacity="0.6" d="M75.1059 72.5016H67.8775C67.4219 72.5016 67.0513 72.8722 67.0513 73.3278C67.0513 73.7834 67.4219 74.154 67.8775 74.154H75.1059C75.5615 74.154 75.9321 73.7834 75.9321 73.3278C75.9321 72.8688 75.5615 72.5016 75.1059 72.5016Z" fill="#23A9B1"/>
<path opacity="0.6" d="M75.1059 70.356H67.8775C67.4219 70.356 67.0513 70.7266 67.0513 71.1822C67.0513 71.6378 67.4219 72.0084 67.8775 72.0084H75.1059C75.5615 72.0084 75.9321 71.6378 75.9321 71.1822C75.9321 70.7232 75.5615 70.356 75.1059 70.356Z" fill="#23A9B1"/>
<path d="M76.6873 76.2952H79.7065V74.6428H76.6873V76.2952Z" fill="#23A9B1"/>
<path d="M76.6873 74.1505H79.7065V72.4981H76.6873V74.1505Z" fill="#EBEBEB"/>
<path d="M76.6873 72.0059H79.7065V70.3535H76.6873V72.0059Z" fill="#EBEBEB"/>
<path d="M80.1986 76.2952H83.2178V74.6428H80.1986V76.2952Z" fill="#EBEBEB"/>
<path d="M80.1986 74.1505H83.2178V72.4981H80.1986V74.1505Z" fill="#EBEBEB"/>
<path d="M80.1986 72.0059H83.2178V70.3535H80.1986V72.0059Z" fill="#23A9B1"/>
<path opacity="0.6" d="M75.1059 83.3135H67.8775C67.4219 83.3135 67.0513 83.6841 67.0513 84.1397C67.0513 84.5953 67.4219 84.9659 67.8775 84.9659H75.1059C75.5615 84.9659 75.9321 84.5953 75.9321 84.1397C75.9321 83.6841 75.5615 83.3135 75.1059 83.3135Z" fill="#23A9B1"/>
<path d="M75.1059 81.1681H67.8775C67.4219 81.1681 67.0513 81.5387 67.0513 81.9943C67.0513 82.4499 67.4219 82.8205 67.8775 82.8205H75.1059C75.5615 82.8205 75.9321 82.4499 75.9321 81.9943C75.9321 81.5387 75.5615 81.1681 75.1059 81.1681Z" fill="#EBEBEB"/>
<path opacity="0.6" d="M75.1059 79.0227H67.8775C67.4219 79.0227 67.0513 79.3933 67.0513 79.8489C67.0513 80.3045 67.4219 80.6751 67.8775 80.6751H75.1059C75.5615 80.6751 75.9321 80.3045 75.9321 79.8489C75.9321 79.3933 75.5615 79.0227 75.1059 79.0227Z" fill="#23A9B1"/>
<path d="M76.6873 84.9667H79.7065V83.3143H76.6873V84.9667Z" fill="#EBEBEB"/>
<path d="M76.6873 82.822H79.7065V81.1696H76.6873V82.822Z" fill="#23A9B1"/>
<path d="M76.6873 80.6772H79.7065V79.0248H76.6873V80.6772Z" fill="#EBEBEB"/>
<path d="M80.1986 84.9667H83.2178V83.3143H80.1986V84.9667Z" fill="#23A9B1"/>
<path d="M80.1986 82.822H83.2178V81.1696H80.1986V82.822Z" fill="#23A9B1"/>
<path d="M80.1986 80.6772H83.2178V79.0248H80.1986V80.6772Z" fill="#EBEBEB"/>
<path opacity="0.6" d="M75.1059 91.9835H67.8775C67.4219 91.9835 67.0513 92.3541 67.0513 92.8097C67.0513 93.2653 67.4219 93.6359 67.8775 93.6359H75.1059C75.5615 93.6359 75.9321 93.2653 75.9321 92.8097C75.9321 92.3541 75.5615 91.9835 75.1059 91.9835Z" fill="#23A9B1"/>
<path opacity="0.6" d="M75.1059 89.8381H67.8775C67.4219 89.8381 67.0513 90.2087 67.0513 90.6643C67.0513 91.1199 67.4219 91.4905 67.8775 91.4905H75.1059C75.5615 91.4905 75.9321 91.1199 75.9321 90.6643C75.9321 90.2087 75.5615 89.8381 75.1059 89.8381Z" fill="#23A9B1"/>
<path opacity="0.6" d="M75.1059 87.6927H67.8775C67.4219 87.6927 67.0513 88.0633 67.0513 88.5189C67.0513 88.9745 67.4219 89.3451 67.8775 89.3451H75.1059C75.5615 89.3451 75.9321 88.9745 75.9321 88.5189C75.9321 88.0633 75.5615 87.6927 75.1059 87.6927Z" fill="#23A9B1"/>
<path d="M76.6873 93.6348H79.7065V91.9824H76.6873V93.6348Z" fill="#EBEBEB"/>
<path d="M76.6873 91.4901H79.7065V89.8377H76.6873V91.4901Z" fill="#EBEBEB"/>
<path d="M76.6873 89.3455H79.7065V87.6931H76.6873V89.3455Z" fill="#EBEBEB"/>
<path d="M80.1986 93.6348H83.2178V91.9824H80.1986V93.6348Z" fill="#EBEBEB"/>
<path d="M80.1986 91.4901H83.2178V89.8377H80.1986V91.4901Z" fill="#EBEBEB"/>
<path d="M80.1986 89.3455H83.2178V87.6931H80.1986V89.3455Z" fill="#23A9B1"/>
<path d="M102.751 57.1472H109.684C110.751 57.1472 111.618 58.0142 111.618 59.0818V93.2654C111.618 94.333 110.751 95.2 109.684 95.2H102.751V57.1472Z" fill="#E0E0E0"/>
<path d="M103.441 57.1472H88.5152C87.4476 57.1472 86.5806 58.0142 86.5806 59.0818V93.2654C86.5806 94.333 87.4476 95.2 88.5152 95.2H103.441C104.509 95.2 105.376 94.333 105.376 93.2654V59.0852C105.376 58.0142 104.512 57.1472 103.441 57.1472Z" fill="white"/>
<path d="M105.376 87.3086H86.5806V87.6622H105.376V87.3086Z" fill="#E0E0E0"/>
<path d="M105.376 79.7675H86.5806V80.1211H105.376V79.7675Z" fill="#E0E0E0"/>
<path d="M105.376 72.2296H86.5806V72.5832H105.376V72.2296Z" fill="#E0E0E0"/>
<path d="M105.376 64.6884H86.5806V65.042H105.376V64.6884Z" fill="#E0E0E0"/>
<path opacity="0.6" d="M95.9542 62.2438H89.6676C89.2698 62.2438 88.9502 62.5668 88.9502 62.9612C88.9502 63.359 89.2732 63.6786 89.6676 63.6786H95.9542C96.352 63.6786 96.6716 63.3556 96.6716 62.9612C96.6716 62.5634 96.3486 62.2438 95.9542 62.2438Z" fill="#23A9B1"/>
<path opacity="0.6" d="M95.9542 60.3772H89.6676C89.2698 60.3772 88.9502 60.7002 88.9502 61.0946C88.9502 61.4924 89.2732 61.812 89.6676 61.812H95.9542C96.352 61.812 96.6716 61.489 96.6716 61.0946C96.6716 60.7002 96.3486 60.3772 95.9542 60.3772Z" fill="#23A9B1"/>
<path opacity="0.6" d="M95.9542 58.5106H89.6676C89.2698 58.5106 88.9502 58.8336 88.9502 59.228C88.9502 59.6258 89.2732 59.9454 89.6676 59.9454H95.9542C96.352 59.9454 96.6716 59.6224 96.6716 59.228C96.6716 58.8336 96.3486 58.5106 95.9542 58.5106Z" fill="#23A9B1"/>
<path d="M97.3308 90.1069H99.9556V88.6721H97.3308V90.1069Z" fill="#EBEBEB"/>
<path d="M97.3308 91.9717H99.9556V90.5369H97.3308V91.9717Z" fill="#23A9B1"/>
<path d="M97.3308 93.8398H99.9556V92.405H97.3308V93.8398Z" fill="#EBEBEB"/>
<path d="M100.386 90.1069H103.011V88.6721H100.386V90.1069Z" fill="#EBEBEB"/>
<path d="M100.386 91.9717H103.011V90.5369H100.386V91.9717Z" fill="#EBEBEB"/>
<path d="M100.386 93.8398H103.011V92.405H100.386V93.8398Z" fill="#23A9B1"/>
<path d="M95.9542 69.7816H89.6676C89.2698 69.7816 88.9502 70.1046 88.9502 70.499C88.9502 70.8968 89.2732 71.2164 89.6676 71.2164H95.9542C96.352 71.2164 96.6716 70.8934 96.6716 70.499C96.6716 70.1046 96.3486 69.7816 95.9542 69.7816Z" fill="#EBEBEB"/>
<path opacity="0.6" d="M95.9542 67.9183H89.6676C89.2698 67.9183 88.9502 68.2413 88.9502 68.6357C88.9502 69.0335 89.2732 69.3531 89.6676 69.3531H95.9542C96.352 69.3531 96.6716 69.0301 96.6716 68.6357C96.6716 68.2379 96.3486 67.9183 95.9542 67.9183Z" fill="#23A9B1"/>
<path opacity="0.6" d="M95.9542 66.0518H89.6676C89.2698 66.0518 88.9502 66.3748 88.9502 66.7692C88.9502 67.167 89.2732 67.4866 89.6676 67.4866H95.9542C96.352 67.4866 96.6716 67.1636 96.6716 66.7692C96.6716 66.3714 96.3486 66.0518 95.9542 66.0518Z" fill="#23A9B1"/>
<path d="M97.3308 82.5681H99.9556V81.1333H97.3308V82.5681Z" fill="#EBEBEB"/>
<path d="M97.3308 84.4329H99.9556V82.9981H97.3308V84.4329Z" fill="#EBEBEB"/>
<path d="M97.3308 86.2976H99.9556V84.8628H97.3308V86.2976Z" fill="#23A9B1"/>
<path d="M100.386 82.5681H103.011V81.1333H100.386V82.5681Z" fill="#23A9B1"/>
<path d="M100.386 84.4329H103.011V82.9981H100.386V84.4329Z" fill="#EBEBEB"/>
<path d="M100.386 86.2976H103.011V84.8628H100.386V86.2976Z" fill="#23A9B1"/>
<path opacity="0.6" d="M95.9542 77.3229H89.6676C89.2698 77.3229 88.9502 77.6459 88.9502 78.0403C88.9502 78.4381 89.2732 78.7577 89.6676 78.7577H95.9542C96.352 78.7577 96.6716 78.4347 96.6716 78.0403C96.6716 77.6459 96.3486 77.3229 95.9542 77.3229Z" fill="#23A9B1"/>
<path opacity="0.6" d="M95.9542 75.4563H89.6676C89.2698 75.4563 88.9502 75.7793 88.9502 76.1737C88.9502 76.5715 89.2732 76.8911 89.6676 76.8911H95.9542C96.352 76.8911 96.6716 76.5681 96.6716 76.1737C96.6716 75.7793 96.3486 75.4563 95.9542 75.4563Z" fill="#23A9B1"/>
<path opacity="0.6" d="M95.9542 73.593H89.6676C89.2698 73.593 88.9502 73.916 88.9502 74.3104C88.9502 74.7082 89.2732 75.0278 89.6676 75.0278H95.9542C96.352 75.0278 96.6716 74.7048 96.6716 74.3104C96.6716 73.9126 96.3486 73.593 95.9542 73.593Z" fill="#23A9B1"/>
<path d="M97.3308 75.0261H99.9556V73.5913H97.3308V75.0261Z" fill="#23A9B1"/>
<path d="M97.3308 76.8943H99.9556V75.4595H97.3308V76.8943Z" fill="#EBEBEB"/>
<path d="M97.3308 78.7589H99.9556V77.3241H97.3308V78.7589Z" fill="#EBEBEB"/>
<path d="M100.386 75.0261H103.011V73.5913H100.386V75.0261Z" fill="#EBEBEB"/>
<path d="M100.386 76.8943H103.011V75.4595H100.386V76.8943Z" fill="#EBEBEB"/>
<path d="M100.386 78.7589H103.011V77.3241H100.386V78.7589Z" fill="#23A9B1"/>
<path opacity="0.6" d="M95.9542 84.864H89.6676C89.2698 84.864 88.9502 85.187 88.9502 85.5814C88.9502 85.9792 89.2732 86.2988 89.6676 86.2988H95.9542C96.352 86.2988 96.6716 85.9758 96.6716 85.5814C96.6716 85.1836 96.3486 84.864 95.9542 84.864Z" fill="#23A9B1"/>
<path opacity="0.6" d="M95.9542 82.9974H89.6676C89.2698 82.9974 88.9502 83.3204 88.9502 83.7148C88.9502 84.1126 89.2732 84.4322 89.6676 84.4322H95.9542C96.352 84.4322 96.6716 84.1092 96.6716 83.7148C96.6716 83.317 96.3486 82.9974 95.9542 82.9974Z" fill="#23A9B1"/>
<path opacity="0.6" d="M95.9542 81.1309H89.6676C89.2698 81.1309 88.9502 81.4539 88.9502 81.8483C88.9502 82.2461 89.2732 82.5657 89.6676 82.5657H95.9542C96.352 82.5657 96.6716 82.2427 96.6716 81.8483C96.6716 81.4539 96.3486 81.1309 95.9542 81.1309Z" fill="#23A9B1"/>
<path d="M97.3308 67.4873H99.9556V66.0525H97.3308V67.4873Z" fill="#EBEBEB"/>
<path d="M97.3308 69.3521H99.9556V67.9173H97.3308V69.3521Z" fill="#23A9B1"/>
<path d="M97.3308 71.2201H99.9556V69.7853H97.3308V71.2201Z" fill="#EBEBEB"/>
<path d="M100.386 67.4873H103.011V66.0525H100.386V67.4873Z" fill="#23A9B1"/>
<path d="M100.386 69.3521H103.011V67.9173H100.386V69.3521Z" fill="#EBEBEB"/>
<path d="M100.386 71.2201H103.011V69.7853H100.386V71.2201Z" fill="#EBEBEB"/>
<path opacity="0.6" d="M95.9542 92.4019H89.6676C89.2698 92.4019 88.9502 92.7249 88.9502 93.1193C88.9502 93.5171 89.2732 93.8367 89.6676 93.8367H95.9542C96.352 93.8367 96.6716 93.5137 96.6716 93.1193C96.6716 92.7249 96.3486 92.4019 95.9542 92.4019Z" fill="#23A9B1"/>
<path opacity="0.6" d="M95.9542 90.5387H89.6676C89.2698 90.5387 88.9502 90.8617 88.9502 91.2561C88.9502 91.6539 89.2732 91.9735 89.6676 91.9735H95.9542C96.352 91.9735 96.6716 91.6505 96.6716 91.2561C96.6716 90.8583 96.3486 90.5387 95.9542 90.5387Z" fill="#23A9B1"/>
<path opacity="0.6" d="M95.9542 88.6721H89.6676C89.2698 88.6721 88.9502 88.9951 88.9502 89.3895C88.9502 89.7873 89.2732 90.1069 89.6676 90.1069H95.9542C96.352 90.1069 96.6716 89.7839 96.6716 89.3895C96.6716 88.9917 96.3486 88.6721 95.9542 88.6721Z" fill="#23A9B1"/>
<path d="M97.3308 59.9486H99.9556V58.5138H97.3308V59.9486Z" fill="#23A9B1"/>
<path d="M97.3308 61.8132H99.9556V60.3784H97.3308V61.8132Z" fill="#EBEBEB"/>
<path d="M97.3308 63.6781H99.9556V62.2433H97.3308V63.6781Z" fill="#EBEBEB"/>
<path d="M100.386 59.9486H103.011V58.5138H100.386V59.9486Z" fill="#EBEBEB"/>
<path d="M100.386 61.8132H103.011V60.3784H100.386V61.8132Z" fill="#EBEBEB"/>
<path d="M100.386 63.6781H103.011V62.2433H100.386V63.6781Z" fill="#23A9B1"/>
</svg>
