<svg width="60" height="60" viewBox="0 0 60 60" fill="none" xmlns="http://www.w3.org/2000/svg">
<g clip-path="url(#clip0_856_3049)">
<path d="M24.7266 51.2109H35.2734C35.7588 51.2109 36.1523 50.8174 36.1523 50.332V41.4258C36.1523 40.9404 35.7588 40.5469 35.2734 40.5469H24.7266C24.2412 40.5469 23.8477 40.9404 23.8477 41.4258V50.332C23.8477 50.8174 24.2412 51.2109 24.7266 51.2109ZM25.6055 42.3047H34.3945V49.4531H25.6055V42.3047Z" fill="#252525"/>
<path d="M24.7266 38.7891H35.2734C35.7588 38.7891 36.1523 38.3955 36.1523 37.9102V25.4883C36.1523 25.0029 35.7588 24.6094 35.2734 24.6094H24.7266C24.2412 24.6094 23.8477 25.0029 23.8477 25.4883V37.9102C23.8477 38.3955 24.2412 38.7891 24.7266 38.7891ZM25.6055 26.3672H34.3945V37.0312H25.6055V26.3672Z" fill="#252525"/>
<path d="M58.9682 21.6407L58.9624 21.648C58.87 21.5647 31.6044 0.544219 31.6044 0.544219C31.1365 0.188203 30.5816 0 30 0C29.4156 0 28.8606 0.189141 28.3952 0.546797C28.3143 0.609023 1.02633 21.6425 1.02633 21.6425C0.374063 22.1476 0 22.9086 0 23.7305C0 25.1844 1.18277 26.3672 2.63672 26.3672H3.63281V37.9102C3.63281 38.3955 4.02633 38.7891 4.51172 38.7891C4.99711 38.7891 5.39062 38.3955 5.39062 37.9102V25.4883C5.39062 25.0029 4.99711 24.6094 4.51172 24.6094H2.63672C2.15203 24.6094 1.75781 24.2152 1.75781 23.7305C1.75781 23.4565 1.88344 23.2021 2.10105 23.0336C2.37188 22.8248 29.1566 2.17699 29.4608 1.94473C29.4627 1.94332 29.4645 1.94191 29.4663 1.94051C29.5748 1.85719 29.7554 1.75781 30 1.75781C30.245 1.75781 30.4289 1.85859 30.5357 1.9398C30.8063 2.1484 57.5515 22.7657 57.8889 23.028C57.8916 23.0302 57.8941 23.0323 57.8968 23.0343C58.1163 23.203 58.2422 23.4567 58.2422 23.7305C58.2422 24.2152 57.848 24.6094 57.3633 24.6094H55.4883C55.0029 24.6094 54.6094 25.0029 54.6094 25.4883V40.5469H39.668V21.9727C39.668 21.4873 39.2745 21.0938 38.7891 21.0938H21.2109C20.7255 21.0938 20.332 21.4873 20.332 21.9727V40.5469H4.51172C4.02633 40.5469 3.63281 40.9404 3.63281 41.4258V53.8477C3.63281 54.333 4.02633 54.7266 4.51172 54.7266H19.0891L15.3161 58.4996C15.0647 58.751 14.9895 59.1291 15.1255 59.4574C15.2616 59.7859 15.5821 60 15.9375 60H44.0625C44.418 60 44.7384 59.7859 44.8745 59.4574C45.0105 59.1289 44.9353 58.751 44.6839 58.4996L40.9109 54.7266H55.4883C55.9737 54.7266 56.3672 54.333 56.3672 53.8477V26.3672H57.3633C58.8172 26.3672 60 25.1844 60 23.7305C60 22.9065 59.6239 22.1448 58.9682 21.6407ZM22.0898 22.8516H37.9102V52.9688H22.0898V22.8516ZM5.39062 42.3047H20.332V52.9688H5.39062V42.3047ZM41.9407 58.2422H18.0593L21.5749 54.7266H38.425L41.9407 58.2422ZM39.668 52.9688V42.3047H54.6094V52.9688H39.668Z" fill="#252525"/>
</g>
<defs>
<clipPath id="clip0_856_3049">
<rect width="60" height="60" fill="white"/>
</clipPath>
</defs>
</svg>
