<svg width="12" height="14" viewBox="0 0 12 14" fill="none" xmlns="http://www.w3.org/2000/svg">
<path d="M6 0C4.60818 0.00184628 3.27389 0.555562 2.28973 1.53973C1.30556 2.52389 0.751846 3.85818 0.75 5.25C0.75 9.01906 5.64125 13.7397 5.84906 13.9388C5.88948 13.978 5.94363 14 6 14C6.05637 14 6.11052 13.978 6.15094 13.9388C6.35875 13.7397 11.25 9.01906 11.25 5.25C11.2482 3.85818 10.6944 2.52389 9.71027 1.53973C8.7261 0.555562 7.39182 0.00184628 6 0V0ZM6 7.65625C5.52409 7.65625 5.05887 7.51513 4.66316 7.25072C4.26745 6.98632 3.95904 6.61052 3.77692 6.17083C3.59479 5.73115 3.54714 5.24733 3.63999 4.78056C3.73283 4.3138 3.962 3.88504 4.29852 3.54852C4.63504 3.212 5.0638 2.98283 5.53056 2.88999C5.99733 2.79714 6.48115 2.84479 6.92083 3.02691C7.36052 3.20904 7.73632 3.51745 8.00072 3.91316C8.26513 4.30887 8.40625 4.77409 8.40625 5.25C8.40587 5.88806 8.15223 6.49988 7.70105 6.95105C7.24988 7.40223 6.63806 7.65587 6 7.65625Z" fill="#23A9B1"/>
</svg>
