<svg width="60" height="60" viewBox="0 0 60 60" fill="none" xmlns="http://www.w3.org/2000/svg">
<path d="M32.0027 3.2432H29.6189C29.4039 3.2432 29.1976 3.15778 29.0456 3.00572C28.8935 2.85367 28.8081 2.64743 28.8081 2.43239C28.8081 2.21735 28.8935 2.01112 29.0456 1.85906C29.1976 1.70701 29.4039 1.62158 29.6189 1.62158H32.0027C32.2177 1.62158 32.424 1.70701 32.576 1.85906C32.7281 2.01112 32.8135 2.21735 32.8135 2.43239C32.8135 2.64743 32.7281 2.85367 32.576 3.00572C32.424 3.15778 32.2177 3.2432 32.0027 3.2432Z" fill="#252525"/>
<path d="M45.4053 58.3783H14.5945C14.3795 58.3783 14.1732 58.2929 14.0212 58.1409C13.8691 57.9888 13.7837 57.7826 13.7837 57.5675V2.43239C13.7837 2.21735 13.8691 2.01112 14.0212 1.85906C14.1732 1.70701 14.3795 1.62158 14.5945 1.62158H23.9432C24.1582 1.62158 24.3644 1.70701 24.5165 1.85906C24.6685 2.01112 24.754 2.21735 24.754 2.43239C24.754 2.64743 24.6685 2.85367 24.5165 3.00572C24.3644 3.15778 24.1582 3.2432 23.9432 3.2432H15.4053V56.7567H44.5945V3.2432H37.6783C37.4632 3.2432 37.257 3.15778 37.105 3.00572C36.9529 2.85367 36.8675 2.64743 36.8675 2.43239C36.8675 2.21735 36.9529 2.01112 37.105 1.85906C37.257 1.70701 37.4632 1.62158 37.6783 1.62158H45.4053C45.6204 1.62158 45.8266 1.70701 45.9786 1.85906C46.1307 2.01112 46.2161 2.21735 46.2161 2.43239V57.5675C46.2161 57.7826 46.1307 57.9888 45.9786 58.1409C45.8266 58.2929 45.6204 58.3783 45.4053 58.3783Z" fill="#252525"/>
<path d="M36.892 58.3784H23.1082C22.8931 58.3784 22.6869 58.293 22.5348 58.1409C22.3828 57.9889 22.2974 57.7826 22.2974 57.5676V39.7298C22.2974 39.5147 22.3828 39.3085 22.5348 39.1564C22.6869 39.0044 22.8931 38.9189 23.1082 38.9189H36.892C37.107 38.9189 37.3132 39.0044 37.4653 39.1564C37.6173 39.3085 37.7028 39.5147 37.7028 39.7298V57.5676C37.7028 57.7826 37.6173 57.9889 37.4653 58.1409C37.3132 58.293 37.107 58.3784 36.892 58.3784ZM23.919 56.7568H36.0811V40.5406H23.919V56.7568Z" fill="#252525"/>
<path d="M57.5677 58.3784H45.4055C45.1905 58.3784 44.9843 58.293 44.8322 58.1409C44.6802 57.9889 44.5947 57.7826 44.5947 57.5676V19.4595C44.5947 19.2445 44.6802 19.0382 44.8322 18.8862C44.9843 18.7341 45.1905 18.6487 45.4055 18.6487H57.5677C57.7827 18.6487 57.989 18.7341 58.141 18.8862C58.2931 19.0382 58.3785 19.2445 58.3785 19.4595V57.5676C58.3785 57.7826 58.2931 57.9889 58.141 58.1409C57.989 58.293 57.7827 58.3784 57.5677 58.3784ZM46.2163 56.7568H56.7569V20.2703H46.2163V56.7568Z" fill="#252525"/>
<path d="M14.5946 58.3784H2.43239C2.21735 58.3784 2.01112 58.293 1.85906 58.1409C1.70701 57.9889 1.62158 57.7826 1.62158 57.5676V19.4595C1.62158 19.2445 1.70701 19.0382 1.85906 18.8862C2.01112 18.7341 2.21735 18.6487 2.43239 18.6487H14.5946C14.8096 18.6487 15.0158 18.7341 15.1679 18.8862C15.3199 19.0382 15.4054 19.2445 15.4054 19.4595V57.5676C15.4054 57.7826 15.3199 57.9889 15.1679 58.1409C15.0158 58.293 14.8096 58.3784 14.5946 58.3784ZM3.2432 56.7568H13.7837V20.2703H3.2432V56.7568Z" fill="#252525"/>
<path d="M57.5676 28.8852H50.2703C50.0552 28.8852 49.849 28.7998 49.697 28.6477C49.5449 28.4957 49.4595 28.2894 49.4595 28.0744V24.6284C49.4595 24.4134 49.5449 24.2072 49.697 24.0551C49.849 23.9031 50.0552 23.8176 50.2703 23.8176H57.5676C57.7826 23.8176 57.9889 23.9031 58.1409 24.0551C58.293 24.2072 58.3784 24.4134 58.3784 24.6284V28.0744C58.3784 28.2894 58.293 28.4957 58.1409 28.6477C57.9889 28.7998 57.7826 28.8852 57.5676 28.8852ZM51.0811 27.2636H56.7568V25.4392H51.0811V27.2636Z" fill="#252525"/>
<path d="M57.5676 36.9932H50.2703C50.0552 36.9932 49.849 36.9078 49.697 36.7557C49.5449 36.6037 49.4595 36.3975 49.4595 36.1824V32.7365C49.4595 32.5214 49.5449 32.3152 49.697 32.1631C49.849 32.0111 50.0552 31.9257 50.2703 31.9257H57.5676C57.7826 31.9257 57.9889 32.0111 58.1409 32.1631C58.293 32.3152 58.3784 32.5214 58.3784 32.7365V36.1824C58.3784 36.3975 58.293 36.6037 58.1409 36.7557C57.9889 36.9078 57.7826 36.9932 57.5676 36.9932ZM51.0811 35.3716H56.7568V33.5473H51.0811V35.3716Z" fill="#252525"/>
<path d="M57.5676 45.1014H50.2703C50.0552 45.1014 49.849 45.016 49.697 44.8639C49.5449 44.7118 49.4595 44.5056 49.4595 44.2906V40.8446C49.4595 40.6296 49.5449 40.4234 49.697 40.2713C49.849 40.1192 50.0552 40.0338 50.2703 40.0338H57.5676C57.7826 40.0338 57.9889 40.1192 58.1409 40.2713C58.293 40.4234 58.3784 40.6296 58.3784 40.8446V44.2906C58.3784 44.5056 58.293 44.7118 58.1409 44.8639C57.9889 45.016 57.7826 45.1014 57.5676 45.1014ZM51.0811 43.4798H56.7568V41.6554H51.0811V43.4798Z" fill="#252525"/>
<path d="M57.5676 53.2094H50.2703C50.0552 53.2094 49.849 53.124 49.697 52.9719C49.5449 52.8199 49.4595 52.6136 49.4595 52.3986V48.9527C49.4595 48.7376 49.5449 48.5314 49.697 48.3793C49.849 48.2273 50.0552 48.1418 50.2703 48.1418H57.5676C57.7826 48.1418 57.9889 48.2273 58.1409 48.3793C58.293 48.5314 58.3784 48.7376 58.3784 48.9527V52.3986C58.3784 52.6136 58.293 52.8199 58.1409 52.9719C57.9889 53.124 57.7826 53.2094 57.5676 53.2094ZM51.0811 51.5878H56.7568V49.7635H51.0811V51.5878Z" fill="#252525"/>
<path d="M9.72969 28.8852H2.43239C2.21735 28.8852 2.01112 28.7998 1.85906 28.6477C1.70701 28.4957 1.62158 28.2894 1.62158 28.0744V24.6284C1.62158 24.4134 1.70701 24.2072 1.85906 24.0551C2.01112 23.9031 2.21735 23.8176 2.43239 23.8176H9.72969C9.94473 23.8176 10.151 23.9031 10.303 24.0551C10.4551 24.2072 10.5405 24.4134 10.5405 24.6284V28.0744C10.5405 28.2894 10.4551 28.4957 10.303 28.6477C10.151 28.7998 9.94473 28.8852 9.72969 28.8852ZM3.2432 27.2636H8.91888V25.4392H3.2432V27.2636Z" fill="#252525"/>
<path d="M9.72969 36.9932H2.43239C2.21735 36.9932 2.01112 36.9078 1.85906 36.7557C1.70701 36.6037 1.62158 36.3975 1.62158 36.1824V32.7365C1.62158 32.5214 1.70701 32.3152 1.85906 32.1631C2.01112 32.0111 2.21735 31.9257 2.43239 31.9257H9.72969C9.94473 31.9257 10.151 32.0111 10.303 32.1631C10.4551 32.3152 10.5405 32.5214 10.5405 32.7365V36.1824C10.5405 36.3975 10.4551 36.6037 10.303 36.7557C10.151 36.9078 9.94473 36.9932 9.72969 36.9932ZM3.2432 35.3716H8.91888V33.5473H3.2432V35.3716Z" fill="#252525"/>
<path d="M9.72969 45.1014H2.43239C2.21735 45.1014 2.01112 45.016 1.85906 44.8639C1.70701 44.7118 1.62158 44.5056 1.62158 44.2906V40.8446C1.62158 40.6296 1.70701 40.4234 1.85906 40.2713C2.01112 40.1192 2.21735 40.0338 2.43239 40.0338H9.72969C9.94473 40.0338 10.151 40.1192 10.303 40.2713C10.4551 40.4234 10.5405 40.6296 10.5405 40.8446V44.2906C10.5405 44.5056 10.4551 44.7118 10.303 44.8639C10.151 45.016 9.94473 45.1014 9.72969 45.1014ZM3.2432 43.4798H8.91888V41.6554H3.2432V43.4798Z" fill="#252525"/>
<path d="M9.72969 53.2094H2.43239C2.21735 53.2094 2.01112 53.124 1.85906 52.9719C1.70701 52.8199 1.62158 52.6136 1.62158 52.3986V48.9527C1.62158 48.7376 1.70701 48.5314 1.85906 48.3793C2.01112 48.2273 2.21735 48.1418 2.43239 48.1418H9.72969C9.94473 48.1418 10.151 48.2273 10.303 48.3793C10.4551 48.5314 10.5405 48.7376 10.5405 48.9527V52.3986C10.5405 52.6136 10.4551 52.8199 10.303 52.9719C10.151 53.124 9.94473 53.2094 9.72969 53.2094ZM3.2432 51.5878H8.91888V49.7635H3.2432V51.5878Z" fill="#252525"/>
<path d="M39.7297 9.99967H20.2703C20.0552 9.99967 19.849 9.91425 19.697 9.76219C19.5449 9.61014 19.4595 9.4039 19.4595 9.18886C19.4595 8.97382 19.5449 8.76759 19.697 8.61553C19.849 8.46348 20.0552 8.37805 20.2703 8.37805H39.7297C39.9448 8.37805 40.151 8.46348 40.3031 8.61553C40.4551 8.76759 40.5406 8.97382 40.5406 9.18886C40.5406 9.4039 40.4551 9.61014 40.3031 9.76219C40.151 9.91425 39.9448 9.99967 39.7297 9.99967Z" fill="#252525"/>
<path d="M39.7297 17.117H20.2703C20.0552 17.117 19.849 17.0316 19.697 16.8795C19.5449 16.7274 19.4595 16.5212 19.4595 16.3062C19.4595 16.0911 19.5449 15.8849 19.697 15.7328C19.849 15.5808 20.0552 15.4954 20.2703 15.4954H39.7297C39.9448 15.4954 40.151 15.5808 40.3031 15.7328C40.4551 15.8849 40.5406 16.0911 40.5406 16.3062C40.5406 16.5212 40.4551 16.7274 40.3031 16.8795C40.151 17.0316 39.9448 17.117 39.7297 17.117Z" fill="#252525"/>
<path d="M39.7297 24.2343H20.2703C20.0552 24.2343 19.849 24.1489 19.697 23.9968C19.5449 23.8448 19.4595 23.6385 19.4595 23.4235C19.4595 23.2084 19.5449 23.0022 19.697 22.8502C19.849 22.6981 20.0552 22.6127 20.2703 22.6127H39.7297C39.9448 22.6127 40.151 22.6981 40.3031 22.8502C40.4551 23.0022 40.5406 23.2084 40.5406 23.4235C40.5406 23.6385 40.4551 23.8448 40.3031 23.9968C40.151 24.1489 39.9448 24.2343 39.7297 24.2343Z" fill="#252525"/>
<path d="M39.7297 31.3516H20.2703C20.0552 31.3516 19.849 31.2662 19.697 31.1141C19.5449 30.9621 19.4595 30.7558 19.4595 30.5408C19.4595 30.3258 19.5449 30.1195 19.697 29.9675C19.849 29.8154 20.0552 29.73 20.2703 29.73H39.7297C39.9448 29.73 40.151 29.8154 40.3031 29.9675C40.4551 30.1195 40.5406 30.3258 40.5406 30.5408C40.5406 30.7558 40.4551 30.9621 40.3031 31.1141C40.151 31.2662 39.9448 31.3516 39.7297 31.3516Z" fill="#252525"/>
</svg>
