<svg width="170" height="170" viewBox="0 0 170 170" fill="none" xmlns="http://www.w3.org/2000/svg">
<path d="M120.69 55.7226C120.69 55.7226 122.801 56.6066 123.573 58.8268C123.573 58.8268 123.342 55.335 124.964 53.9444C124.964 53.9444 123.498 55.1038 123.189 56.8004C123.186 56.8004 122.363 55.9572 120.69 55.7226Z" fill="#263238"/>
<path d="M113.502 46.9608C113.502 46.9608 116.188 49.0484 116.923 50.9728C116.923 50.9728 117.334 48.9056 119.279 48.2902C119.279 48.2902 117.875 48.1814 116.923 49.487C116.923 49.487 115.903 47.804 113.502 46.9608Z" fill="#263238"/>
<path d="M110.633 56.0422C110.633 56.0422 112.836 55.692 113.887 57.0418C113.887 57.0418 113.237 55.0392 113.887 53.6894C113.887 53.6894 113.02 54.247 113.319 56.2564C113.319 56.2564 112.482 55.3928 110.633 56.0422Z" fill="#263238"/>
<path d="M170 130.016H0V130.101H170V130.016Z" fill="#EBEBEB"/>
<path d="M46.8043 132.331H35.5435V132.416H46.8043V132.331Z" fill="#EBEBEB"/>
<path d="M72.0425 135.446H58.1875V135.531H72.0425V135.446Z" fill="#EBEBEB"/>
<path d="M35.2036 134.382H17.8364V134.467H35.2036V134.382Z" fill="#EBEBEB"/>
<path d="M152.966 132.903H121.298V132.988H152.966V132.903Z" fill="#EBEBEB"/>
<path d="M108.61 134.337H94.2515V134.422H108.61V134.337Z" fill="#EBEBEB"/>
<path d="M80.5798 114.852H14.9292C13.8582 114.849 12.9912 113.982 12.9912 112.911V20.6244C13.0014 19.5602 13.865 18.7034 14.9292 18.7H80.5798C81.6508 18.7 82.5212 19.5704 82.5212 20.6414V112.911C82.5212 113.982 81.6508 114.852 80.5798 114.852ZM14.9292 18.768C13.9058 18.7714 13.0762 19.601 13.0762 20.6244V112.911C13.0762 113.934 13.9058 114.764 14.9292 114.767H80.5798C81.6032 114.764 82.4328 113.934 82.4362 112.911V20.6244C82.4328 19.601 81.6032 18.7714 80.5798 18.768H14.9292Z" fill="#EBEBEB"/>
<path d="M154.125 114.852H88.4712C87.4002 114.849 86.5332 113.982 86.5298 112.911V20.6244C86.54 19.5602 87.407 18.7034 88.4712 18.7H154.125C155.189 18.7034 156.05 19.5602 156.06 20.6244V112.911C156.06 113.982 155.196 114.849 154.125 114.852ZM88.4712 18.768C87.4478 18.7714 86.6182 19.601 86.6148 20.6244V112.911C86.6182 113.934 87.4478 114.764 88.4712 114.767H154.125C155.149 114.764 155.978 113.934 155.982 112.911V20.6244C155.978 19.601 155.149 18.7714 154.125 18.768H88.4712Z" fill="#EBEBEB"/>
<path d="M73.0049 36.805H100.222C100.222 36.805 98.5729 34.2142 95.7441 35.5096C95.7441 35.5096 95.2137 32.7998 93.3879 32.742C91.5621 32.6842 90.9127 34.0986 90.9127 34.0986C90.9127 34.0986 88.7911 30.8006 85.5509 31.5078C82.3107 32.215 82.0149 35.2206 82.0149 35.2206C82.0149 35.2206 77.1903 32.742 73.0049 36.805Z" fill="#FAFAFA"/>
<path d="M23.2559 74.7014H50.4729C50.4729 74.7014 48.8239 72.1106 45.9951 73.406C45.9951 73.406 45.4647 70.6962 43.6389 70.6384C41.8131 70.5806 41.1637 71.995 41.1637 71.995C41.1637 71.995 39.0421 68.697 35.8019 69.4042C32.5617 70.1114 32.2659 73.117 32.2659 73.117C32.2659 73.117 27.4379 70.635 23.2559 74.7014Z" fill="#FAFAFA"/>
<path d="M126.667 56.3754H153.884C153.884 56.3754 152.235 53.7846 149.406 55.08C149.406 55.08 148.876 52.3702 147.05 52.3124C145.224 52.2546 144.575 53.669 144.575 53.669C144.575 53.669 142.453 50.371 139.213 51.0782C135.973 51.7854 135.677 54.791 135.677 54.791C135.677 54.791 130.849 52.3124 126.667 56.3754Z" fill="#FAFAFA"/>
<path d="M124.994 40.1954C125.346 38.7135 124.429 37.2275 122.947 36.8763C121.465 36.5252 119.979 37.4418 119.628 38.9237C119.277 40.4056 120.194 41.8916 121.675 42.2428C123.157 42.594 124.643 41.6773 124.994 40.1954Z" fill="#F0F0F0"/>
<path d="M20.6548 56.3754H47.8718C47.8718 56.3754 46.2228 53.7846 43.394 55.08C43.394 55.08 42.8636 52.3702 41.0378 52.3124C39.212 52.2546 38.5626 53.669 38.5626 53.669C38.5626 53.669 36.441 50.371 33.2008 51.0782C29.9606 51.7854 29.6648 54.791 29.6648 54.791C29.6648 54.791 24.8368 52.3124 20.6548 56.3754Z" fill="#FAFAFA"/>
<path d="M69.4554 64.6238H40.5962V120.945H69.4554V64.6238Z" fill="#E6E6E6"/>
<path d="M64.2092 64.6238H40.5962V120.945H64.2092V64.6238Z" fill="#F0F0F0"/>
<path d="M69.7955 64.6238H39.9741V65.5418H69.7955V64.6238Z" fill="#E0E0E0"/>
<path d="M69.7955 62.7844H39.9741V63.7024H69.7955V62.7844Z" fill="#E0E0E0"/>
<path d="M69.1698 63.7024H40.5962V64.6204H69.1698V63.7024Z" fill="#F0F0F0"/>
<path d="M47.2705 67.9388H42.8369V72.3724H47.2705V67.9388Z" fill="#E6E6E6"/>
<path d="M47.2706 67.9388H43.228V72.3724H47.2706V67.9388Z" fill="#F5F5F5"/>
<path d="M53.9888 67.9388H49.5552V72.3724H53.9888V67.9388Z" fill="#E6E6E6"/>
<path d="M53.9889 67.9388H49.9463V72.3724H53.9889V67.9388Z" fill="#F5F5F5"/>
<path d="M60.7041 67.9388H56.2705V72.3724H60.7041V67.9388Z" fill="#E6E6E6"/>
<path d="M60.7042 67.9388H56.6616V72.3724H60.7042V67.9388Z" fill="#F5F5F5"/>
<path d="M47.2705 74.4702H42.8369V78.9038H47.2705V74.4702Z" fill="#E6E6E6"/>
<path d="M47.2706 74.4702H43.228V78.9038H47.2706V74.4702Z" fill="#F5F5F5"/>
<path d="M53.9888 74.4702H49.5552V78.9038H53.9888V74.4702Z" fill="#E6E6E6"/>
<path d="M53.9889 74.4702H49.9463V78.9038H53.9889V74.4702Z" fill="#F5F5F5"/>
<path d="M60.7041 74.4702H56.2705V78.9038H60.7041V74.4702Z" fill="#E6E6E6"/>
<path d="M60.7042 74.4702H56.6616V78.9038H60.7042V74.4702Z" fill="#F5F5F5"/>
<path d="M47.2705 86.428H42.8369V90.8616H47.2705V86.428Z" fill="#E6E6E6"/>
<path d="M47.2706 86.428H43.228V90.8616H47.2706V86.428Z" fill="#F5F5F5"/>
<path d="M53.9888 86.428H49.5552V90.8616H53.9888V86.428Z" fill="#E6E6E6"/>
<path d="M53.9889 86.428H49.9463V90.8616H53.9889V86.428Z" fill="#F5F5F5"/>
<path d="M60.7041 86.428H56.2705V90.8616H60.7041V86.428Z" fill="#E6E6E6"/>
<path d="M60.7042 86.428H56.6616V90.8616H60.7042V86.428Z" fill="#F5F5F5"/>
<path d="M47.2705 92.9594H42.8369V97.393H47.2705V92.9594Z" fill="#E6E6E6"/>
<path d="M47.2706 92.9594H43.228V97.393H47.2706V92.9594Z" fill="#F5F5F5"/>
<path d="M53.9888 92.9594H49.5552V97.393H53.9888V92.9594Z" fill="#E6E6E6"/>
<path d="M53.9889 92.9594H49.9463V97.393H53.9889V92.9594Z" fill="#F5F5F5"/>
<path d="M60.7041 92.9594H56.2705V97.393H60.7041V92.9594Z" fill="#E6E6E6"/>
<path d="M60.7042 92.9594H56.6616V97.393H60.7042V92.9594Z" fill="#F5F5F5"/>
<path d="M47.2705 106.25H42.8369V110.684H47.2705V106.25Z" fill="#E6E6E6"/>
<path d="M47.2706 106.25H43.228V110.684H47.2706V106.25Z" fill="#F5F5F5"/>
<path d="M53.9888 106.25H49.5552V110.684H53.9888V106.25Z" fill="#E6E6E6"/>
<path d="M53.9889 106.25H49.9463V110.684H53.9889V106.25Z" fill="#F5F5F5"/>
<path d="M60.7041 106.25H56.2705V110.684H60.7041V106.25Z" fill="#E6E6E6"/>
<path d="M60.7042 106.25H56.6616V110.684H60.7042V106.25Z" fill="#F5F5F5"/>
<path d="M47.2705 112.781H42.8369V117.215H47.2705V112.781Z" fill="#E6E6E6"/>
<path d="M47.2706 112.781H43.228V117.215H47.2706V112.781Z" fill="#F5F5F5"/>
<path d="M53.9888 112.781H49.5552V117.215H53.9888V112.781Z" fill="#E6E6E6"/>
<path d="M53.9889 112.781H49.9463V117.215H53.9889V112.781Z" fill="#F5F5F5"/>
<path d="M60.7041 112.781H56.2705V117.215H60.7041V112.781Z" fill="#E6E6E6"/>
<path d="M60.7042 112.781H56.6616V117.215H60.7042V112.781Z" fill="#F5F5F5"/>
<path d="M69.4554 82.0216H40.5962V82.433H69.4554V82.0216Z" fill="#E0E0E0"/>
<path d="M69.4554 102.466H40.5962V102.877H69.4554V102.466Z" fill="#E0E0E0"/>
<path d="M35.7241 81.4878H15.7627V130.06H35.7241V81.4878Z" fill="#E0E0E0"/>
<path d="M30.0393 81.4878H15.7627V130.06H30.0393V81.4878Z" fill="#F0F0F0"/>
<path d="M22.5456 85.4794H17.2314V88.06H22.5456V85.4794Z" fill="#E6E6E6"/>
<path d="M22.5456 85.4794H17.585V88.06H22.5456V85.4794Z" fill="#F5F5F5"/>
<path d="M28.6926 85.4794H23.3784V88.06H28.6926V85.4794Z" fill="#E6E6E6"/>
<path d="M28.6891 85.4794H23.7319V88.06H28.6891V85.4794Z" fill="#F5F5F5"/>
<path d="M22.5456 90.3346H17.2314V92.9152H22.5456V90.3346Z" fill="#E6E6E6"/>
<path d="M22.5456 90.3346H17.585V92.9152H22.5456V90.3346Z" fill="#F5F5F5"/>
<path d="M28.6926 90.3346H23.3784V92.9152H28.6926V90.3346Z" fill="#E6E6E6"/>
<path d="M28.6891 90.3346H23.7319V92.9152H28.6891V90.3346Z" fill="#F5F5F5"/>
<path d="M22.5456 96.5396H17.2314V99.1202H22.5456V96.5396Z" fill="#E6E6E6"/>
<path d="M22.5456 96.5396H17.585V99.1202H22.5456V96.5396Z" fill="#F5F5F5"/>
<path d="M28.6926 96.5396H23.3784V99.1202H28.6926V96.5396Z" fill="#E6E6E6"/>
<path d="M28.6891 96.5396H23.7319V99.1202H28.6891V96.5396Z" fill="#F5F5F5"/>
<path d="M22.5456 100.103H17.2314V102.683H22.5456V100.103Z" fill="#E6E6E6"/>
<path d="M22.5456 100.103H17.585V102.683H22.5456V100.103Z" fill="#F5F5F5"/>
<path d="M28.6926 100.103H23.3784V102.683H28.6926V100.103Z" fill="#E6E6E6"/>
<path d="M28.6891 100.103H23.7319V102.683H28.6891V100.103Z" fill="#F5F5F5"/>
<path d="M22.5456 105.961H17.2314V108.542H22.5456V105.961Z" fill="#E6E6E6"/>
<path d="M22.5456 105.961H17.585V108.542H22.5456V105.961Z" fill="#F5F5F5"/>
<path d="M28.6926 105.961H23.3784V108.542H28.6926V105.961Z" fill="#E6E6E6"/>
<path d="M28.6891 105.961H23.7319V108.542H28.6891V105.961Z" fill="#F5F5F5"/>
<path d="M22.5456 109.524H17.2314V112.105H22.5456V109.524Z" fill="#E6E6E6"/>
<path d="M22.5456 109.524H17.585V112.105H22.5456V109.524Z" fill="#F5F5F5"/>
<path d="M28.6926 109.524H23.3784V112.105H28.6926V109.524Z" fill="#E6E6E6"/>
<path d="M28.6891 109.524H23.7319V112.105H28.6891V109.524Z" fill="#F5F5F5"/>
<path d="M22.5456 115.899H17.2314V118.48H22.5456V115.899Z" fill="#E6E6E6"/>
<path d="M22.5456 115.899H17.585V118.48H22.5456V115.899Z" fill="#F5F5F5"/>
<path d="M28.6926 115.899H23.3784V118.48H28.6926V115.899Z" fill="#E6E6E6"/>
<path d="M28.6891 115.899H23.7319V118.48H28.6891V115.899Z" fill="#F5F5F5"/>
<path d="M22.5456 120.605H17.2314V123.185H22.5456V120.605Z" fill="#E6E6E6"/>
<path d="M22.5456 120.605H17.585V123.185H22.5456V120.605Z" fill="#F5F5F5"/>
<path d="M28.6926 120.605H23.3784V123.185H28.6926V120.605Z" fill="#E6E6E6"/>
<path d="M28.6891 120.605H23.7319V123.185H28.6891V120.605Z" fill="#F5F5F5"/>
<path opacity="0.05" d="M35.7241 94.5031H15.7627V94.945H35.7241V94.5031Z" fill="black"/>
<path opacity="0.05" d="M35.7241 104.098H15.7627V104.54H35.7241V104.098Z" fill="black"/>
<path opacity="0.05" d="M35.7241 113.778H15.7627V114.22H35.7241V113.778Z" fill="black"/>
<path d="M35.7206 80.0496H14.8208V81.6H35.7206V80.0496Z" fill="#E0E0E0"/>
<path opacity="0.05" d="M35.7238 80.0496H30.9468V81.6H35.7238V80.0496Z" fill="black"/>
<path d="M104.822 56.1884H81.3828V117.106H104.822V56.1884Z" fill="#E6E6E6"/>
<path d="M96.1457 56.1884H72.7061V117.106H96.1457V56.1884Z" fill="#F0F0F0"/>
<path d="M94.1023 60.3228H74.7529V63.427H94.1023V60.3228Z" fill="#E6E6E6"/>
<path d="M94.099 60.3228H75.501V63.427H94.099V60.3228Z" fill="#F5F5F5"/>
<path d="M94.1023 65.5486H74.7529V68.6528H94.1023V65.5486Z" fill="#E6E6E6"/>
<path d="M94.099 65.5486H75.501V68.6528H94.099V65.5486Z" fill="#F5F5F5"/>
<path d="M94.1023 70.975H74.7529V74.0792H94.1023V70.975Z" fill="#E6E6E6"/>
<path d="M94.099 70.975H75.501V74.0792H94.099V70.975Z" fill="#F5F5F5"/>
<path d="M94.1023 76.4048H74.7529V79.509H94.1023V76.4048Z" fill="#E6E6E6"/>
<path d="M94.099 76.4048H75.501V79.509H94.099V76.4048Z" fill="#F5F5F5"/>
<path d="M94.1023 81.8312H74.7529V84.9354H94.1023V81.8312Z" fill="#E6E6E6"/>
<path d="M94.099 81.8312H75.501V84.9354H94.099V81.8312Z" fill="#F5F5F5"/>
<path d="M94.1023 87.261H74.7529V90.3652H94.1023V87.261Z" fill="#E6E6E6"/>
<path d="M94.099 87.261H75.501V90.3652H94.099V87.261Z" fill="#F5F5F5"/>
<path d="M94.1023 93.2416H74.7529V96.3458H94.1023V93.2416Z" fill="#E6E6E6"/>
<path d="M94.099 93.2416H75.501V96.3458H94.099V93.2416Z" fill="#F5F5F5"/>
<path d="M94.1023 99.2256H74.7529V102.33H94.1023V99.2256Z" fill="#E6E6E6"/>
<path d="M94.099 99.2256H75.501V102.33H94.099V99.2256Z" fill="#F5F5F5"/>
<path d="M94.1023 105.21H74.7529V108.314H94.1023V105.21Z" fill="#E6E6E6"/>
<path d="M94.099 105.21H75.501V108.314H94.099V105.21Z" fill="#F5F5F5"/>
<path d="M94.1023 111.19H74.7529V114.294H94.1023V111.19Z" fill="#E6E6E6"/>
<path d="M94.099 111.19H75.501V114.294H94.099V111.19Z" fill="#F5F5F5"/>
<path d="M105.431 55.5764H72.043V57.0622H105.431V55.5764Z" fill="#E0E0E0"/>
<path d="M105.431 52.8938H72.043V54.3796H105.431V52.8938Z" fill="#E0E0E0"/>
<path d="M104.323 54.0872H72.7061V55.573H104.323V54.0872Z" fill="#F0F0F0"/>
<path d="M104.822 60.3228H98.291V63.427H104.822V60.3228Z" fill="#E0E0E0"/>
<path d="M104.822 65.4296H98.291V68.5338H104.822V65.4296Z" fill="#E0E0E0"/>
<path d="M104.822 70.5398H98.291V73.644H104.822V70.5398Z" fill="#E0E0E0"/>
<path d="M104.822 76.4014H98.291V79.5056H104.822V76.4014Z" fill="#E0E0E0"/>
<path d="M104.822 81.8312H98.291V84.9354H104.822V81.8312Z" fill="#E0E0E0"/>
<path d="M104.822 87.261H98.291V90.3652H104.822V87.261Z" fill="#E0E0E0"/>
<path d="M104.822 93.2416H98.291V96.3458H104.822V93.2416Z" fill="#E0E0E0"/>
<path d="M104.822 99.2256H98.291V102.33H104.822V99.2256Z" fill="#E0E0E0"/>
<path d="M104.822 105.206H98.291V108.31H104.822V105.206Z" fill="#E0E0E0"/>
<path d="M104.822 111.19H98.291V114.294H104.822V111.19Z" fill="#E0E0E0"/>
<path d="M157.876 102.915H155.996V105.856H157.876V102.915Z" fill="#E0E0E0"/>
<path d="M157.876 107.729H155.996V110.67H157.876V107.729Z" fill="#E0E0E0"/>
<path d="M157.876 112.404H155.996V115.345H157.876V112.404Z" fill="#E0E0E0"/>
<path d="M157.876 117.351H155.996V120.292H157.876V117.351Z" fill="#E0E0E0"/>
<path d="M157.876 122.162H155.996V125.103H157.876V122.162Z" fill="#E0E0E0"/>
<path d="M157.876 99.96H138.098V130.04H157.876V99.96Z" fill="#E6E6E6"/>
<path d="M154.537 99.96H138.102V130.04H154.537V99.96Z" fill="#F0F0F0"/>
<path d="M152.946 102.915H139.581V105.856H152.946V102.915Z" fill="#EBEBEB"/>
<path d="M152.946 107.729H139.581V110.67H152.946V107.729Z" fill="#EBEBEB"/>
<path d="M152.946 112.54H139.581V115.481H152.946V112.54Z" fill="#EBEBEB"/>
<path d="M152.946 117.351H139.581V120.292H152.946V117.351Z" fill="#EBEBEB"/>
<path d="M152.946 122.162H139.581V125.103H152.946V122.162Z" fill="#EBEBEB"/>
<path d="M152.943 102.915H140.07V105.856H152.943V102.915Z" fill="#F5F5F5"/>
<path d="M152.943 107.729H140.07V110.67H152.943V107.729Z" fill="#F5F5F5"/>
<path d="M152.943 112.54H140.07V115.481H152.943V112.54Z" fill="#F5F5F5"/>
<path d="M152.943 117.351H140.07V120.292H152.943V117.351Z" fill="#F5F5F5"/>
<path d="M152.943 122.162H140.07V125.103H152.943V122.162Z" fill="#F5F5F5"/>
<path d="M74.222 74.6368H40.5518V140.345H74.222V74.6368Z" fill="#23A9B1"/>
<path opacity="0.4" d="M68.102 74.6368H40.5518V140.345H68.102V74.6368Z" fill="white"/>
<path d="M74.6198 74.6368H39.8276V75.7078H74.6198V74.6368Z" fill="#23A9B1"/>
<path d="M74.6198 72.4914H39.8276V73.5658H74.6198V72.4914Z" fill="#23A9B1"/>
<path d="M73.8888 73.5658H40.5518V74.6368H73.8888V73.5658Z" fill="#F0F0F0"/>
<path d="M48.3408 78.506H43.166V83.6808H48.3408V78.506Z" fill="#23A9B1"/>
<path opacity="0.2" d="M48.3408 78.506H43.6216V83.6808H48.3408V78.506Z" fill="white"/>
<path d="M56.1782 78.506H51.0034V83.6808H56.1782V78.506Z" fill="#23A9B1"/>
<path opacity="0.2" d="M56.1782 78.506H51.459V83.6808H56.1782V78.506Z" fill="white"/>
<path d="M64.0117 78.506H58.8369V83.6808H64.0117V78.506Z" fill="#23A9B1"/>
<path opacity="0.2" d="M64.0117 78.506H59.2925V83.6808H64.0117V78.506Z" fill="white"/>
<path d="M48.3408 86.1254H43.166V91.3002H48.3408V86.1254Z" fill="#23A9B1"/>
<path opacity="0.2" d="M48.3408 86.1254H43.6216V91.3002H48.3408V86.1254Z" fill="white"/>
<path d="M56.1782 86.1254H51.0034V91.3002H56.1782V86.1254Z" fill="#23A9B1"/>
<path opacity="0.2" d="M56.1782 86.1254H51.459V91.3002H56.1782V86.1254Z" fill="white"/>
<path d="M64.0117 86.1254H58.8369V91.3002H64.0117V86.1254Z" fill="#23A9B1"/>
<path opacity="0.2" d="M64.0117 86.1254H59.2925V91.3002H64.0117V86.1254Z" fill="white"/>
<path d="M48.3408 100.079H43.166V105.254H48.3408V100.079Z" fill="#23A9B1"/>
<path opacity="0.2" d="M48.3408 100.079H43.6216V105.254H48.3408V100.079Z" fill="white"/>
<path d="M56.1782 100.079H51.0034V105.254H56.1782V100.079Z" fill="#23A9B1"/>
<path opacity="0.2" d="M56.1782 100.079H51.459V105.254H56.1782V100.079Z" fill="white"/>
<path d="M64.0117 100.079H58.8369V105.254H64.0117V100.079Z" fill="#23A9B1"/>
<path opacity="0.2" d="M64.0117 100.079H59.2925V105.254H64.0117V100.079Z" fill="white"/>
<path d="M48.3408 107.695H43.166V112.87H48.3408V107.695Z" fill="#23A9B1"/>
<path opacity="0.2" d="M48.3408 107.695H43.6216V112.87H48.3408V107.695Z" fill="white"/>
<path d="M56.1782 107.695H51.0034V112.87H56.1782V107.695Z" fill="#23A9B1"/>
<path opacity="0.2" d="M56.1782 107.695H51.459V112.87H56.1782V107.695Z" fill="white"/>
<path d="M64.0117 107.695H58.8369V112.87H64.0117V107.695Z" fill="#23A9B1"/>
<path opacity="0.2" d="M64.0117 107.695H59.2925V112.87H64.0117V107.695Z" fill="white"/>
<path d="M48.3408 123.202H43.166V128.377H48.3408V123.202Z" fill="#23A9B1"/>
<path opacity="0.2" d="M48.3408 123.202H43.6216V128.377H48.3408V123.202Z" fill="white"/>
<path d="M56.1782 123.202H51.0034V128.377H56.1782V123.202Z" fill="#23A9B1"/>
<path opacity="0.2" d="M56.1782 123.202H51.459V128.377H56.1782V123.202Z" fill="white"/>
<path d="M64.0117 123.202H58.8369V128.377H64.0117V123.202Z" fill="#23A9B1"/>
<path opacity="0.2" d="M64.0117 123.202H59.2925V128.377H64.0117V123.202Z" fill="white"/>
<path d="M48.3408 130.822H43.166V135.997H48.3408V130.822Z" fill="#23A9B1"/>
<path opacity="0.2" d="M48.3408 130.822H43.6216V135.997H48.3408V130.822Z" fill="white"/>
<path d="M56.1782 130.822H51.0034V135.997H56.1782V130.822Z" fill="#23A9B1"/>
<path opacity="0.2" d="M56.1782 130.822H51.459V135.997H56.1782V130.822Z" fill="white"/>
<path d="M64.0117 130.822H58.8369V135.997H64.0117V130.822Z" fill="#23A9B1"/>
<path opacity="0.2" d="M64.0117 130.822H59.2925V135.997H64.0117V130.822Z" fill="white"/>
<path opacity="0.2" d="M74.222 94.9382H40.5518V95.4176H74.222V94.9382Z" fill="white"/>
<path opacity="0.2" d="M74.222 118.786H40.5518V119.265H74.222V118.786Z" fill="white"/>
<path d="M120.581 83.6808H97.2944V140.345H120.581V83.6808Z" fill="#23A9B1"/>
<path opacity="0.4" d="M115.008 83.6808H97.2944V140.345H115.008V83.6808Z" fill="white"/>
<path d="M105.209 88.3354H99.0112V91.3444H105.209V88.3354Z" fill="#23A9B1"/>
<path opacity="0.2" d="M105.21 88.3354H99.4229V91.3444H105.21V88.3354Z" fill="white"/>
<path d="M112.38 88.3354H106.182V91.3444H112.38V88.3354Z" fill="#23A9B1"/>
<path opacity="0.2" d="M112.38 88.3354H106.593V91.3444H112.38V88.3354Z" fill="white"/>
<path d="M105.209 93.9998H99.0112V97.0088H105.209V93.9998Z" fill="#23A9B1"/>
<path opacity="0.2" d="M105.21 93.9998H99.4229V97.0088H105.21V93.9998Z" fill="white"/>
<path d="M112.38 93.9998H106.182V97.0088H112.38V93.9998Z" fill="#23A9B1"/>
<path opacity="0.2" d="M112.38 93.9998H106.593V97.0088H112.38V93.9998Z" fill="white"/>
<path d="M105.209 101.238H99.0112V104.247H105.209V101.238Z" fill="#23A9B1"/>
<path opacity="0.2" d="M105.21 101.238H99.4229V104.247H105.21V101.238Z" fill="white"/>
<path d="M112.38 101.238H106.182V104.247H112.38V101.238Z" fill="#23A9B1"/>
<path opacity="0.2" d="M112.38 101.238H106.593V104.247H112.38V101.238Z" fill="white"/>
<path d="M105.209 105.397H99.0112V108.406H105.209V105.397Z" fill="#23A9B1"/>
<path opacity="0.2" d="M105.21 105.397H99.4229V108.406H105.21V105.397Z" fill="white"/>
<path d="M112.38 105.397H106.182V108.406H112.38V105.397Z" fill="#23A9B1"/>
<path opacity="0.2" d="M112.38 105.397H106.593V108.406H112.38V105.397Z" fill="white"/>
<path d="M105.209 112.231H99.0112V115.24H105.209V112.231Z" fill="#23A9B1"/>
<path opacity="0.2" d="M105.21 112.231H99.4229V115.24H105.21V112.231Z" fill="white"/>
<path d="M112.38 112.231H106.182V115.24H112.38V112.231Z" fill="#23A9B1"/>
<path opacity="0.2" d="M112.38 112.231H106.593V115.24H112.38V112.231Z" fill="white"/>
<path d="M105.209 116.389H99.0112V119.398H105.209V116.389Z" fill="#23A9B1"/>
<path opacity="0.2" d="M105.21 116.389H99.4229V119.398H105.21V116.389Z" fill="white"/>
<path d="M112.38 116.389H106.182V119.398H112.38V116.389Z" fill="#23A9B1"/>
<path opacity="0.2" d="M112.38 116.389H106.593V119.398H112.38V116.389Z" fill="white"/>
<path d="M105.209 123.825H99.0112V126.834H105.209V123.825Z" fill="#23A9B1"/>
<path opacity="0.2" d="M105.21 123.825H99.4229V126.834H105.21V123.825Z" fill="white"/>
<path d="M112.38 123.825H106.182V126.834H112.38V123.825Z" fill="#23A9B1"/>
<path opacity="0.2" d="M112.38 123.825H106.593V126.834H112.38V123.825Z" fill="white"/>
<path d="M105.209 129.319H99.0112V132.328H105.209V129.319Z" fill="#23A9B1"/>
<path opacity="0.2" d="M105.21 129.319H99.4229V132.328H105.21V129.319Z" fill="white"/>
<path d="M112.38 129.319H106.182V132.328H112.38V129.319Z" fill="#23A9B1"/>
<path opacity="0.2" d="M112.38 129.319H106.593V132.328H112.38V129.319Z" fill="white"/>
<path d="M120.584 82.0046H96.1992V83.8134H120.584V82.0046Z" fill="#23A9B1"/>
<path opacity="0.2" d="M120.584 82.0046H115.012V83.8134H120.584V82.0046Z" fill="black"/>
<path d="M97.2941 108.701H95.1011V112.132H97.2941V108.701Z" fill="#E0E0E0"/>
<path d="M97.2941 114.315H95.1011V117.745H97.2941V114.315Z" fill="#E0E0E0"/>
<path d="M97.2941 119.772H95.1011V123.202H97.2941V119.772Z" fill="#E0E0E0"/>
<path d="M97.2941 125.542H95.1011V128.972H97.2941V125.542Z" fill="#E0E0E0"/>
<path d="M97.2941 131.155H95.1011V134.586H97.2941V131.155Z" fill="#E0E0E0"/>
<path d="M97.2941 105.254H74.2217V140.345H97.2941V105.254Z" fill="#23A9B1"/>
<path opacity="0.3" d="M93.3977 105.25H74.2217V140.345H93.3977V105.25Z" fill="white"/>
<path d="M91.5382 108.701H75.9458V112.132H91.5382V108.701Z" fill="#23A9B1"/>
<path d="M91.5382 114.315H75.9458V117.745H91.5382V114.315Z" fill="#23A9B1"/>
<path d="M91.5382 119.928H75.9458V123.359H91.5382V119.928Z" fill="#23A9B1"/>
<path d="M91.5382 125.542H75.9458V128.972H91.5382V125.542Z" fill="#23A9B1"/>
<path d="M91.5382 131.155H75.9458V134.586H91.5382V131.155Z" fill="#23A9B1"/>
<g opacity="0.1">
<path d="M91.5378 108.701H76.52V112.132H91.5378V108.701Z" fill="white"/>
<path d="M91.5378 114.315H76.52V117.745H91.5378V114.315Z" fill="white"/>
<path d="M91.5378 119.928H76.52V123.359H91.5378V119.928Z" fill="white"/>
<path d="M91.5378 125.542H76.52V128.972H91.5378V125.542Z" fill="white"/>
<path d="M91.5378 131.155H76.52V134.586H91.5378V131.155Z" fill="white"/>
</g>
<path d="M26.717 116.032H11.2402V140.345H35.9412V116.032V105.25L26.717 116.032Z" fill="#23A9B1"/>
<path d="M40.5518 105.25H35.9414V140.345H40.5518V105.25Z" fill="#23A9B1"/>
<path opacity="0.7" d="M40.5518 105.25H35.9414V140.345H40.5518V105.25Z" fill="white"/>
<path opacity="0.7" d="M74.222 75.7078H68.0986V140.345H74.222V75.7078Z" fill="white"/>
<path opacity="0.6" d="M97.2943 105.25H93.3979V140.345H97.2943V105.25Z" fill="white"/>
<path opacity="0.7" d="M120.584 83.8134H115.012V140.345H120.584V83.8134Z" fill="white"/>
<path opacity="0.5" d="M123.845 74.0995H122.968V77.7205H123.845V74.0995Z" fill="white"/>
<path opacity="0.5" d="M123.845 80.1924H122.968V83.8134H123.845V80.1924Z" fill="white"/>
<path opacity="0.5" d="M123.845 86.5266H122.968V90.1476H123.845V86.5266Z" fill="white"/>
<path opacity="0.5" d="M123.845 92.8608H122.968V96.4818H123.845V92.8608Z" fill="white"/>
<path opacity="0.5" d="M123.845 99.1916H122.968V102.813H123.845V99.1916Z" fill="white"/>
<path opacity="0.5" d="M123.845 105.526H122.968V109.147H123.845V105.526Z" fill="white"/>
<path opacity="0.5" d="M123.845 112.506H122.968V116.127H123.845V112.506Z" fill="white"/>
<path opacity="0.5" d="M123.845 119.486H122.968V123.107H123.845V119.486Z" fill="white"/>
<path opacity="0.5" d="M123.845 126.463H122.968V130.084H123.845V126.463Z" fill="white"/>
<path opacity="0.5" d="M123.845 133.443H122.968V137.064H123.845V133.443Z" fill="white"/>
<path d="M158.052 69.275H130.706V140.345H158.052V69.275Z" fill="#23A9B1"/>
<path d="M147.927 69.275H120.581V140.345H147.927V69.275Z" fill="#23A9B1"/>
<path opacity="0.7" d="M158.052 70.295H147.931V140.345H158.052V70.295Z" fill="white"/>
<path d="M158.052 74.0995H150.433V77.7205H158.052V74.0995Z" fill="#23A9B1"/>
<path d="M158.052 80.0563H150.433V83.6773H158.052V80.0563Z" fill="#23A9B1"/>
<path d="M158.052 86.0165H150.433V89.6375H158.052V86.0165Z" fill="#23A9B1"/>
<path d="M158.052 92.8574H150.433V96.4784H158.052V92.8574Z" fill="#23A9B1"/>
<path d="M158.052 99.1915H150.433V102.813H158.052V99.1915Z" fill="#23A9B1"/>
<path d="M158.052 105.526H150.433V109.147H158.052V105.526Z" fill="#23A9B1"/>
<path d="M158.052 112.503H150.433V116.124H158.052V112.503Z" fill="#23A9B1"/>
<path d="M158.052 119.483H150.433V123.104H158.052V119.483Z" fill="#23A9B1"/>
<path d="M158.052 126.463H150.433V130.084H158.052V126.463Z" fill="#23A9B1"/>
<path d="M158.052 133.443H150.433V137.064H158.052V133.443Z" fill="#23A9B1"/>
<path opacity="0.3" d="M158.052 74.0995H150.433V77.7205H158.052V74.0995Z" fill="white"/>
<path opacity="0.3" d="M158.052 80.0563H150.433V83.6773H158.052V80.0563Z" fill="white"/>
<path opacity="0.3" d="M158.052 86.0165H150.433V89.6375H158.052V86.0165Z" fill="white"/>
<path opacity="0.3" d="M158.052 92.8574H150.433V96.4784H158.052V92.8574Z" fill="white"/>
<path opacity="0.3" d="M158.052 99.1915H150.433V102.813H158.052V99.1915Z" fill="white"/>
<path opacity="0.3" d="M158.052 105.526H150.433V109.147H158.052V105.526Z" fill="white"/>
<path opacity="0.3" d="M158.052 112.503H150.433V116.124H158.052V112.503Z" fill="white"/>
<path opacity="0.3" d="M158.052 119.483H150.433V123.104H158.052V119.483Z" fill="white"/>
<path opacity="0.3" d="M158.052 126.463H150.433V130.084H158.052V126.463Z" fill="white"/>
<path opacity="0.3" d="M158.052 133.443H150.433V137.064H158.052V133.443Z" fill="white"/>
<path opacity="0.4" d="M147.927 69.275H120.581V140.345H147.927V69.275Z" fill="white"/>
<path d="M145.544 74.0995H122.968V77.7205H145.544V74.0995Z" fill="#23A9B1"/>
<path opacity="0.2" d="M145.544 74.0995H123.845V77.7205H145.544V74.0995Z" fill="white"/>
<path d="M145.544 80.1924H122.968V83.8134H145.544V80.1924Z" fill="#23A9B1"/>
<path opacity="0.2" d="M145.544 80.1924H123.845V83.8134H145.544V80.1924Z" fill="white"/>
<path d="M145.544 86.5266H122.968V90.1476H145.544V86.5266Z" fill="#23A9B1"/>
<path opacity="0.2" d="M145.544 86.5266H123.845V90.1476H145.544V86.5266Z" fill="white"/>
<path d="M145.544 92.8608H122.968V96.4818H145.544V92.8608Z" fill="#23A9B1"/>
<path opacity="0.2" d="M145.544 92.8608H123.845V96.4818H145.544V92.8608Z" fill="white"/>
<path d="M145.544 99.1915H122.968V102.813H145.544V99.1915Z" fill="#23A9B1"/>
<path opacity="0.2" d="M145.544 99.1915H123.845V102.813H145.544V99.1915Z" fill="white"/>
<path d="M145.544 105.526H122.968V109.147H145.544V105.526Z" fill="#23A9B1"/>
<path opacity="0.2" d="M145.544 105.526H123.845V109.147H145.544V105.526Z" fill="white"/>
<path d="M145.544 112.506H122.968V116.127H145.544V112.506Z" fill="#23A9B1"/>
<path opacity="0.2" d="M145.544 112.506H123.845V116.127H145.544V112.506Z" fill="white"/>
<path d="M145.544 119.486H122.968V123.107H145.544V119.486Z" fill="#23A9B1"/>
<path opacity="0.2" d="M145.544 119.486H123.845V123.107H145.544V119.486Z" fill="white"/>
<path d="M145.544 126.463H122.968V130.084H145.544V126.463Z" fill="#23A9B1"/>
<path opacity="0.2" d="M145.544 126.463H123.845V130.084H145.544V126.463Z" fill="white"/>
<path d="M145.544 133.443H122.968V137.064H145.544V133.443Z" fill="#23A9B1"/>
<path opacity="0.2" d="M145.544 133.443H123.845V137.064H145.544V133.443Z" fill="white"/>
<path d="M157.468 67.1636H147.931V68.5576H157.468V67.1636Z" fill="#23A9B1"/>
<path d="M157.468 66.8235H120.581V68.5575H157.468V66.8235Z" fill="#F0F0F0"/>
<path d="M158.763 68.561H119.809V70.295H158.763V68.561Z" fill="#23A9B1"/>
<path d="M158.763 65.4296H119.809V67.1636H158.763V65.4296Z" fill="#23A9B1"/>
<path opacity="0.05" d="M158.763 68.561H119.809V70.295H158.763V68.561Z" fill="black"/>
<path opacity="0.05" d="M158.763 65.4296H119.809V67.1636H158.763V65.4296Z" fill="black"/>
<path opacity="0.2" d="M120.581 98.7802H97.2944V99.2969H120.581V98.7802Z" fill="white"/>
<path opacity="0.2" d="M120.581 109.976H97.2944V110.493H120.581V109.976Z" fill="white"/>
<path opacity="0.2" d="M120.581 121.268H97.2944V121.785H120.581V121.268Z" fill="white"/>
<path opacity="0.2" d="M74.6164 74.6368H68.0986V75.7078H74.6164V74.6368Z" fill="black"/>
<path opacity="0.2" d="M74.6164 72.4914H68.0986V73.5624H74.6164V72.4914Z" fill="black"/>
<path opacity="0.2" d="M158.763 68.561H147.931V70.295H158.763V68.561Z" fill="black"/>
<path opacity="0.2" d="M158.763 65.4296H147.931V67.1636H158.763V65.4296Z" fill="black"/>
<path opacity="0.4" d="M26.717 116.032H11.2402V140.345H35.9412V116.032V105.25L26.717 116.032Z" fill="white"/>
<path d="M17.1529 120.962H13.4775V124.637H17.1529V120.962Z" fill="#23A9B1"/>
<path d="M24.6329 120.962H20.9575V124.637H24.6329V120.962Z" fill="#23A9B1"/>
<path d="M32.1129 120.962H28.4375V124.637H32.1129V120.962Z" fill="#23A9B1"/>
<path d="M17.1529 127.146H13.4775V130.822H17.1529V127.146Z" fill="#23A9B1"/>
<path d="M24.6329 127.146H20.9575V130.822H24.6329V127.146Z" fill="#23A9B1"/>
<path d="M32.1129 127.146H28.4375V130.822H32.1129V127.146Z" fill="#23A9B1"/>
<path d="M17.1529 133.331H13.4775V137.006H17.1529V133.331Z" fill="#23A9B1"/>
<path d="M24.6329 133.331H20.9575V137.006H24.6329V133.331Z" fill="#23A9B1"/>
<path d="M32.1129 133.331H28.4375V137.006H32.1129V133.331Z" fill="#23A9B1"/>
<path opacity="0.2" d="M17.5611 120.962H13.8857V124.637H17.5611V120.962Z" fill="white"/>
<path opacity="0.2" d="M25.0377 120.962H21.3623V124.637H25.0377V120.962Z" fill="white"/>
<path opacity="0.2" d="M32.5177 120.962H28.8423V124.637H32.5177V120.962Z" fill="white"/>
<path opacity="0.2" d="M17.5611 127.146H13.8857V130.822H17.5611V127.146Z" fill="white"/>
<path opacity="0.2" d="M25.0377 127.146H21.3623V130.822H25.0377V127.146Z" fill="white"/>
<path opacity="0.2" d="M32.5177 127.146H28.8423V130.822H32.5177V127.146Z" fill="white"/>
<path opacity="0.2" d="M17.5611 133.331H13.8857V137.006H17.5611V133.331Z" fill="white"/>
<path opacity="0.2" d="M25.0377 133.331H21.3623V137.006H25.0377V133.331Z" fill="white"/>
<path opacity="0.2" d="M32.5177 133.331H28.8423V137.006H32.5177V133.331Z" fill="white"/>
<path d="M82.9936 143.164L80.8652 153.962H88.0086L87.2844 143.164H82.9936Z" fill="#23A9B1"/>
<path d="M89.6714 143.164L92.7314 153.962H97.5186L93.595 143.164H89.6714Z" fill="#23A9B1"/>
<path d="M96.2876 143.164L102.584 153.962H108.018L99.8338 143.164H96.2876Z" fill="#23A9B1"/>
<path d="M102.676 143.164L113.111 153.962H119.608L106.569 143.164H102.676Z" fill="#23A9B1"/>
<path d="M80.3282 143.164L77.2682 153.962H72.481L76.4046 143.164H80.3282Z" fill="#23A9B1"/>
<path d="M73.7119 143.164L67.4151 153.962H61.9819L70.1657 143.164H73.7119Z" fill="#23A9B1"/>
<path d="M67.3231 143.164L56.8885 153.962H50.3911L63.4301 143.164H67.3231Z" fill="#23A9B1"/>
<path opacity="0.4" d="M82.9936 143.164L80.8652 153.962H88.0086L87.2844 143.164H82.9936Z" fill="white"/>
<path opacity="0.4" d="M89.6714 143.164L92.7314 153.962H97.5186L93.595 143.164H89.6714Z" fill="white"/>
<path opacity="0.4" d="M96.2876 143.164L102.584 153.962H108.018L99.8338 143.164H96.2876Z" fill="white"/>
<path opacity="0.4" d="M102.676 143.164L113.111 153.962H119.608L106.569 143.164H102.676Z" fill="white"/>
<path opacity="0.4" d="M80.3282 143.164L77.2682 153.962H72.481L76.4046 143.164H80.3282Z" fill="white"/>
<path opacity="0.4" d="M73.7119 143.164L67.4151 153.962H61.9819L70.1657 143.164H73.7119Z" fill="white"/>
<path opacity="0.4" d="M67.3231 143.164L56.8885 153.962H50.3911L63.4301 143.164H67.3231Z" fill="white"/>
<path d="M34.2242 139.097C36.7164 139.009 39.1508 137.829 40.7658 135.925C42.3808 134.025 43.1526 131.43 42.8364 128.955C42.612 127.184 41.8708 125.528 41.3472 123.821C40.3544 120.591 40.0416 116.953 37.7704 114.454C36.3764 112.921 34.3194 112.01 32.2454 112.01C30.1714 112.01 28.1144 112.914 26.717 114.447C25.2448 116.062 24.5478 118.245 24.2452 120.408C23.9426 122.57 23.9868 124.766 23.7862 126.942C23.6162 128.748 23.2762 130.55 23.3476 132.362C23.419 134.174 23.9664 136.061 25.2958 137.295C25.952 137.904 26.7578 138.322 27.5602 138.72C28.3626 139.118 29.1888 139.505 30.0762 139.624C30.9636 139.743 31.936 139.553 32.5752 138.927C32.973 139.074 33.8026 139.114 34.2242 139.097Z" fill="#23A9B1"/>
<path opacity="0.7" d="M34.2242 139.097C36.7164 139.009 39.1508 137.829 40.7658 135.925C42.3808 134.025 43.1526 131.43 42.8364 128.955C42.612 127.184 41.8708 125.528 41.3472 123.821C40.3544 120.591 40.0416 116.953 37.7704 114.454C36.3764 112.921 34.3194 112.01 32.2454 112.01C30.1714 112.01 28.1144 112.914 26.717 114.447C25.2448 116.062 24.5478 118.245 24.2452 120.408C23.9426 122.57 23.9868 124.766 23.7862 126.942C23.6162 128.748 23.2762 130.55 23.3476 132.362C23.419 134.174 23.9664 136.061 25.2958 137.295C25.952 137.904 26.7578 138.322 27.5602 138.72C28.3626 139.118 29.1888 139.505 30.0762 139.624C30.9636 139.743 31.936 139.553 32.5752 138.927C32.973 139.074 33.8026 139.114 34.2242 139.097Z" fill="white"/>
<path d="M30.0659 145.69V145.241L30.8173 144.602C30.8173 144.602 31.7183 135.412 31.8679 132.767C32.0175 130.121 32.2045 125.919 31.2287 122.879C31.2287 122.879 32.5037 125.729 33.0681 129.35C33.0681 129.35 34.2309 125.168 36.2947 122.502C36.2947 122.502 33.7821 128.928 34.1187 134.909C34.4553 140.889 35.3937 145.017 35.3937 145.017L35.8425 145.316L35.8799 145.69H30.0659Z" fill="#23A9B1"/>
<path d="M32.3608 130.941C32.3608 130.941 31.7114 128.044 29.9502 126.606C29.9502 126.606 31.4224 128.632 31.9052 132.076C32.388 135.521 32.9014 133.324 32.9014 133.324L32.3608 130.941Z" fill="#23A9B1"/>
<path d="M31.5922 138.778C31.5922 138.778 31.3542 137.731 30.2798 137.074C30.2798 137.074 30.953 137.727 31.2726 139.818C31.5922 141.909 32.3708 140.746 32.3708 140.746L32.432 139.597L31.5922 138.778Z" fill="#23A9B1"/>
<path opacity="0.2" d="M31.2728 139.818C30.9532 137.727 30.28 137.074 30.28 137.074C30.892 137.448 31.232 137.948 31.4122 138.309C31.6162 136.082 31.8066 133.861 31.8678 132.763C31.8814 132.546 31.8916 132.314 31.9052 132.076C31.4224 128.636 29.9502 126.609 29.9502 126.609C30.9736 127.446 31.623 128.772 31.9834 129.737C32.014 127.473 31.8814 124.913 31.2286 122.876C31.2286 122.876 32.5036 125.725 33.068 129.346C33.068 129.346 34.2308 125.164 36.2946 122.499C36.2946 122.499 33.782 128.925 34.1186 134.905C34.4552 140.886 35.3936 145.013 35.3936 145.013L35.8424 145.313L35.8798 145.687H30.0658V145.238L30.8172 144.599C30.8172 144.602 31.0314 142.385 31.2728 139.818Z" fill="black"/>
<path d="M134.375 140.553C131.559 140.451 128.812 139.118 126.99 136.972C125.167 134.827 124.297 131.9 124.651 129.105C124.906 127.106 125.742 125.236 126.334 123.311C127.452 119.666 127.806 115.556 130.373 112.734C131.947 111.003 134.269 109.976 136.608 109.973C138.948 109.97 141.27 110.996 142.847 112.724C144.51 114.546 145.295 117.011 145.639 119.452C145.982 121.893 145.928 124.375 146.159 126.83C146.349 128.87 146.737 130.903 146.655 132.95C146.574 134.997 145.955 137.125 144.456 138.519C143.714 139.206 142.803 139.679 141.899 140.128C140.991 140.576 140.059 141.015 139.056 141.148C138.053 141.28 136.955 141.069 136.234 140.359C135.786 140.525 134.847 140.57 134.375 140.553Z" fill="#23A9B1"/>
<path opacity="0.7" d="M134.375 140.553C131.559 140.451 128.812 139.118 126.99 136.972C125.167 134.827 124.297 131.9 124.651 129.105C124.906 127.106 125.742 125.236 126.334 123.311C127.452 119.666 127.806 115.556 130.373 112.734C131.947 111.003 134.269 109.976 136.608 109.973C138.948 109.97 141.27 110.996 142.847 112.724C144.51 114.546 145.295 117.011 145.639 119.452C145.982 121.893 145.928 124.375 146.159 126.83C146.349 128.87 146.737 130.903 146.655 132.95C146.574 134.997 145.955 137.125 144.456 138.519C143.714 139.206 142.803 139.679 141.899 140.128C140.991 140.576 140.059 141.015 139.056 141.148C138.053 141.28 136.955 141.069 136.234 140.359C135.786 140.525 134.847 140.57 134.375 140.553Z" fill="white"/>
<path d="M139.067 147.992V147.485L138.22 146.764C138.22 146.764 137.204 136.391 137.034 133.402C136.864 130.414 136.653 125.671 137.754 122.24C137.754 122.24 136.313 125.457 135.68 129.543C135.68 129.543 134.368 124.821 132.039 121.815C132.039 121.815 134.878 129.071 134.497 135.82C134.116 142.569 133.056 147.23 133.056 147.23L132.549 147.57L132.508 147.995H139.067V147.992Z" fill="#23A9B1"/>
<path d="M136.476 131.345C136.476 131.345 137.211 128.075 139.196 126.453C139.196 126.453 137.534 128.741 136.99 132.627C136.446 136.513 135.864 134.038 135.864 134.038L136.476 131.345Z" fill="#23A9B1"/>
<path d="M137.343 140.192C137.343 140.192 137.612 139.009 138.826 138.268C138.826 138.268 138.067 139.006 137.704 141.365C137.343 143.725 136.466 142.412 136.466 142.412L136.398 141.114L137.343 140.192Z" fill="#23A9B1"/>
<path opacity="0.2" d="M137.707 141.365C138.067 139.006 138.829 138.268 138.829 138.268C138.139 138.689 137.754 139.254 137.55 139.662C137.323 137.149 137.105 134.64 137.037 133.402C137.023 133.158 137.01 132.892 136.996 132.624C137.54 128.738 139.203 126.453 139.203 126.453C138.047 127.395 137.316 128.894 136.904 129.985C136.87 127.429 137.017 124.542 137.758 122.24C137.758 122.24 136.316 125.457 135.684 129.543C135.684 129.543 134.371 124.821 132.042 121.815C132.042 121.815 134.881 129.071 134.501 135.82C134.12 142.569 133.059 147.23 133.059 147.23L132.552 147.57L132.512 147.995H139.077V147.489L138.23 146.768C138.22 146.764 137.975 144.265 137.707 141.365Z" fill="black"/>
</svg>
