<svg width="170" height="170" viewBox="0 0 170 170" fill="none" xmlns="http://www.w3.org/2000/svg">
<g clip-path="url(#clip0_856_1913)">
<path d="M160.158 150.553H147.445V150.649H160.158V150.553Z" fill="#EBEBEB"/>
<path d="M114.602 151.596H111.266V151.692H114.602V151.596Z" fill="#EBEBEB"/>
<path d="M147.061 146.99H139.695V147.086H147.061V146.99Z" fill="#EBEBEB"/>
<path d="M24.1783 147.635H7.59961V147.731H24.1783V147.635Z" fill="#EBEBEB"/>
<path d="M30.0279 147.635H27.5981V147.731H30.0279V147.635Z" fill="#EBEBEB"/>
<path d="M73.8868 149.255H37.9272V149.351H73.8868V149.255Z" fill="#EBEBEB"/>
<path d="M78.4392 127.256H4.32072C3.11157 127.256 2.12891 126.274 2.12891 125.065V20.8748C2.12891 19.6657 3.11157 18.683 4.32072 18.683H78.4431C79.6522 18.683 80.6349 19.6657 80.6349 20.8748V125.065C80.6311 126.274 79.6484 127.256 78.4392 127.256ZM4.32072 18.7789C3.16531 18.7789 2.22487 19.7194 2.22487 20.8748V125.065C2.22487 126.22 3.16531 127.16 4.32072 127.16H78.4431C79.5985 127.16 80.5389 126.22 80.5389 125.065V20.8748C80.5389 19.7194 79.5985 18.7789 78.4431 18.7789H4.32072Z" fill="#EBEBEB"/>
<path d="M161.467 127.256H87.3446C86.1355 127.256 85.1528 126.274 85.1528 125.065V20.8748C85.1528 19.6657 86.1355 18.683 87.3446 18.683H161.467C162.676 18.683 163.659 19.6657 163.659 20.8748V125.065C163.659 126.274 162.676 127.256 161.467 127.256ZM87.3446 18.7789C86.1892 18.7789 85.2488 19.7194 85.2488 20.8748V125.065C85.2488 126.22 86.1892 127.16 87.3446 127.16H161.467C162.622 127.16 163.563 126.22 163.563 125.065V20.8748C163.563 19.7194 162.622 18.7789 161.467 18.7789H87.3446Z" fill="#EBEBEB"/>
<path d="M179.389 144.376H-12.5381V144.472H179.389V144.376Z" fill="#EBEBEB"/>
<path d="M44.7253 90.7213H36.127V127.172H44.7253V90.7213Z" fill="#E6E6E6"/>
<path d="M59.0578 78.2919H50.4595V127.172H59.0578V78.2919Z" fill="#E0E0E0"/>
<path d="M73.3918 90.7213H64.7935V127.172H73.3918V90.7213Z" fill="#EBEBEB"/>
<path d="M16.0583 103.147H7.45996V127.168H16.0583V103.147Z" fill="#F0F0F0"/>
<path d="M30.3913 97.147H21.793V127.168H30.3913V97.147Z" fill="#EBEBEB"/>
<path d="M87.7238 103.147H79.1255V127.168H87.7238V103.147Z" fill="#F5F5F5"/>
<path d="M159.386 65.8628H150.788V127.172H159.386V65.8628Z" fill="#E0E0E0"/>
<path d="M102.058 90.7213H93.4595V127.172H102.058V90.7213Z" fill="#F0F0F0"/>
<path d="M145.053 78.2919H136.455V127.172H145.053V78.2919Z" fill="#E6E6E6"/>
<path d="M130.724 84.7176H122.125V127.168H130.724V84.7176Z" fill="#EBEBEB"/>
<path d="M116.391 97.147H107.792V127.168H116.391V97.147Z" fill="#F0F0F0"/>
<path d="M19.365 80.5068C20.1265 77.2821 18.1296 74.0506 14.9049 73.2892C11.6802 72.5277 8.44876 74.5246 7.68731 77.7493C6.92587 80.974 8.92274 84.2055 12.1475 84.9669C15.3722 85.7284 18.6036 83.7315 19.365 80.5068Z" fill="#E0E0E0"/>
<path d="M18.4912 83.363C20.8342 81.02 20.8342 77.2212 18.4912 74.8782C16.1482 72.5353 12.3495 72.5353 10.0065 74.8783C7.66353 77.2212 7.66352 81.02 10.0065 83.363C12.3495 85.7059 16.1482 85.7059 18.4912 83.363Z" fill="#E6E6E6"/>
<path d="M14.2504 83.6123C16.7307 83.6123 18.7415 81.6015 18.7415 79.1212C18.7415 76.6408 16.7307 74.6301 14.2504 74.6301C11.77 74.6301 9.75928 76.6408 9.75928 79.1212C9.75928 81.6015 11.77 83.6123 14.2504 83.6123Z" fill="#F0F0F0"/>
<path d="M16.2229 80.0769C16.3957 81.0711 15.7162 81.7351 14.4879 81.8388L14.4687 82.6602H13.7164L13.7356 81.8388C13.0139 81.7735 12.3498 81.5471 11.9199 81.263L12.2577 80.3379C12.703 80.6296 13.2365 80.8139 13.7624 80.8676L13.797 79.6047C13.0676 79.3975 12.2577 79.1211 12.1003 78.2152C11.9276 77.221 12.6224 76.5531 13.8776 76.461L13.8968 75.6395H14.6415L14.6223 76.4687C15.1597 76.5224 15.674 76.6721 16.0694 76.8947L15.7777 77.8198C15.4207 77.6049 15.01 77.4744 14.5992 77.4321L14.5685 78.7449C15.2863 78.9522 16.0694 79.2209 16.2229 80.0769ZM13.8162 78.5415L13.843 77.4667C13.4323 77.5473 13.2327 77.7814 13.2749 78.0655C13.321 78.292 13.5283 78.4263 13.8162 78.5415ZM15.0445 80.2727C15.0061 80.0577 14.8103 79.9233 14.534 79.8235L14.5109 80.8446C14.9025 80.764 15.0944 80.5567 15.0445 80.2727Z" fill="white"/>
<path d="M156.377 46.0442H125.135C123.546 46.0442 122.26 44.7544 122.26 43.1691V31.3656C122.26 29.7764 123.55 28.4905 125.135 28.4905H156.377C157.966 28.4905 159.252 29.7802 159.252 31.3656V43.1691C159.252 44.7544 157.966 46.0442 156.377 46.0442Z" fill="#F0F0F0"/>
<path d="M131.86 43.8948H129.261C129.108 43.8948 128.985 43.7719 128.985 43.6184V31.1546C128.985 31.0011 129.108 30.8782 129.261 30.8782H131.86C132.013 30.8782 132.136 31.0011 132.136 31.1546V43.6184C132.14 43.7719 132.013 43.8948 131.86 43.8948Z" fill="white"/>
<path d="M153.167 43.8948H150.568C150.415 43.8948 150.292 43.7719 150.292 43.6184V31.1546C150.292 31.0011 150.415 30.8782 150.568 30.8782H153.167C153.321 30.8782 153.443 31.0011 153.443 31.1546V43.6184C153.443 43.7719 153.321 43.8948 153.167 43.8948Z" fill="white"/>
<path d="M142.884 43.8947H140.286C140.132 43.8947 140.009 43.7719 140.009 43.6183V35.4461C140.009 35.2925 140.132 35.1697 140.286 35.1697H142.884C143.038 35.1697 143.161 35.2925 143.161 35.4461V43.6183C143.161 43.7719 143.038 43.8947 142.884 43.8947Z" fill="white"/>
<path d="M137.418 43.8948H134.819C134.666 43.8948 134.543 43.772 134.543 43.6184V37.542C134.543 37.3885 134.666 37.2656 134.819 37.2656H137.418C137.572 37.2656 137.694 37.3885 137.694 37.542V43.6184C137.698 43.772 137.572 43.8948 137.418 43.8948Z" fill="white"/>
<path d="M148.023 43.8948H145.424C145.271 43.8948 145.148 43.772 145.148 43.6184V42.6396C145.148 42.4861 145.271 42.3632 145.424 42.3632H148.023C148.177 42.3632 148.299 42.4861 148.299 42.6396V43.6184C148.303 43.772 148.177 43.8948 148.023 43.8948Z" fill="white"/>
<path d="M151.912 30.7976C151.767 30.7246 151.594 30.7899 151.532 30.9396L146.93 40.9352C146.842 41.1463 146.55 41.1693 146.435 40.9736L142.147 34.4672C142.066 34.329 141.886 34.2906 141.752 34.3789L136.408 36.5285C136.324 36.5861 136.209 36.5899 136.121 36.54L130.263 30.6325C130.121 30.5557 129.944 30.6133 129.875 30.7592L129.86 30.7899C129.798 30.9204 129.852 31.0778 129.979 31.1507L136.144 37.2271C136.236 37.277 136.347 37.2732 136.431 37.2156L141.579 35.1965C141.713 35.1083 141.89 35.1466 141.974 35.2848L146.519 42.2211C146.638 42.4169 146.93 42.3977 147.014 42.1827L152.043 31.1469C152.1 31.0202 152.043 30.8628 151.912 30.7976Z" fill="#E0E0E0"/>
<path d="M72.371 45.6067C75.8287 45.6067 78.6317 42.8037 78.6317 39.3461C78.6317 35.8884 75.8287 33.0854 72.371 33.0854C68.9133 33.0854 66.1104 35.8884 66.1104 39.3461C66.1104 42.8037 68.9133 45.6067 72.371 45.6067Z" fill="#E0E0E0"/>
<path opacity="0.8" d="M72.2981 44.3709C75.0731 44.3709 77.3228 42.1213 77.3228 39.3463C77.3228 36.5712 75.0731 34.3216 72.2981 34.3216C69.5231 34.3216 67.2734 36.5712 67.2734 39.3463C67.2734 42.1213 69.5231 44.3709 72.2981 44.3709Z" fill="white"/>
<path d="M72.283 40.2749C72.5649 40.2749 72.7935 40.0463 72.7935 39.7644C72.7935 39.4824 72.5649 39.2538 72.283 39.2538C72.001 39.2538 71.7725 39.4824 71.7725 39.7644C71.7725 40.0463 72.001 40.2749 72.283 40.2749Z" fill="#E0E0E0"/>
<path d="M72.2251 39.9526L70.064 37.9181L70.2751 37.6955L72.2327 39.538L75.7412 36.4365L75.9446 36.6668L72.2251 39.9526Z" fill="#E0E0E0"/>
<path d="M83.4251 161.5C124.529 161.5 157.851 159.555 157.851 157.155C157.851 154.755 124.529 152.81 83.4251 152.81C42.321 152.81 8.99951 154.755 8.99951 157.155C8.99951 159.555 42.321 161.5 83.4251 161.5Z" fill="#F5F5F5"/>
<path d="M96.1771 90.7519H70.835V157.439H96.1771V90.7519Z" fill="#23A9B1"/>
<path opacity="0.5" d="M96.258 90.7518H77.3608V157.439H96.258V90.7518Z" fill="black"/>
<path d="M129.285 113.487H103.943V157.435H129.285V113.487Z" fill="#23A9B1"/>
<path opacity="0.3" d="M129.284 113.384H110.387V157.439H129.284V113.384Z" fill="black"/>
<path d="M62.908 102.644H37.5659V157.435H62.908V102.644Z" fill="#23A9B1"/>
<path opacity="0.4" d="M62.9084 102.509H44.0112V157.435H62.9084V102.509Z" fill="black"/>
<path d="M38.4873 58.6348V60.9533C39.9805 61.0722 41.3432 61.6634 42.4218 62.5808L44.0609 60.9417C42.56 59.6136 40.6215 58.7614 38.4873 58.6348Z" fill="#23A9B1"/>
<path d="M37.3695 74.7797C33.9839 74.511 31.2854 71.8125 31.0167 68.4269H28.6982C28.9785 73.0907 32.7095 76.8218 37.3695 77.0982V74.7797Z" fill="#23A9B1"/>
<path d="M31.0133 67.3061C31.282 63.9205 33.9843 61.222 37.3661 60.9533V58.6348C32.7023 58.915 28.9712 62.6461 28.6948 67.3061H31.0133Z" fill="#23A9B1"/>
<path opacity="0.2" d="M31.0133 67.3061C31.282 63.9205 33.9843 61.222 37.3661 60.9533V58.6348C32.7023 58.915 28.9712 62.6461 28.6948 67.3061H31.0133Z" fill="black"/>
<path d="M44.8516 61.7363L43.2126 63.3753C44.2413 64.5845 44.867 66.1544 44.867 67.8703C44.867 71.513 42.0572 74.4994 38.4873 74.7835V77.102C43.3354 76.8141 47.1778 72.7913 47.1778 67.8703C47.1778 65.5134 46.2988 63.3677 44.8516 61.7363Z" fill="#23A9B1"/>
<g opacity="0.8">
<path d="M38.4873 58.6348V60.9533C39.9805 61.0722 41.3432 61.6634 42.4218 62.5808L44.0609 60.9417C42.56 59.6136 40.6215 58.7614 38.4873 58.6348Z" fill="white"/>
</g>
<g opacity="0.6">
<path d="M37.3695 74.7797C33.9839 74.511 31.2854 71.8125 31.0167 68.4269H28.6982C28.9785 73.0907 32.7095 76.8218 37.3695 77.0982V74.7797Z" fill="white"/>
</g>
<g opacity="0.7">
<path d="M31.0133 67.3061C31.282 63.9205 33.9843 61.222 37.3661 60.9533V58.6348C32.7023 58.915 28.9712 62.6461 28.6948 67.3061H31.0133Z" fill="white"/>
</g>
<path opacity="0.5" d="M44.8516 61.7363L43.2126 63.3753C44.2413 64.5845 44.867 66.1544 44.867 67.8703C44.867 71.513 42.0572 74.4994 38.4873 74.7835V77.102C43.3354 76.8141 47.1778 72.7913 47.1778 67.8703C47.1778 65.5134 46.2988 63.3677 44.8516 61.7363Z" fill="white"/>
<path d="M54.752 56.1897L57.6884 60.1741L74.6088 53.1496L91.103 59.0149L106.046 49.3532L107.117 50.7735L110.668 44.9619L102.711 44.3401L103.931 45.9484L88.9764 55.5218L72.7279 49.7563L54.752 56.1897Z" fill="#23A9B1"/>
<g opacity="0.5">
<path d="M54.752 56.1897L57.6884 60.1741L74.6088 53.1496L91.103 59.0149L106.046 49.3532L107.117 50.7735L110.668 44.9619L102.711 44.3401L103.931 45.9484L88.9764 55.5218L72.7279 49.7563L54.752 56.1897Z" fill="white"/>
</g>
<path d="M124.111 58.6691C122.053 58.6691 120.387 60.335 120.387 62.3925C120.387 64.4461 122.053 66.1159 124.111 66.1159C126.164 66.1159 127.834 64.4461 127.834 62.3925C127.834 60.335 126.164 58.6691 124.111 58.6691ZM124.111 64.2542C123.082 64.2542 122.249 63.4212 122.249 62.3925C122.249 61.3637 123.082 60.5308 124.111 60.5308C125.139 60.5308 125.972 61.3637 125.972 62.3925C125.968 63.4212 125.139 64.2542 124.111 64.2542Z" fill="#23A9B1"/>
<path d="M133.499 69.5938C131.441 69.5938 129.775 71.2597 129.775 73.3171C129.775 75.3708 131.441 77.0405 133.499 77.0405C135.552 77.0405 137.222 75.3708 137.222 73.3171C137.218 71.2597 135.552 69.5938 133.499 69.5938ZM133.499 75.175C132.47 75.175 131.637 74.342 131.637 73.3133C131.637 72.2846 132.47 71.4516 133.499 71.4516C134.528 71.4516 135.36 72.2846 135.36 73.3133C135.357 74.3459 134.524 75.175 133.499 75.175Z" fill="#23A9B1"/>
<path d="M125.507 77.0405H123.031L131.633 58.6692H134.109L125.507 77.0405Z" fill="#23A9B1"/>
<g opacity="0.5">
<path d="M124.111 58.6691C122.053 58.6691 120.387 60.335 120.387 62.3925C120.387 64.4461 122.053 66.1159 124.111 66.1159C126.164 66.1159 127.834 64.4461 127.834 62.3925C127.834 60.335 126.164 58.6691 124.111 58.6691ZM124.111 64.2542C123.082 64.2542 122.249 63.4212 122.249 62.3925C122.249 61.3637 123.082 60.5308 124.111 60.5308C125.139 60.5308 125.972 61.3637 125.972 62.3925C125.968 63.4212 125.139 64.2542 124.111 64.2542Z" fill="white"/>
<path d="M133.499 69.5938C131.441 69.5938 129.775 71.2597 129.775 73.3171C129.775 75.3708 131.441 77.0405 133.499 77.0405C135.552 77.0405 137.222 75.3708 137.222 73.3171C137.218 71.2597 135.552 69.5938 133.499 69.5938ZM133.499 75.175C132.47 75.175 131.637 74.342 131.637 73.3133C131.637 72.2846 132.47 71.4516 133.499 71.4516C134.528 71.4516 135.36 72.2846 135.36 73.3133C135.357 74.3459 134.524 75.175 133.499 75.175Z" fill="white"/>
<path d="M125.507 77.0405H123.031L131.633 58.6692H134.109L125.507 77.0405Z" fill="white"/>
</g>
<path d="M81.4912 60.3159C81.5949 60.7919 81.687 61.2026 81.8021 61.6364C81.9173 62.0701 82.0286 62.4809 82.1591 62.9185C82.4086 63.7591 82.6965 64.5921 83.0151 65.4442C83.6485 67.2061 84.5198 68.8759 85.6023 70.4036C85.9209 70.8297 86.2779 71.2289 86.6617 71.5974C87.0955 72.012 87.5868 72.3613 88.1242 72.63C89.1529 73.129 90.293 73.3516 91.4369 73.271C92.4349 73.2019 93.4176 72.9716 94.3427 72.5878C94.7803 72.4112 95.2063 72.2078 95.6171 71.9774C95.8244 71.8661 96.024 71.7433 96.2159 71.6051C96.4078 71.4669 96.5921 71.3479 96.8147 71.1867L95.8052 69.3749L95.2678 69.5169L94.7035 69.6513C94.3235 69.7357 93.9511 69.8048 93.5673 69.8586C92.8725 69.9622 92.17 69.9776 91.4714 69.9008C90.9148 69.8432 90.3774 69.6513 89.913 69.3404C89.7134 69.1983 89.5291 69.0333 89.3641 68.849C89.1606 68.611 88.9725 68.3615 88.8036 68.0967C88.4121 67.4825 88.0743 66.8338 87.7864 66.162C87.4717 65.4673 87.1953 64.7341 86.9343 63.9817C86.6733 63.2294 86.4391 62.4655 86.2049 61.6978L85.8748 60.5347C85.7712 60.1509 85.656 59.744 85.5754 59.41L81.4912 60.3159Z" fill="#FF8B7B"/>
<path d="M81.1584 57.9898C82.8973 55.7788 85.5421 56.5887 87.0276 60.1125C87.8529 61.9895 88.5054 63.9357 88.9776 65.9279L82.7822 68.1043C81.1546 64.7686 79.3697 60.2584 81.1584 57.9898Z" fill="#23A9B1"/>
<path opacity="0.1" d="M81.1584 57.9898C82.8973 55.7788 85.5421 56.5887 87.0276 60.1125C87.8529 61.9895 88.5054 63.9357 88.9776 65.9279L82.7822 68.1043C81.1546 64.7686 79.3697 60.2584 81.1584 57.9898Z" fill="black"/>
<path opacity="0.3" d="M83.7448 61.6863C83.2343 61.337 82.1902 63.3522 81.7065 65.7283C82.0443 66.5574 82.4128 67.3481 82.7775 68.089L86.5047 66.78C85.8944 64.5575 84.8925 62.4732 83.7448 61.6863Z" fill="black"/>
<path d="M96.1205 68.4611L97.4755 67.7203L97.9476 70.7489C97.9476 70.7489 95.6829 72.1116 95.0342 70.983L95.1033 70.2C95.1839 69.5052 95.5524 68.8718 96.1205 68.4611Z" fill="#FF8B7B"/>
<path d="M99.1759 67.5706L100.362 70.0043L97.9398 70.7489L97.4639 67.7203L99.1759 67.5706Z" fill="#FF8B7B"/>
<path d="M81.1351 56.009L77.9644 55.5637L74.0146 55.9092C72.7824 56.0167 71.7729 56.9341 71.5502 58.1509C71.1126 60.5385 70.8746 63.9279 70.7518 66.8491C70.6136 70.1272 70.9744 74.9753 71.5042 79.3474L84.7011 77.7505C84.8278 66.2387 85.6991 62.6689 85.8066 59.6172C85.8527 58.3889 85.0734 57.2796 83.9027 56.9072L81.1351 56.009Z" fill="#23A9B1"/>
<path d="M85.123 113.111L87.929 113.89L90.4471 107.292L87.645 106.517L85.123 113.111Z" fill="#FF8B7B"/>
<path d="M89.187 113.015C88.9682 112.727 88.6419 112.539 88.2888 112.47L85.3983 111.91C85.264 111.879 85.1296 111.956 85.0874 112.086L84.193 114.723C84.0856 115.023 84.2468 115.353 84.5462 115.46C84.5539 115.464 84.5577 115.464 84.5654 115.468C85.6325 115.886 86.3503 115.744 88.0162 116.067C89.0411 116.266 91.1984 116.95 92.6417 116.892C94.0811 116.835 94.0773 115.407 93.4708 115.303C91.3212 114.954 89.6745 113.664 89.187 113.015Z" fill="#263238"/>
<g opacity="0.2">
<path d="M90.4476 107.296L89.108 110.804L86.3442 109.918L87.6417 106.517L90.4476 107.296Z" fill="black"/>
</g>
<path d="M97.4518 87.8382C97.3597 88.8593 97.1563 89.8918 96.8837 90.9282C96.1429 93.7918 94.8762 96.7091 93.8282 99.5535C91.7554 105.173 89.9551 110.071 89.9551 110.071L86.1051 108.743C86.1051 108.743 89.5636 92.4828 91.8898 90.8208H77.6065C77.3301 90.8208 77.0614 90.8016 76.8081 90.767C79.2686 90.4484 83.1033 88.9322 86.6617 87.416C89.8054 86.0725 92.7458 84.7405 94.3426 84.2223H94.3464V84.2261C96.2926 85.0437 97.6015 86.1991 97.4518 87.8382Z" fill="#263238"/>
<path opacity="0.1" d="M97.4518 87.8382C97.3597 88.8593 97.1563 89.8918 96.8837 90.9282C96.1429 93.7918 94.8762 96.7091 93.8282 99.5535C91.7554 105.173 89.9551 110.071 89.9551 110.071L86.1051 108.743C86.1051 108.743 89.5636 92.4828 91.8898 90.8208H77.6065C77.3301 90.8208 77.0614 90.8016 76.8081 90.767C79.2686 90.4484 83.1033 88.9322 86.6617 87.416C89.8054 86.0725 92.7458 84.7405 94.3426 84.2223H94.3464V84.2261C96.2926 85.0437 97.6015 86.1991 97.4518 87.8382Z" fill="black"/>
<path opacity="0.6" d="M94.3467 84.226C92.7499 84.7442 89.8096 86.0762 86.6658 87.4197C83.1075 88.9359 79.2728 90.4521 76.8122 90.7707C72.6666 90.218 71.1082 85.2778 75.4419 79.5852C78.2555 79.589 81.0845 82.2799 81.0845 82.2799C81.0845 82.2799 89.5946 82.2261 94.3467 84.226Z" fill="black"/>
<path d="M104.688 107.441H107.828L104.538 99.5571L102.404 103.177L104.688 107.441Z" fill="#FF8B7B"/>
<path d="M107.57 106.697L103.881 105.86C103.751 105.825 103.616 105.898 103.57 106.025L102.542 108.862C102.453 109.161 102.626 109.476 102.929 109.564C102.937 109.564 102.941 109.568 102.949 109.568C104.242 109.837 104.879 109.902 106.499 110.27C107.497 110.497 110.023 111.161 111.401 111.472C112.779 111.783 113.14 110.436 112.591 110.178C110.13 109.038 108.798 107.952 108.084 107.023C107.958 106.858 107.774 106.739 107.57 106.697Z" fill="#263238"/>
<g opacity="0.2">
<path d="M104.538 99.5571L105.939 102.916L103.11 104.493L102.404 103.177L104.538 99.5571Z" fill="black"/>
</g>
<path d="M105.981 101.722L102.523 103.814C102.523 103.814 99.6438 97.7609 96.8838 90.9321C97.1564 89.8918 97.356 88.8631 97.452 87.8421C97.6017 86.1992 96.2927 85.0438 94.3504 84.2338V84.23H94.3466C92.7497 84.7482 89.8094 86.0802 86.6656 87.4237C83.1073 88.9399 79.2726 90.4561 76.8121 90.7747C76.505 90.8131 76.2248 90.8361 75.9599 90.8361C71.2308 90.8361 69.5994 86.6905 71.5072 79.6583C74.3209 79.6468 79.1382 79.355 79.1382 79.355C79.1382 79.355 88.4352 77.121 95.1258 77.8849C98.3847 78.2534 101.026 80.7024 101.667 83.9306C103.367 92.4637 105.981 101.722 105.981 101.722Z" fill="#263238"/>
<path d="M105.981 101.722L102.523 103.814C102.523 103.814 99.6438 97.7609 96.8838 90.9321C97.1564 89.8918 97.356 88.8631 97.452 87.8421C97.6017 86.1992 96.2927 85.0438 94.3504 84.2338V84.23H94.3466C92.7497 84.7482 89.8094 86.0802 86.6656 87.4237C83.1073 88.9399 79.2726 90.4561 76.8121 90.7747C76.505 90.8131 76.2248 90.8361 75.9599 90.8361C71.2308 90.8361 69.5994 86.6905 71.5072 79.6583C74.3209 79.6468 79.1382 79.355 79.1382 79.355C79.1382 79.355 88.4352 77.121 95.1258 77.8849C98.3847 78.2534 101.026 80.7024 101.667 83.9306C103.367 92.4637 105.981 101.722 105.981 101.722Z" fill="#263238"/>
<path d="M81.1351 56.009L77.9644 55.5637L74.0146 55.9092C72.7824 56.0167 71.7729 56.9341 71.5502 58.1509C71.1126 60.5385 70.8746 63.9279 70.7518 66.8491C70.6136 70.1272 70.9744 74.9753 71.5042 79.3474L84.7011 77.7505C84.8278 66.2387 85.6991 62.6689 85.8066 59.6172C85.8527 58.3889 85.0734 57.2796 83.9027 56.9072L81.1351 56.009Z" fill="#23A9B1"/>
<path d="M71.4954 78.6218L71.1538 79.6928C71.1077 79.7734 71.2037 79.8617 71.3419 79.8693L84.5157 79.0786C84.6271 79.0786 84.7154 79.0325 84.7269 78.9596L84.8651 77.881C84.8651 77.8042 84.7844 77.7428 84.6655 77.7351L71.7027 78.5335C71.6259 78.522 71.5453 78.5566 71.4954 78.6218Z" fill="#263238"/>
<path opacity="0.1" d="M71.4954 78.6218L71.1538 79.6928C71.1077 79.7734 71.2037 79.8617 71.3419 79.8693L84.5157 79.0786C84.6271 79.0786 84.7154 79.0325 84.7269 78.9596L84.8651 77.881C84.8651 77.8042 84.7844 77.7428 84.6655 77.7351L71.7027 78.5335C71.6259 78.522 71.5453 78.5566 71.4954 78.6218Z" fill="black"/>
<path opacity="0.3" d="M72.8318 57.0686C75.4651 56.6079 75.3346 62.5807 74.1369 66.9567C73.7915 68.2234 72.2906 67.6937 71.7839 67.3636C70.1218 66.2811 69.5614 58.9763 72.8318 57.0686Z" fill="black"/>
<path d="M72.5136 65.9163C72.6134 68.5034 71.7919 69.8546 73.1661 70.7183C74.5442 71.582 82.6857 74.2805 82.8853 73.9427C82.49 74.5684 82.11 75.0981 81.7146 75.7238C79.3692 75.3706 77.0239 75.0482 74.6708 74.7488C72.955 74.53 70.1874 74.0885 68.8439 73.0022C67.6271 72.0196 67.8421 67.7012 68.0494 64.592C69.151 63.9509 72.5136 65.9163 72.5136 65.9163Z" fill="#FF8B7B"/>
<path d="M71.8107 56.0128C74.5169 55.2182 75.5418 57.387 74.7165 61.1027C74.302 63.1103 73.707 65.0756 72.9393 66.9719L67.2812 65.1869C67.8954 61.5365 69.0393 56.8266 71.8107 56.0128Z" fill="#23A9B1"/>
<path d="M75.7309 55.9935C75.6349 56.5578 75.8269 57.1374 76.1378 57.6172C76.4487 58.0932 76.8748 58.4848 77.297 58.8724C77.8306 59.3638 78.4678 59.8858 79.1894 59.7899C79.8535 59.7016 80.2335 59.3676 80.5022 58.5769C81.0703 59.4943 81.0972 59.9511 81.7229 60.0087C82.1298 60.047 82.4829 59.7515 82.767 59.4597C83.2698 58.9454 83.4924 58.6498 83.5846 57.9358C83.7343 56.7766 82.79 55.698 81.696 55.2911C80.5176 54.8535 79.4735 54.7498 78.249 54.6078C77.2279 54.4888 75.9382 54.8074 75.7309 55.9935Z" fill="#23A9B1"/>
<path opacity="0.3" d="M75.7309 55.9935C75.6349 56.5578 75.8269 57.1374 76.1378 57.6172C76.4487 58.0932 76.8748 58.4848 77.297 58.8724C77.8306 59.3638 78.4678 59.8858 79.1894 59.7899C79.8535 59.7016 80.2335 59.3676 80.5022 58.5769C81.0703 59.4943 81.0972 59.9511 81.7229 60.0087C82.1298 60.047 82.4829 59.7515 82.767 59.4597C83.2698 58.9454 83.4924 58.6498 83.5846 57.9358C83.7343 56.7766 82.79 55.698 81.696 55.2911C80.5176 54.8535 79.4735 54.7498 78.249 54.6078C77.2279 54.4888 75.9382 54.8074 75.7309 55.9935Z" fill="black"/>
<path d="M78.498 50.4238L79.9298 52.0782L81.8759 54.3276C81.6955 54.5656 81.5612 54.8382 81.4767 55.126C81.2694 55.7594 81.3308 56.3889 82.0179 56.8496C82.3173 56.9877 82.4671 58.5424 80.5132 58.3773C79.1813 58.3044 78.3368 57.8399 77.5614 57.0338C77.2006 56.554 77.1084 56.293 77.4769 55.7709C78.5325 54.2892 78.617 52.1358 78.498 50.4238Z" fill="#FF8B7B"/>
<path opacity="0.2" d="M81.4079 53.771L80.1796 52.1434C80.1642 52.1933 80.1489 52.2432 80.1297 52.297C80.0721 52.5273 80.0299 52.7614 80.0068 52.9956C79.9339 53.8017 80.6901 54.8343 81.4271 55.2757L81.4847 55.1145C81.5691 54.8458 81.692 54.5886 81.8493 54.3506C81.8609 54.3391 81.8724 54.3276 81.8839 54.3161L81.4079 53.771Z" fill="black"/>
<path d="M78.6322 47.3799C78.4096 50.0477 78.1639 51.5984 79.3116 53.1147C81.0428 55.4063 84.486 54.5963 85.4917 52.0322C86.3976 49.7252 86.5857 45.7485 84.1367 44.3743C82.3402 43.3801 80.0793 44.0327 79.089 45.8291C78.8241 46.3051 78.6667 46.8348 78.6322 47.3799Z" fill="#FF8B7B"/>
<path d="M78.2405 49.7405L79.3805 50.2357C79.7759 50.0744 79.8527 49.61 79.8258 49.1877C79.726 47.5602 82.6433 45.5565 82.6433 45.5565C82.6433 45.5565 79.5379 44.5393 78.6051 44.3819C78.2789 44.3281 77.1043 45.1803 76.92 45.5526C76.4056 46.5967 76.6168 47.8366 77.3231 48.7617C77.5956 49.1148 77.9027 49.4449 78.2405 49.7405Z" fill="#263238"/>
<path d="M77.2584 49.2607C77.3121 49.8557 77.5847 50.4123 78.0222 50.8192C78.5942 51.3374 79.289 50.7693 79.3696 50.0131C79.4387 49.3375 79.097 48.3471 78.4099 48.1207C77.7228 47.8942 77.1931 48.516 77.2584 49.2607Z" fill="#FF8B7B"/>
<path d="M82.6357 48.9806C82.5935 49.1994 82.6741 49.4028 82.82 49.4335C82.9658 49.4642 83.0963 49.3145 83.1501 49.0957C83.2038 48.8769 83.1117 48.6735 82.9658 48.6389C82.82 48.6082 82.6741 48.7579 82.6357 48.9806Z" fill="#263238"/>
<path d="M85.0962 49.5218C85.0539 49.7444 85.1345 49.9479 85.2804 49.9786C85.4224 50.0093 85.5683 49.8596 85.6105 49.6408C85.6527 49.4258 85.5683 49.2186 85.4263 49.1879C85.2842 49.1571 85.1384 49.303 85.0962 49.5218Z" fill="#263238"/>
<path d="M84.2744 49.5104C84.3511 50.1361 84.5085 50.7503 84.7427 51.3376C84.3435 51.5487 83.8291 51.2493 83.8291 51.2493L84.2744 49.5104Z" fill="#FF5652"/>
<path d="M83.2109 52.4928C82.7158 52.3201 82.3166 51.9516 82.1016 51.4756C82.0862 51.4411 82.1054 51.4027 82.1361 51.3912C82.1707 51.3797 82.2091 51.395 82.2206 51.4296C82.4624 51.9439 82.9307 52.3201 83.4873 52.4429C83.5219 52.4468 83.5487 52.4813 83.5449 52.5197C83.541 52.5543 83.5065 52.5811 83.4681 52.5773C83.4643 52.5773 83.4604 52.5773 83.4604 52.5734C83.376 52.5504 83.2915 52.5274 83.2109 52.4928Z" fill="#263238"/>
<path d="M82.2979 48.0977C82.2748 48.09 82.2595 48.0785 82.2441 48.0632C82.198 48.0056 82.2057 47.925 82.2595 47.8789C82.5704 47.5987 83.0041 47.4951 83.4072 47.6025C83.4763 47.6217 83.5147 47.6947 83.4955 47.7638V47.7676C83.4724 47.8367 83.3995 47.8751 83.3304 47.852C83.0118 47.7753 82.6779 47.8597 82.4322 48.0785C82.3938 48.1092 82.3401 48.1169 82.2979 48.0977Z" fill="#263238"/>
<path d="M85.3764 48.1014C85.3687 48.0822 85.3649 48.0592 85.3687 48.0362C85.3879 47.9671 85.4608 47.9248 85.5299 47.944C85.9368 48.04 86.2669 48.3356 86.4128 48.7309C86.4358 48.8 86.3974 48.873 86.3283 48.8922C86.2592 48.9152 86.1863 48.8768 86.1671 48.8077C86.0481 48.5006 85.7871 48.2741 85.4685 48.1974C85.4186 48.1859 85.3879 48.1475 85.3764 48.1014Z" fill="#263238"/>
<path d="M86.1908 78.3454L103.034 78.3953C103.629 78.3953 104.159 77.9116 104.213 77.3167L104.984 68.7913C105.038 68.1963 104.597 67.7088 104.002 67.7088L87.1581 67.6589C86.5631 67.6589 86.0334 68.1425 85.9797 68.7375L85.2081 77.2629C85.1506 77.8579 85.5958 78.3454 86.1908 78.3454Z" fill="#23A9B1"/>
<path opacity="0.3" d="M86.1908 78.3454L103.034 78.3953C103.629 78.3953 104.159 77.9116 104.213 77.3167L104.984 68.7913C105.038 68.1963 104.597 67.7088 104.002 67.7088L87.1581 67.6589C86.5631 67.6589 86.0334 68.1425 85.9797 68.7375L85.2081 77.2629C85.1506 77.8579 85.5958 78.3454 86.1908 78.3454Z" fill="black"/>
<path d="M86.6866 78.311L103.53 78.3609C104.125 78.3609 104.655 77.8772 104.709 77.2822L105.48 68.7568C105.534 68.1618 105.092 67.6744 104.498 67.6744L87.6501 67.6245C87.0551 67.6245 86.5254 68.1081 86.4717 68.7031L85.7001 77.2285C85.6502 77.8235 86.0917 78.311 86.6866 78.311Z" fill="#23A9B1"/>
<path opacity="0.2" d="M86.6866 78.311L103.53 78.3609C104.125 78.3609 104.655 77.8772 104.709 77.2822L105.48 68.7568C105.534 68.1618 105.092 67.6744 104.498 67.6744L87.6501 67.6245C87.0551 67.6245 86.5254 68.1081 86.4717 68.7031L85.7001 77.2285C85.6502 77.8235 86.0917 78.311 86.6866 78.311Z" fill="white"/>
<path d="M96.7733 73.1136C96.708 73.7662 96.1246 74.2422 95.4682 74.1769C94.8156 74.1117 94.3397 73.5282 94.4049 72.8718C94.4702 72.2193 95.0536 71.7433 95.71 71.8085C96.3626 71.8738 96.8385 72.4611 96.7733 73.1136Z" fill="white"/>
<path d="M103.759 78.3495C103.759 78.8601 103.456 79.2746 103.088 79.2746C103.084 79.2746 103.084 79.2746 103.08 79.2746L85.6951 79.2055C85.5071 79.2055 85.3535 78.9944 85.3535 78.7449C85.3574 78.4877 85.5071 78.2766 85.6951 78.2766L103.759 78.3495Z" fill="#23A9B1"/>
<path opacity="0.3" d="M103.759 78.3495C103.759 78.8601 103.456 79.2746 103.088 79.2746C103.084 79.2746 103.084 79.2746 103.08 79.2746L85.6951 79.2055C85.5071 79.2055 85.3535 78.9944 85.3535 78.7449C85.3574 78.4877 85.5071 78.2766 85.6951 78.2766L103.759 78.3495Z" fill="black"/>
<path d="M85.6072 79.2094H77.2392C76.7939 79.2094 76.4331 78.8486 76.4331 78.4033C76.4331 78.3342 76.4907 78.2766 76.5598 78.2766H85.6072C85.8644 78.2766 86.0717 78.4839 86.0717 78.7411C86.0717 79.0021 85.8644 79.2094 85.6072 79.2094Z" fill="#23A9B1"/>
<path d="M81.0859 72.7489L82.4754 72.342L82.3487 75.7622C82.3487 75.7622 79.3316 76.4723 79.1436 75.0828L79.5313 74.3342C79.8614 73.6894 80.322 72.937 81.0859 72.7489Z" fill="#FF8B7B"/>
<path d="M84.5553 73.2901L84.1446 75.2094L82.3481 75.7583L82.4748 72.342L84.5553 73.2901Z" fill="#FF8B7B"/>
<path d="M85.104 108.451L90.8618 110.405L92.0403 108.025L85.6721 106.002L85.104 108.451Z" fill="#23A9B1"/>
<path d="M101.644 104.286L106.953 101.323L105.978 98.8547L100.208 102.225L101.644 104.286Z" fill="#23A9B1"/>
<path d="M86.3779 47.353C87.1648 47.3107 87.4873 46.378 87.3951 45.9749C87.2723 45.4529 86.9614 44.9807 86.5084 44.7005C86.7618 43.9136 86.4201 42.9924 85.4682 42.3475C84.8502 41.9252 83.833 41.8907 83.165 42.1786C83.165 41.4838 81.8868 41.027 81.0692 41.8907C80.3514 41.4915 79.4532 41.5145 78.8659 42.0903C78.6739 42.2784 78.5358 42.574 78.624 42.8311C77.9753 42.8388 77.342 43.2227 77.0387 43.7985C76.7355 44.3704 76.77 45.1112 77.1308 45.6525C77.3919 46.044 77.9984 46.0363 78.459 45.9365C78.6778 46.4048 79.1538 46.6467 79.6451 46.8079C81.1652 47.3107 83.2457 46.8386 83.6142 46.7964C83.9827 46.7541 84.3742 46.7964 84.6813 47.0113C84.5776 47.2148 84.3051 47.3069 84.0786 47.3414C83.8521 47.3798 83.6218 47.3414 83.3954 47.3069C83.9558 47.6217 84.5085 47.8021 85.1342 47.6639C85.3223 47.6217 85.7446 47.3299 85.9326 47.3146C86.1246 47.2954 86.3971 47.3798 86.3779 47.353Z" fill="#263238"/>
</g>
<defs>
<clipPath id="clip0_856_1913">
<rect width="170" height="170" fill="white"/>
</clipPath>
</defs>
</svg>
