<?xml version="1.0" encoding="UTF-8"?>
<svg id="Layer_1" data-name="Layer 1" xmlns="http://www.w3.org/2000/svg" viewBox="0 0 30 21.83">
  <defs>
    <style>
      .cls-1 {
        fill: #ff312c;
      }
    </style>
  </defs>
  <path class="cls-1" d="m4.34,21.83h21.32c1.12,0,2.19-.44,2.98-1.24.79-.79,1.24-1.86,1.24-2.98s-.44-2.19-1.24-2.98c-.79-.79-1.86-1.24-2.98-1.24h-10.1v-6.12c0-.15-.06-.29-.16-.4-.11-.11-.25-.16-.4-.16s-.29.06-.4.16c-.11.11-.16.25-.16.4v6.12H4.34c-1.12,0-2.19.44-2.98,1.24-.79.79-1.24,1.86-1.24,2.98s.44,2.19,1.24,2.98c.79.79,1.86,1.24,2.98,1.24Zm5.78-4.75h9.75c.15,0,.29.06.4.16.11.11.16.25.16.4s-.06.29-.16.4c-.11.11-.25.16-.4.16h-9.75c-.15,0-.29-.06-.4-.16-.11-.11-.16-.25-.16-.4s.06-.29.16-.4c.11-.11.25-.16.4-.16Z"/>
  <path class="cls-1" d="m19.5,2.99c.11,0,.22-.03.31-.09.09-.06.16-.15.21-.25.04-.1.05-.22.03-.33-.02-.11-.08-.21-.15-.29-1.3-1.3-3.06-2.03-4.89-2.03s-3.6.73-4.89,2.03c-.05.05-.09.11-.12.18-.03.07-.04.14-.04.22s.01.15.04.22c.03.07.07.13.12.18.05.05.11.09.18.12.07.03.14.04.22.04s.15-.01.22-.04c.07-.03.13-.07.18-.12,1.09-1.09,2.56-1.69,4.1-1.69s3.01.61,4.1,1.69c.05.05.11.09.18.12s.14.04.22.04Z"/>
  <path class="cls-1" d="m13.18,5.21c-.11.11-.16.25-.16.4,0,.15.06.29.16.4.11.11.25.16.4.16.15,0,.29-.06.4-.16.27-.27.64-.43,1.03-.43s.76.15,1.03.43c.11.11.25.16.4.16.15,0,.29-.06.4-.16.11-.11.16-.25.16-.4,0-.15-.06-.29-.16-.4-.24-.24-.52-.43-.84-.56-.31-.13-.65-.2-.99-.2s-.67.07-.99.2c-.31.13-.6.32-.84.56Z"/>
  <path class="cls-1" d="m18.03,4.7c.11,0,.22-.03.31-.09.09-.06.16-.15.21-.25.04-.1.05-.22.03-.33-.02-.11-.08-.21-.15-.29-.91-.91-2.14-1.42-3.43-1.42s-2.52.51-3.43,1.42c-.11.11-.16.25-.16.4,0,.07.01.15.04.22.03.07.07.13.12.18.05.05.11.09.18.12.07.03.14.04.22.04.15,0,.29-.06.4-.16.7-.7,1.65-1.09,2.63-1.09s1.93.39,2.63,1.09c.05.05.11.09.18.12.07.03.14.04.22.04Z"/>
</svg>